<svg width="512" height="512" viewBox="0 0 512 512" fill="none" xmlns="http://www.w3.org/2000/svg">
<path d="M81 238.501L81 187.501C81 179.216 87.7157 172.501 96 172.501C104.284 172.501 111 179.216 111 187.501L111 238.501C111 246.785 104.284 253.501 96 253.501C87.7157 253.501 81 246.785 81 238.501Z" fill="black"/>
<path d="M115 264V161C115 151.335 122.835 143.5 132.5 143.5C142.165 143.5 150 151.335 150 161V264C150 273.665 142.165 281.5 132.5 281.5C122.835 281.5 115 273.665 115 264Z" fill="black"/>
<path d="M364 264V161C364 151.335 371.835 143.5 381.5 143.5C391.165 143.5 399 151.335 399 161V264C399 273.665 391.165 281.5 381.5 281.5C371.835 281.5 364 273.665 364 264Z" fill="black"/>
<path d="M403 238.501L403 187.501C403 179.216 409.716 172.501 418 172.501C426.284 172.501 433 179.216 433 187.501L433 238.501C433 246.785 426.284 253.501 418 253.501C409.716 253.501 403 246.785 403 238.501Z" fill="black"/>
<path d="M351.998 315.844C351.809 335.173 335.985 350.689 316.656 350.499C297.328 350.309 281.812 334.486 282.001 315.157L282.463 267.946C298.407 260.612 310.645 246.605 315.598 229.501H352.845L351.998 315.844ZM319.343 76.502C338.672 76.6915 354.188 92.5149 353.998 111.844L353.17 196.312V194.501H315.3C310.285 178.238 298.652 164.877 283.545 157.564L284.001 111.157C284.191 91.8285 300.014 76.3126 319.343 76.502Z" fill="black"/>
<path d="M198.402 229.501C203.383 246.701 215.731 260.772 231.807 268.071L231.339 315.844C231.15 335.173 215.327 350.688 195.998 350.499C176.669 350.309 161.154 334.486 161.343 315.157L162.183 229.501H198.402ZM198.685 76.502C218.014 76.6917 233.528 92.515 233.339 111.844L232.902 156.446C216.608 163.46 203.982 177.37 198.699 194.501H162.526L163.343 111.157C163.533 91.8284 179.356 76.3126 198.685 76.502Z" fill="black"/>
<path d="M257 187.501C257.979 187.501 258.945 187.559 259.896 187.669L261.596 193.523L267.9 195.479L271.972 192.478C274.164 194.12 276.077 196.115 277.629 198.377L274.422 202.654L276.596 208.305H281.647C281.878 209.67 282 211.071 282 212.501C282 214.114 281.846 215.691 281.554 217.219H276.596L274.422 223.089L277.229 227.19C275.76 229.209 273.998 230.999 272.004 232.498L267.466 229.61L261.813 232.436L260.661 237.232C259.466 237.408 258.244 237.501 257 237.501C255.667 237.501 254.359 237.395 253.082 237.194L251.813 232.436L246.161 229.828L241.598 232.193C239.591 230.622 237.832 228.749 236.386 226.645L238.77 222.871L236.378 217.219H232.446C232.154 215.691 232 214.114 232 212.501C232 211.071 232.122 209.67 232.353 208.305H237.248L238.987 202.871L236.283 198.503C237.656 196.475 239.32 194.66 241.213 193.116L245.943 195.697L251.596 193.305L253.231 187.783C254.461 187.597 255.719 187.501 257 187.501ZM256.813 200.045C249.73 200.045 243.987 205.787 243.987 212.871C243.987 219.955 249.73 225.697 256.813 225.697C263.897 225.697 269.64 219.954 269.64 212.871C269.64 205.787 263.897 200.045 256.813 200.045Z" fill="black"/>
<path d="M256.93 154.649C259.182 154.649 261.404 154.779 263.589 155.031L267.5 168.501L282 173.001L291.367 166.097C296.409 169.874 300.81 174.46 304.378 179.662L297 189.501L302 202.501H353V223.501H313V223.001H302L297 236.501L303.457 245.938C300.08 250.58 296.026 254.697 291.439 258.144L281 251.501L268 258.001L265.352 269.035C262.603 269.438 259.791 269.649 256.93 269.649C253.864 269.649 250.854 269.407 247.918 268.945L245 258.001L232 252.001L221.504 257.442C216.889 253.828 212.841 249.523 209.515 244.684L215 236.001L209.5 223.001H200.453C200.421 222.834 200.391 222.668 200.36 222.501H163.047V202.501H211.5L215.5 190.001L209.28 179.954C212.438 175.29 216.263 171.115 220.617 167.564L231.5 173.501L244.5 168.001L248.264 155.298C251.09 154.87 253.984 154.649 256.93 154.649ZM256.5 183.501C240.208 183.501 227 196.708 227 213.001C227 229.293 240.208 242.501 256.5 242.501C272.792 242.501 286 229.293 286 213.001C286 196.708 272.792 183.501 256.5 183.501Z" fill="black"/>
<path d="M192.091 383.6H201.325V423.5H192.091V383.6ZM173.965 423.5H164.731V383.6H173.965V423.5ZM192.775 407.141H173.281V399.332H192.775V407.141ZM208.998 423.5V392.834H217.89V423.5H208.998ZM213.444 388.559C211.81 388.559 210.48 388.084 209.454 387.134C208.428 386.184 207.915 385.006 207.915 383.6C207.915 382.194 208.428 381.016 209.454 380.066C210.48 379.116 211.81 378.641 213.444 378.641C215.078 378.641 216.408 379.097 217.434 380.009C218.46 380.883 218.973 382.023 218.973 383.429C218.973 384.911 218.46 386.146 217.434 387.134C216.446 388.084 215.116 388.559 213.444 388.559ZM225.003 423.5V392.834H233.496V401.498L232.299 398.99C233.211 396.824 234.674 395.19 236.688 394.088C238.702 392.948 241.153 392.378 244.041 392.378V400.586C243.661 400.548 243.319 400.529 243.015 400.529C242.711 400.491 242.388 400.472 242.046 400.472C239.614 400.472 237.638 401.175 236.118 402.581C234.636 403.949 233.895 406.096 233.895 409.022V423.5H225.003ZM264.994 423.5V417.515L264.424 416.204V405.488C264.424 403.588 263.835 402.106 262.657 401.042C261.517 399.978 259.75 399.446 257.356 399.446C255.722 399.446 254.107 399.712 252.511 400.244C250.953 400.738 249.623 401.422 248.521 402.296L245.329 396.083C247.001 394.905 249.015 393.993 251.371 393.347C253.727 392.701 256.121 392.378 258.553 392.378C263.227 392.378 266.856 393.48 269.44 395.684C272.024 397.888 273.316 401.327 273.316 406.001V423.5H264.994ZM255.646 423.956C253.252 423.956 251.2 423.557 249.49 422.759C247.78 421.923 246.469 420.802 245.557 419.396C244.645 417.99 244.189 416.413 244.189 414.665C244.189 412.841 244.626 411.245 245.5 409.877C246.412 408.509 247.837 407.445 249.775 406.685C251.713 405.887 254.24 405.488 257.356 405.488H265.507V410.675H258.325C256.235 410.675 254.791 411.017 253.993 411.701C253.233 412.385 252.853 413.24 252.853 414.266C252.853 415.406 253.29 416.318 254.164 417.002C255.076 417.648 256.311 417.971 257.869 417.971C259.351 417.971 260.681 417.629 261.859 416.945C263.037 416.223 263.892 415.178 264.424 413.81L265.792 417.914C265.146 419.89 263.968 421.391 262.258 422.417C260.548 423.443 258.344 423.956 255.646 423.956ZM319.497 392.378C321.929 392.378 324.076 392.872 325.938 393.86C327.838 394.81 329.32 396.292 330.384 398.306C331.486 400.282 332.037 402.828 332.037 405.944V423.5H323.145V407.312C323.145 404.842 322.632 403.018 321.606 401.84C320.58 400.662 319.136 400.073 317.274 400.073C315.982 400.073 314.823 400.377 313.797 400.985C312.771 401.555 311.973 402.429 311.403 403.607C310.833 404.785 310.548 406.286 310.548 408.11V423.5H301.656V407.312C301.656 404.842 301.143 403.018 300.117 401.84C299.129 400.662 297.704 400.073 295.842 400.073C294.55 400.073 293.391 400.377 292.365 400.985C291.339 401.555 290.541 402.429 289.971 403.607C289.401 404.785 289.116 406.286 289.116 408.11V423.5H280.224V392.834H288.717V401.213L287.121 398.762C288.185 396.672 289.686 395.095 291.624 394.031C293.6 392.929 295.842 392.378 298.35 392.378C301.162 392.378 303.613 393.1 305.703 394.544C307.831 395.95 309.237 398.116 309.921 401.042L306.786 400.187C307.812 397.793 309.446 395.893 311.688 394.487C313.968 393.081 316.571 392.378 319.497 392.378ZM338.867 423.5V392.834H347.759V423.5H338.867ZM343.313 388.559C341.679 388.559 340.349 388.084 339.323 387.134C338.297 386.184 337.784 385.006 337.784 383.6C337.784 382.194 338.297 381.016 339.323 380.066C340.349 379.116 341.679 378.641 343.313 378.641C344.947 378.641 346.277 379.097 347.303 380.009C348.329 380.883 348.842 382.023 348.842 383.429C348.842 384.911 348.329 386.146 347.303 387.134C346.315 388.084 344.985 388.559 343.313 388.559Z" fill="black"/>
</svg>
