<svg width="352" height="275" viewBox="0 0 352 275" fill="none" xmlns="http://www.w3.org/2000/svg">
<path d="M-2.82442e-08 162.001L-6.41915e-09 111.001C-2.87395e-09 102.716 6.71573 96.0007 15 96.0007C23.2843 96.0007 30 102.716 30 111.001L30 162.001C30 170.285 23.2843 177.001 15 177.001C6.71573 177.001 -3.17894e-08 170.285 -2.82442e-08 162.001Z" fill="black"/>
<path d="M34 187.5V84.5C34 74.835 41.835 67 51.5 67C61.165 67 69 74.835 69 84.5V187.5C69 197.165 61.165 205 51.5 205C41.835 205 34 197.165 34 187.5Z" fill="black"/>
<path d="M283 187.5V84.5C283 74.835 290.835 67 300.5 67C310.165 67 318 74.835 318 84.5V187.5C318 197.165 310.165 205 300.5 205C290.835 205 283 197.165 283 187.5Z" fill="black"/>
<path d="M322 162.001L322 111.001C322 102.716 328.716 96.0007 337 96.0007C345.284 96.0007 352 102.716 352 111.001L352 162.001C352 170.285 345.284 177.001 337 177.001C328.716 177.001 322 170.285 322 162.001Z" fill="black"/>
<path d="M270.998 239.344C270.809 258.673 254.985 274.189 235.656 273.999C216.328 273.809 200.812 257.986 201.001 238.657L201.463 191.446C217.407 184.112 229.645 170.105 234.598 153.001H271.845L270.998 239.344ZM238.343 0.00195312C257.672 0.19152 273.188 16.0149 272.998 35.3438L272.17 119.812V118.001H234.3C229.285 101.738 217.652 88.3774 202.545 81.0645L203.001 34.6572C203.191 15.3285 219.014 -0.187413 238.343 0.00195312Z" fill="black"/>
<path d="M117.402 153.001C122.383 170.201 134.731 184.272 150.807 191.571L150.339 239.344C150.15 258.673 134.327 274.188 114.998 273.999C95.6694 273.809 80.1535 257.986 80.343 238.657L81.1829 153.001H117.402ZM117.685 0.00195312C137.014 0.191712 152.528 16.015 152.339 35.3438L151.902 79.9463C135.608 86.9603 122.982 100.87 117.699 118.001H81.5256L82.343 34.6572C82.5327 15.3284 98.356 -0.187415 117.685 0.00195312Z" fill="black"/>
<path d="M176 111.001C176.979 111.001 177.945 111.059 178.896 111.169L180.596 117.023L186.9 118.979L190.972 115.978C193.164 117.62 195.077 119.615 196.629 121.877L193.422 126.154L195.596 131.805H200.647C200.878 133.17 201 134.571 201 136.001C201 137.614 200.846 139.191 200.554 140.719H195.596L193.422 146.589L196.229 150.69C194.76 152.709 192.998 154.499 191.004 155.998L186.466 153.11L180.813 155.936L179.661 160.732C178.466 160.908 177.244 161.001 176 161.001C174.667 161.001 173.359 160.895 172.082 160.694L170.813 155.936L165.161 153.328L160.598 155.693C158.591 154.122 156.832 152.249 155.386 150.145L157.77 146.371L155.378 140.719H151.446C151.154 139.191 151 137.614 151 136.001C151 134.571 151.122 133.17 151.353 131.805H156.248L157.987 126.371L155.283 122.003C156.656 119.975 158.32 118.16 160.213 116.616L164.943 119.197L170.596 116.805L172.231 111.283C173.461 111.097 174.719 111.001 176 111.001ZM175.813 123.545C168.73 123.545 162.987 129.287 162.987 136.371C162.987 143.455 168.73 149.197 175.813 149.197C182.897 149.197 188.64 143.454 188.64 136.371C188.64 129.287 182.897 123.545 175.813 123.545Z" fill="black"/>
<path d="M175.93 78.1492C178.182 78.1492 180.404 78.279 182.589 78.531L186.5 92.0007L201 96.5007L210.367 89.5974C215.409 93.374 219.81 97.9602 223.378 103.162L216 113.001L221 126.001H272V147.001H232V146.501H221L216 160.001L222.457 169.438C219.08 174.08 215.026 178.197 210.439 181.644L200 175.001L187 181.501L184.352 192.535C181.603 192.938 178.791 193.149 175.93 193.149C172.864 193.149 169.854 192.907 166.918 192.445L164 181.501L151 175.501L140.504 180.942C135.889 177.328 131.841 173.023 128.515 168.184L134 159.501L128.5 146.501H119.453C119.421 146.334 119.391 146.168 119.36 146.001H82.0469V126.001H130.5L134.5 113.501L128.28 103.454C131.438 98.7898 135.263 94.6148 139.617 91.0642L150.5 97.0007L163.5 91.5007L167.264 78.7976C170.09 78.3704 172.984 78.1492 175.93 78.1492ZM175.5 107.001C159.208 107.001 146 120.208 146 136.501C146 152.793 159.208 166.001 175.5 166.001C191.792 166.001 205 152.793 205 136.501C205 120.208 191.792 107.001 175.5 107.001Z" fill="black"/>
</svg>
