<svg width="385" height="275" viewBox="0 0 385 275" fill="none" xmlns="http://www.w3.org/2000/svg">
<g clip-path="url(#clip0_118_168)">
<path opacity="0.1" d="M192.5 275C298.815 275 385 269.589 385 262.914C385 256.239 298.815 250.828 192.5 250.828C86.1852 250.828 0 256.239 0 262.914C0 269.589 86.1852 275 192.5 275Z" fill="#A86523"/>
<path d="M354.805 253.963C354.808 254.918 354.709 255.871 354.512 256.805C354.475 256.981 354.435 257.171 354.394 257.322C353.353 261.493 350.416 264.544 346.911 264.738C346.793 264.738 346.676 264.738 346.544 264.738C342.837 264.738 339.702 261.544 338.668 257.146C338.639 257.029 338.613 256.911 338.587 256.779C338.39 255.845 338.291 254.892 338.294 253.937C338.294 247.979 341.986 243.152 346.544 243.152C351.102 243.152 354.805 248.012 354.805 253.963Z" fill="#2C1A0A"/>
<path opacity="0.1" d="M354.805 253.963C354.808 254.918 354.709 255.871 354.512 256.805C354.475 256.981 354.435 257.171 354.394 257.321C354.27 257.321 354.149 257.321 354.028 257.321C353.12 257.273 352.217 257.15 351.329 256.955C350.542 257.198 349.738 257.382 348.924 257.505C348.299 257.599 347.67 257.657 347.039 257.68H346.401C345.646 257.68 344.891 257.63 344.142 257.53C342.932 257.369 341.742 257.074 340.597 256.651C339.969 256.86 339.33 257.031 338.683 257.164C338.653 257.047 338.628 256.93 338.602 256.798C338.404 255.863 338.306 254.911 338.309 253.956C338.309 247.997 342.001 243.17 346.559 243.17C351.116 243.17 354.805 248.012 354.805 253.963Z" fill="#2C1A0A"/>
<path d="M372.405 233.875C372.408 231.254 371.793 228.669 370.608 226.33L360.906 229.344L369.424 224.341C367.996 222.28 366.122 220.564 363.942 219.323C361.761 218.081 359.329 217.344 356.825 217.167C356.426 216.564 355.989 215.986 355.516 215.438L341.583 219.771L353.012 213.061C350.826 211.386 348.26 210.275 345.541 209.826C342.823 209.377 340.036 209.603 337.426 210.486C334.816 211.369 332.464 212.88 330.578 214.887C328.692 216.893 327.33 219.333 326.612 221.99L338.547 235.717L325.6 226.359C322.317 228.682 319.979 232.105 319.013 236.006C318.046 239.906 318.516 244.023 320.335 247.607C322.154 251.191 325.203 254.002 328.924 255.527C332.646 257.053 336.792 257.192 340.608 255.919C344.059 257.182 347.829 257.285 351.344 256.212C353.794 256.753 356.335 256.739 358.779 256.169C361.223 255.599 363.508 254.488 365.465 252.919C367.423 251.349 369.002 249.361 370.088 247.101C371.173 244.841 371.737 242.366 371.738 239.859C371.738 239.493 371.738 239.127 371.701 238.76C372.176 237.176 372.413 235.529 372.405 233.875Z" fill="#A86523"/>
<path opacity="0.1" d="M372.115 236.984C366.992 236.012 361.737 235.945 356.591 236.786C350.764 237.75 344.81 239.866 339.112 238.317C335.768 237.409 332.878 235.307 329.611 234.142C326.46 233.041 323.064 232.837 319.803 233.552C318.559 236.522 318.198 239.786 318.762 242.955C319.327 246.124 320.792 249.063 322.985 251.422C325.177 253.781 328.003 255.459 331.125 256.257C334.247 257.054 337.532 256.937 340.589 255.919C344.04 257.182 347.81 257.285 351.325 256.212C353.776 256.753 356.317 256.739 358.761 256.169C361.205 255.599 363.49 254.488 365.447 252.919C367.404 251.349 368.984 249.361 370.069 247.101C371.155 244.841 371.719 242.366 371.719 239.859C371.719 239.493 371.719 239.127 371.683 238.76C371.86 238.177 372.004 237.584 372.115 236.984Z" fill="#2C1A0A"/>
<path d="M256.153 62.9826H254.052C253.589 62.9826 253.213 63.3581 253.213 63.8213V93.2818C253.213 93.745 253.589 94.1205 254.052 94.1205H256.153C256.617 94.1205 256.993 93.745 256.993 93.2818V63.8213C256.993 63.3581 256.617 62.9826 256.153 62.9826Z" fill="#2C1A0A"/>
<path d="M129.085 38.5872H128.062C127.758 38.5872 127.512 38.8332 127.512 39.1366V48.289C127.512 48.5924 127.758 48.8383 128.062 48.8383H129.085C129.389 48.8383 129.635 48.5924 129.635 48.289V39.1366C129.635 38.8332 129.389 38.5872 129.085 38.5872Z" fill="#2C1A0A"/>
<path d="M129.206 57.3571H128.055C127.712 57.3571 127.435 57.6342 127.435 57.9761V74.5815C127.435 74.9233 127.712 75.2004 128.055 75.2004H129.206C129.548 75.2004 129.826 74.9233 129.826 74.5815V57.9761C129.826 57.6342 129.548 57.3571 129.206 57.3571Z" fill="#2C1A0A"/>
<path d="M129.158 81.4412H128.062C127.736 81.4412 127.472 81.7052 127.472 82.0308V98.8487C127.472 99.1743 127.736 99.4383 128.062 99.4383H129.158C129.484 99.4383 129.749 99.1743 129.749 98.8487V82.0308C129.749 81.7052 129.484 81.4412 129.158 81.4412Z" fill="#2C1A0A"/>
<path d="M242.165 4.71353H141.801C134.574 4.71353 128.715 10.5657 128.715 17.7847V248.513C128.715 255.732 134.574 261.585 141.801 261.585H242.165C249.392 261.585 255.251 255.732 255.251 248.513V17.7847C255.251 10.5657 249.392 4.71353 242.165 4.71353Z" fill="#2C1A0A"/>
<path d="M196.515 12.3826H180.708C180.194 12.3826 179.777 12.7991 179.777 13.3129V15.0379C179.777 15.5516 180.194 15.9681 180.708 15.9681H196.515C197.029 15.9681 197.446 15.5516 197.446 15.0379V13.3129C197.446 12.7991 197.029 12.3826 196.515 12.3826Z" fill="#E6E8EC"/>
<path d="M202.154 16.2062C203.278 16.2062 204.189 15.2962 204.189 14.1736C204.189 13.051 203.278 12.1409 202.154 12.1409C201.03 12.1409 200.119 13.051 200.119 14.1736C200.119 15.2962 201.03 16.2062 202.154 16.2062Z" fill="#E6E8EC"/>
<path d="M247.438 21.4398V244.847C247.437 247.509 246.377 250.062 244.493 251.943C242.608 253.825 240.052 254.882 237.387 254.882H146.579C143.914 254.882 141.358 253.825 139.473 251.943C137.589 250.062 136.529 247.509 136.528 244.847V21.4398C136.528 20.1215 136.788 18.8161 137.293 17.5982C137.798 16.3802 138.539 15.2736 139.472 14.3414C140.405 13.4092 141.513 12.6697 142.733 12.1653C143.952 11.6608 145.259 11.4011 146.579 11.4011H160.167V13.1444C160.171 15.3345 161.045 17.4336 162.596 18.9812C164.148 20.5289 166.25 21.3985 168.443 21.3995H214.643C215.73 21.3995 216.806 21.1857 217.81 20.7703C218.814 20.3549 219.726 19.746 220.495 18.9784C221.263 18.2109 221.873 17.2996 222.289 16.2967C222.705 15.2938 222.919 14.2189 222.919 13.1334V11.4011H237.406C240.068 11.406 242.62 12.4657 244.5 14.3478C246.381 16.2299 247.438 18.7805 247.438 21.4398Z" fill="white"/>
<path opacity="0.2" d="M248.233 113.692V189.662H247.438V189.739H136.528V96.9259C137.24 96.1153 137.961 95.2742 138.692 94.4025C154.268 75.8231 175.439 70.9337 191.825 70.421C203.053 70.0548 214.229 72.3731 224.899 76.9767C230.534 79.4086 238.623 82.0748 247.438 82.3385V111.059C247.977 112.594 248.233 113.692 248.233 113.692Z" fill="#A86523"/>
<path opacity="0.2" d="M248.233 113.692V189.662H136.528V139.897C140.507 138.897 146.062 135.052 153.19 124.427C161.715 111.715 173.298 108.371 182.263 108.019C188.404 107.778 194.52 109.352 200.358 112.506C206.925 116.047 219.582 120.318 229.2 107.92C239.833 94.212 245.487 105.518 247.438 111.059C247.977 112.594 248.233 113.692 248.233 113.692Z" fill="#A86523"/>
<path d="M232.1 175.748H152.167C149.737 175.748 147.767 177.716 147.767 180.143V199.188C147.767 201.615 149.737 203.583 152.167 203.583H232.1C234.53 203.583 236.5 201.615 236.5 199.188V180.143C236.5 177.716 234.53 175.748 232.1 175.748Z" fill="#F5C76D"/>
<path d="M49.1553 250.407L56.1733 246.272C55.2242 244.653 54.011 243.203 52.5837 241.983L39.3433 246.111L49.72 240.017C47.1513 238.611 44.2605 237.898 41.3321 237.947C38.4037 237.997 35.5386 238.807 33.0189 240.298C30.4991 241.789 28.4116 243.91 26.9617 246.452C25.5118 248.994 24.7496 251.869 24.75 254.794C24.75 264.101 32.2997 264.423 41.6167 264.423C50.9337 264.423 58.4833 264.101 58.4833 254.794C58.4866 252.44 57.9931 250.111 57.035 247.96L49.1553 250.407Z" fill="#A86523"/>
<path opacity="0.1" d="M50.941 259.457C50.1941 258.708 49.3594 258.053 48.455 257.505C47.179 256.659 45.8627 255.798 44.3594 255.509C43.0394 255.256 41.679 255.468 40.326 255.395C37.9916 255.251 35.7943 254.245 34.1624 252.571C33.2054 251.583 32.45 250.374 31.2987 249.608C30.0557 248.795 28.479 248.62 27.005 248.821C26.5779 248.886 26.1544 248.972 25.7364 249.081C25.0746 250.915 24.7371 252.849 24.739 254.798C24.739 264.104 32.2887 264.427 41.6057 264.427C46.1267 264.427 50.2297 264.35 53.2584 263.207L52.7524 262.262C52.2697 261.254 51.6611 260.312 50.941 259.457Z" fill="#2C1A0A"/>
<path d="M83.6879 213.263C83.1519 213.732 82.7391 214.326 82.4852 214.991C81.8582 216.947 83.6109 218.866 83.7796 220.913C83.9116 222.54 83.0462 224.056 82.5549 225.616C82.0004 227.554 82.0363 229.613 82.658 231.531C83.2796 233.449 84.459 235.138 86.0456 236.383C86.3834 236.67 86.7822 236.875 87.2116 236.984C87.5659 237.027 87.9252 236.997 88.2675 236.896C88.6098 236.795 88.928 236.626 89.2026 236.398C90.054 235.78 90.7034 234.923 91.0689 233.937C91.3731 232.968 91.5373 231.96 91.5566 230.945L91.8169 227.026C92.0882 222.935 92.3339 218.716 91.3366 214.698C91.0102 213.38 90.4052 210.351 88.8799 210.168C87.3546 209.985 84.6999 212.274 83.6879 213.263Z" fill="#2C1A0A"/>
<path d="M109.267 196.43C107.435 202.855 106.107 209.412 105.296 216.042C105.178 216.976 105.057 217.958 104.493 218.712C103.367 220.225 101.112 220.13 99.2421 219.884C98.7932 219.861 98.3556 219.735 97.9624 219.518C97.2584 219.042 97.1044 218.09 97.0201 217.244C95.7392 204.772 94.8836 192.267 94.4534 179.729C94.4351 179.25 110.106 179.206 111.448 180.462C112.79 181.718 111.749 186.417 111.448 188.018C110.957 190.867 110.07 193.643 109.267 196.43Z" fill="#A86523"/>
<path opacity="0.05" d="M109.267 196.43C107.435 202.855 106.107 209.412 105.296 216.042C105.178 216.976 105.057 217.958 104.493 218.712C103.367 220.225 101.112 220.13 99.2421 219.884C98.7932 219.861 98.3556 219.735 97.9624 219.518C97.2584 219.042 97.1044 218.09 97.0201 217.244C95.7392 204.772 94.8836 192.267 94.4534 179.729C94.4351 179.25 110.106 179.206 111.448 180.462C112.79 181.718 111.749 186.417 111.448 188.018C110.957 190.867 110.07 193.643 109.267 196.43Z" fill="#2C1A0A"/>
<path d="M76.6333 177.946L82.9803 191.889C85.0923 196.525 87.219 201.213 88.2273 206.205C88.6318 208.291 88.8903 210.402 89.001 212.523C89.1542 214.341 89.0976 216.171 88.8323 217.976C88.6013 219.317 88.176 220.62 87.989 221.968C87.2556 227.341 90.3026 232.395 92.389 237.394C94.1916 241.688 95.3386 246.227 95.7916 250.861C95.9823 252.835 96.0886 254.93 97.218 256.56C99.2823 255.941 101.299 255.406 103.451 255.648C103.836 252.494 101.842 249.59 101.108 246.492C99.7626 240.815 102.736 234.849 101.724 229.103C101.174 225.99 99.4693 223.06 99.6086 219.903C99.869 214.145 100.951 208.329 99.8506 202.689C98.6113 196.313 95.0473 190.515 94.259 184.069C93.654 179.118 94.6256 173.643 91.8646 169.482C85.833 169.127 79.596 172.683 76.6333 177.946Z" fill="#A86523"/>
<path d="M97.4929 265.507C96.8586 265.529 96.1179 265.507 95.7256 265.005C95.5341 264.713 95.424 264.376 95.4066 264.027C95.1062 261.82 94.9592 259.594 94.9666 257.365C94.9666 256.552 95.0032 255.688 95.4579 255.018C95.7915 254.609 96.1717 254.24 96.5909 253.919C97.5626 253.022 98.2702 251.722 99.5242 251.308C100.074 251.148 100.656 251.141 101.21 251.286C101.763 251.431 102.267 251.723 102.667 252.132C103.458 252.974 103.948 254.055 104.06 255.205C104.243 256.567 104.089 258.05 104.812 259.233C105.098 259.691 105.497 260.065 105.82 260.497C106.92 261.962 107.906 264.829 105.637 265.423C103.231 266.049 99.9899 265.426 97.4929 265.507Z" fill="#2C1A0A"/>
<path d="M102.997 95.4316C104.28 92.9558 103.514 89.7695 101.68 87.6673C99.847 85.5651 97.1666 84.3931 94.4313 83.7595C90.7646 82.9025 86.834 82.9098 83.325 84.2576C80.5273 85.3307 78.1183 87.1875 75.537 88.7038C70.9752 91.3861 65.8695 93.013 60.5953 93.4649C54.7286 93.9593 48.1763 93.1902 43.6406 96.9222C35.332 103.756 41.118 119.157 33.374 126.613C31.284 128.624 28.4936 129.712 26.0993 131.349C23.705 132.986 21.5636 135.605 21.9486 138.476C22.132 139.857 22.8873 141.102 23.76 142.19C27.5073 146.867 33.7993 149.317 39.7503 148.588C45.7013 147.859 51.15 144.043 54.0503 138.791C54.7836 137.476 55.3776 136.037 56.5326 135.081C58.8463 133.173 62.2416 133.946 65.241 133.854C71.9106 133.649 77.968 127.939 78.551 121.296C78.8003 118.457 78.3163 115.154 80.3586 113.161C82.005 111.55 84.579 111.565 86.8303 111.07C90.9663 110.166 93.9766 107.177 95.865 103.529C96.7303 101.852 96.6423 99.9767 97.9256 98.585C99.2933 97.0541 101.776 97.7829 102.997 95.4316Z" fill="#2C1A0A"/>
<g opacity="0.1">
<path d="M55.1283 94.6259C57.561 94.4187 59.9656 93.9609 62.304 93.2598C61.644 93.3514 60.984 93.4283 60.3203 93.4832C55.7223 93.8678 50.6917 93.4832 46.5483 95.0984C49.3717 94.809 52.3307 94.8603 55.1283 94.6259Z" fill="#2C1A0A"/>
<path d="M51.0363 136.242C49.8813 137.194 49.2727 138.637 48.554 139.952C46.3319 143.953 42.7735 147.047 38.5 148.694C38.8263 148.672 39.1527 148.643 39.479 148.603C45.43 147.87 50.8787 144.061 53.779 138.809C54.5123 137.494 55.1027 136.052 56.2613 135.099L56.4593 134.945C54.4463 134.898 52.5177 135.019 51.0363 136.242Z" fill="#2C1A0A"/>
<path d="M101.405 87.6893C99.5721 85.5871 96.8734 84.4187 94.1564 83.7815C90.4898 82.9245 86.5591 82.9355 83.0464 84.2832L82.8118 84.3785C84.8783 84.261 86.951 84.4448 88.9644 84.9242C91.6814 85.5614 94.3838 86.7297 96.2134 88.8356C98.0431 90.9415 98.8131 94.1241 97.5298 96.5999C96.3088 98.9512 93.8264 98.2187 92.4294 99.7386C91.1461 101.127 91.2341 103.006 90.3688 104.683C88.7444 107.822 86.2841 110.466 82.9988 111.722C84.1464 111.451 85.3784 111.33 86.5224 111.081C90.6584 110.173 93.6688 107.188 95.5571 103.54C96.4261 101.863 96.3381 99.984 97.6178 98.596C99.0184 97.0761 101.501 97.8049 102.718 95.4573C104.001 92.9888 103.235 89.8025 101.405 87.6893Z" fill="#2C1A0A"/>
<path d="M81.334 112.227C79.0827 112.718 76.5087 112.707 74.8624 114.315C72.82 116.311 73.304 119.615 73.0547 122.453C72.6184 127.416 69.124 131.858 64.603 133.876H64.9367C71.6064 133.671 77.66 127.958 78.243 121.318C78.496 118.476 78.012 115.172 80.0544 113.18C80.5224 112.734 81.0729 112.383 81.675 112.147L81.334 112.227Z" fill="#2C1A0A"/>
</g>
<path d="M103.107 128.763C102.802 129.302 102.175 129.551 101.592 129.767C95.5569 131.986 89.2063 134.246 82.8409 133.312C82.6026 132.312 82.3679 131.309 82.1333 130.309C81.7935 128.859 81.4513 127.408 81.1066 125.958C80.9453 125.266 80.7803 124.566 80.6483 123.863C80.4208 122.753 80.348 121.616 80.4319 120.486C80.4707 120.077 80.5443 119.671 80.6519 119.274C80.8403 118.552 81.1556 117.868 81.5833 117.256C81.6566 117.157 81.7336 117.058 81.8143 116.963C82.1768 116.526 82.6168 116.16 83.1123 115.883C84.1939 115.289 85.6789 115.037 86.1153 113.887C86.2841 113.285 86.2674 112.647 86.0676 112.055C85.7009 110.59 85.0373 109.213 84.6266 107.763C84.1059 105.932 84.8906 106.045 86.6616 105.602C89.8516 104.8 93.1883 104.225 96.4626 104.87C96.3086 106.485 96.1583 108.14 96.5653 109.715C96.9723 111.29 98.0613 112.784 99.6269 113.22C99.8579 113.286 100.104 113.326 100.36 113.381C100.7 113.436 101.023 113.569 101.303 113.769C101.496 113.928 101.649 114.13 101.75 114.359C101.909 114.746 102.014 115.152 102.062 115.568C102.636 119.411 103.05 123.272 103.305 127.152V127.298C103.38 127.796 103.311 128.304 103.107 128.763Z" fill="#A86523"/>
<path d="M72.0353 122.453C70.664 124.537 70.202 127.071 69.784 129.532L67.122 144.951C66.7553 147.061 66.429 149.379 67.5107 151.229C67.8773 151.855 68.3907 152.397 68.6583 153.06C68.8606 153.727 68.9933 154.413 69.0543 155.107C69.6777 158.641 73.1573 161.026 76.648 161.883C77.9093 162.194 79.3833 162.315 80.377 161.476C81.477 160.564 81.477 158.828 80.828 157.576C80.179 156.323 78.9947 155.437 77.847 154.598L74.0447 151.8L76.2447 134.953C76.406 133.73 76.978 132.144 78.2173 132.279C79.3467 132.4 80.2157 134.045 81.2203 133.513C81.5352 133.301 81.7568 132.976 81.84 132.605C82.28 131.224 82.159 129.738 82.0343 128.291L81.5797 123.068C81.4293 121.373 81.8657 120.102 82.071 118.509C82.3093 116.652 81.07 117.216 79.541 117.615C76.604 118.391 73.733 119.867 72.0353 122.453Z" fill="#A86523"/>
<path d="M119.317 147.775C119.038 148.244 118.624 148.619 118.129 148.852C115.16 150.524 111.669 151.014 108.354 150.225C107.59 150.001 106.813 149.82 106.029 149.683C104.775 149.529 103.499 149.778 102.234 149.683C99.6673 149.489 97.4123 147.888 95.634 146.021C94.5633 144.922 93.5916 143.124 94.589 141.944C94.8676 141.66 95.2136 141.45 95.595 141.335C95.9764 141.22 96.3808 141.203 96.7706 141.285C97.547 141.458 98.2959 141.736 98.9963 142.113C101.45 143.249 104.076 143.972 106.766 144.252C108.599 144.442 110.931 144.131 111.566 142.391C111.874 141.545 111.657 140.608 111.441 139.732C110.849 137.335 110.258 134.936 109.666 132.536C109.626 132.326 109.551 132.124 109.446 131.939C109.416 131.888 109.381 131.842 109.34 131.799C109.106 131.605 108.823 131.478 108.522 131.433C107.155 131.096 105.787 130.551 104.808 129.543C104.166 128.828 103.655 128.007 103.297 127.115C103.195 126.892 103.099 126.665 103 126.438C102.249 124.687 101.457 122.892 100.844 121.054C100.417 119.811 100.101 118.533 99.902 117.234C99.7406 116.11 99.6526 115.593 100.269 115.095C100.434 114.971 100.609 114.86 100.793 114.766C101.075 114.615 101.394 114.465 101.732 114.322L102.058 114.187C103.061 113.786 104.091 113.458 105.142 113.205C107.686 112.616 110.403 113.846 112.149 115.791C113.894 117.736 114.8 120.281 115.379 122.827C115.958 125.372 116.255 127.98 116.981 130.485C117.264 131.466 117.616 132.433 117.858 133.415C118.117 134.582 118.302 135.765 118.411 136.956C118.756 139.991 119.099 143.026 119.442 146.061C119.568 146.632 119.525 147.228 119.317 147.775Z" fill="#A86523"/>
<path d="M81.6676 146.456C82.4009 151.13 80.2926 155.726 78.2539 160.007C79.4089 160.85 80.8206 161.267 82.1992 161.63C91.4267 164.053 101.019 164.774 110.506 163.758C110.733 162.176 110.946 160.498 110.297 159.041C109.894 158.136 109.197 157.4 108.753 156.513C108.02 155.048 108.093 153.345 108.174 151.719L108.83 137.864C104.28 135.769 99.0036 137.733 93.9986 138.015C91.4062 138.161 88.7809 137.846 86.2252 138.304C84.8979 138.542 80.7252 139.198 80.0982 140.564C79.4712 141.93 81.4439 144.969 81.6676 146.456Z" fill="#A86523"/>
<path opacity="0.05" d="M81.6676 146.456C82.4009 151.13 80.2926 155.726 78.2539 160.007C79.4089 160.85 80.8206 161.267 82.1992 161.63C91.4267 164.053 101.019 164.774 110.506 163.758C110.733 162.176 110.946 160.498 110.297 159.041C109.894 158.136 109.197 157.4 108.753 156.513C108.02 155.048 108.093 153.345 108.174 151.719L108.83 137.864C104.28 135.769 99.0036 137.733 93.9986 138.015C91.4062 138.161 88.7809 137.846 86.2252 138.304C84.8979 138.542 80.7252 139.198 80.0982 140.564C79.4712 141.93 81.4439 144.969 81.6676 146.456Z" fill="#2C1A0A"/>
<path d="M93.7237 159.868C88.792 158.843 83.9447 157.147 78.9104 157.03C78.6576 157.004 78.4028 157.053 78.1771 157.169C77.9314 157.372 77.7673 157.657 77.7151 157.971C77.1944 159.766 76.7287 161.574 76.3181 163.395C74.9541 169.449 74.2831 176.137 77.2824 181.572C77.2531 179.806 78.3641 178.155 79.8491 177.177C81.3341 176.199 83.1124 175.803 84.8724 175.642C86.6324 175.481 88.5134 175.547 90.1524 176.269C91.2978 176.788 92.286 177.6 93.0178 178.622C93.7496 179.645 94.1992 180.841 94.3214 182.092L111.646 182.652C111.748 182.682 111.855 182.686 111.958 182.663C112.062 182.641 112.158 182.593 112.238 182.525C112.318 182.456 112.379 182.368 112.417 182.27C112.455 182.171 112.467 182.065 112.453 181.96C113.092 176.409 113.068 170.801 112.383 165.256C112.193 163.706 112.167 161.557 110.422 160.974C108.339 160.278 105.046 161.091 102.821 160.996C99.7627 160.868 96.7203 160.491 93.7237 159.868Z" fill="#2C1A0A"/>
<path d="M109.45 132.737L109.395 140.428L91.8683 141.01C88.6527 141.12 85.4113 141.23 82.2763 141.944C81.3743 142.149 80.4833 142.406 79.596 142.659C78.672 139.278 77.7627 135.737 78.0047 132.29C78.0715 131.36 78.2337 130.44 78.4887 129.543C79.046 127.61 80.091 125.786 80.6483 123.874C80.8729 123.13 80.9963 122.358 81.015 121.581C80.9734 120.805 80.8505 120.036 80.6483 119.285C80.4875 118.669 80.4111 118.035 80.421 117.399L81.8107 116.97C81.851 117.135 81.884 117.296 81.9133 117.465C81.972 117.813 82.0197 118.168 82.0527 118.523C82.1312 119.403 82.1557 120.288 82.126 121.171C82.0783 122.936 81.84 124.903 82.9437 126.298C84.3773 128.089 87.1347 127.811 89.386 127.364L95.282 126.189C97.1447 125.822 99.2237 125.302 100.195 123.673C100.61 122.881 100.829 122.002 100.833 121.109V120.933C100.921 118.988 100.727 117.04 100.258 115.15C100.115 114.557 99.9387 113.971 99.7407 113.396H100.331C100.671 113.45 100.994 113.583 101.273 113.784C101.466 113.943 101.619 114.145 101.721 114.374L102.047 114.238C103.348 119.55 105.492 124.619 108.398 129.254C108.771 129.785 109.068 130.365 109.278 130.979C109.365 131.312 109.414 131.653 109.424 131.997C109.454 132.213 109.45 132.473 109.45 132.737Z" fill="#ECD332"/>
<path d="M90.9334 109.459C96.806 109.459 101.567 104.704 101.567 98.8377C101.567 92.9719 96.806 88.2167 90.9334 88.2167C85.0608 88.2167 80.3 92.9719 80.3 98.8377C80.3 104.704 85.0608 109.459 90.9334 109.459Z" fill="#A86523"/>
<path d="M72.0353 122.453C70.664 124.537 70.202 127.071 69.784 129.532L67.122 144.951C66.7553 147.061 66.429 149.379 67.5107 151.229C67.8773 151.855 68.3907 152.397 68.6583 153.06C68.8606 153.727 68.9933 154.413 69.0543 155.107C69.6777 158.641 73.1573 161.026 76.648 161.883C77.9093 162.194 79.3833 162.315 80.377 161.476C81.477 160.564 81.477 158.828 80.828 157.576C80.179 156.323 78.9947 155.437 77.847 154.598L74.0447 151.8L76.2447 134.953C76.3913 133.741 73.733 119.867 72.0353 122.453Z" fill="#A86523"/>
<path d="M115.383 122.848C115.962 125.394 116.259 128.001 116.985 130.507C117.267 131.492 117.619 132.455 117.861 133.437C118.121 134.603 118.306 135.785 118.415 136.974L119.445 146.079C119.564 146.642 119.519 147.226 119.317 147.764C119.037 148.232 118.623 148.607 118.129 148.841C115.159 150.508 111.669 150.999 108.354 150.214C107.59 149.986 106.814 149.805 106.029 149.672C104.775 149.515 103.499 149.767 102.234 149.672C99.6673 149.478 97.4123 147.881 95.634 146.028C94.5633 144.929 93.5916 143.127 94.589 141.948C94.8676 141.663 95.2136 141.454 95.595 141.339C95.9764 141.223 96.3808 141.206 96.7706 141.289C97.5471 141.463 98.296 141.743 98.9963 142.12C101.451 143.254 104.076 143.975 106.766 144.255C108.599 144.449 110.931 144.138 111.566 142.395C111.874 141.549 111.657 140.611 111.441 139.736L109.666 132.539C109.593 132.29 114.803 120.307 115.383 122.848Z" fill="#A86523"/>
<path d="M84.3516 102.108C83.8786 100.413 83.215 98.292 84.546 97.142C85.0243 96.7731 85.6006 96.5528 86.2033 96.5084C89.1916 96.1421 92.2826 97.9001 95.1426 96.9625C96.0549 96.6648 96.8614 96.1097 97.4647 95.3642C98.0681 94.6188 98.4426 93.7148 98.543 92.7615C98.6434 91.8082 98.4655 90.8462 98.0306 89.9916C97.5957 89.1371 96.9226 88.4265 96.0923 87.9457C94.842 87.2132 93.3496 87.0703 91.9086 86.9421C88.1136 86.5942 84.1573 86.2719 80.608 87.6746C77.0586 89.0773 74.0666 92.6885 74.8 96.4278C75.141 98.2114 76.2446 99.746 77.3666 101.167C78.2283 102.247 81.686 107.393 83.0756 107.32C85.0336 107.21 84.6596 103.211 84.3516 102.108Z" fill="#2C1A0A"/>
<path opacity="0.1" d="M96.0923 87.9457C95.8805 87.8234 95.6598 87.7168 95.4323 87.627C96.0761 88.2105 96.5553 88.9527 96.8218 89.7793C97.0883 90.6059 97.1329 91.4879 96.9509 92.3371C96.769 93.1862 96.3671 93.9728 95.7852 94.6181C95.2034 95.2633 94.4622 95.7447 93.6356 96.014C90.7756 96.9515 87.6846 95.1936 84.6963 95.5598C84.0936 95.6042 83.5173 95.8246 83.039 96.1934C81.708 97.3434 82.3716 99.464 82.8446 101.16C83.1526 102.258 83.5266 106.261 81.576 106.371H81.543C82.148 106.961 82.6943 107.345 83.083 107.323C85.0336 107.214 84.6596 103.214 84.3516 102.112C83.8786 100.416 83.215 98.2956 84.546 97.1456C85.0243 96.7768 85.6006 96.5565 86.2033 96.512C89.1916 96.1458 92.2826 97.9038 95.1426 96.9662C96.0549 96.6684 96.8614 96.1133 97.4647 95.3679C98.0681 94.6224 98.4426 93.7185 98.543 92.7652C98.6434 91.8118 98.4654 90.8498 98.0306 89.9953C97.5957 89.1407 96.9225 88.4302 96.0923 87.9493V87.9457Z" fill="#2C1A0A"/>
<path d="M252.267 220.064H132.733V257.054H252.267V220.064Z" fill="#2C1A0A"/>
<path d="M187.367 232.018V245.093L197.633 238.555L187.367 232.018Z" fill="white"/>
<path d="M95.7001 12.4998L90.0094 16.1037L93.4634 9.82993C92.4845 9.04947 91.2728 8.61768 90.0204 8.60302H89.9287C89.5333 8.60879 89.1382 8.57938 88.7481 8.51512L86.8194 9.73471L87.6481 8.23312C86.2798 7.75768 85.0984 6.85983 84.2747 5.66942L80.8207 7.86687L83.0024 3.9078C80.9821 1.48694 78.2614 0.00366211 75.2694 0.00366211C71.6797 0.00366211 68.4824 2.13519 66.4181 5.457C65.8076 6.45442 64.9426 7.27176 63.9117 7.82523C62.8808 8.37871 61.721 8.6484 60.5514 8.60668H60.3571C56.3934 8.60668 53.1814 13.0931 53.1814 18.6307C53.1814 24.1683 56.3934 28.6548 60.3571 28.6548C61.229 28.6507 62.087 28.4358 62.8577 28.0285C64.2061 27.373 65.6812 27.0184 67.1805 26.9893C68.6798 26.9602 70.1675 27.2573 71.5404 27.86C72.702 28.3791 73.9602 28.6473 75.2327 28.6473C76.5053 28.6473 77.7635 28.3791 78.9251 27.86C80.2882 27.2697 81.7626 26.9792 83.2481 27.0083C84.7336 27.0374 86.1954 27.3853 87.5344 28.0285C88.2972 28.4272 89.1448 28.637 90.0057 28.6401C93.9694 28.6401 97.1814 24.15 97.1814 18.6161C97.2086 16.4855 96.6992 14.3824 95.7001 12.4998Z" fill="#F2F2F2"/>
<path opacity="0.03" d="M84.9714 27.1678C82.9045 26.7763 80.7677 27.0083 78.8334 27.8344C77.6715 28.3523 76.4134 28.62 75.141 28.62C73.8687 28.62 72.6106 28.3523 71.4487 27.8344C70.0754 27.233 68.5876 26.9368 67.0884 26.9666C65.5892 26.9963 64.1144 27.3511 62.766 28.0065C61.9949 28.4123 61.137 28.6259 60.2654 28.6291C56.7454 28.6291 53.8157 25.0876 53.207 20.4143C53.9088 19.9005 54.5061 19.2579 54.967 18.5208C57.0314 15.1954 60.2287 13.0638 63.8184 13.0638C67.408 13.0638 70.565 15.1697 72.6184 18.4586C73.2363 19.4478 74.0991 20.261 75.1236 20.8198C76.1481 21.3786 77.2995 21.6641 78.4667 21.6485H78.5584C81.3634 21.6485 83.7907 23.8936 84.9714 27.1678Z" fill="#2C1A0A"/>
<path d="M290.4 94.1864L287.562 95.9846L289.285 92.8533C288.797 92.4649 288.193 92.2497 287.569 92.2417H287.522C287.325 92.2449 287.129 92.2314 286.935 92.2014L285.956 92.8167L286.37 92.0659C285.688 91.8296 285.099 91.3834 284.687 90.7913L282.964 91.8901L284.064 89.916C283.606 89.3257 283.022 88.8446 282.355 88.5076C281.688 88.1706 280.954 87.9862 280.207 87.9676C278.417 87.9676 276.822 89.0297 275.807 90.6888C275.501 91.1868 275.068 91.5948 274.553 91.8708C274.037 92.1469 273.458 92.2812 272.873 92.26H272.778C270.802 92.26 269.199 94.5014 269.199 97.2592C269.199 100.017 270.802 102.262 272.778 102.262C273.212 102.26 273.64 102.153 274.025 101.951C274.697 101.624 275.432 101.446 276.18 101.431C276.928 101.416 277.67 101.563 278.355 101.863C278.931 102.123 279.556 102.259 280.188 102.262C280.82 102.26 281.444 102.128 282.022 101.874C282.701 101.579 283.436 101.434 284.177 101.448C284.918 101.462 285.647 101.635 286.315 101.954C286.695 102.155 287.118 102.26 287.547 102.262C289.524 102.262 291.126 100.021 291.126 97.2592C291.147 96.1901 290.898 95.1331 290.4 94.1864Z" fill="#F2F2F2"/>
<path opacity="0.03" d="M285.036 101.504C284.003 101.306 282.936 101.422 281.97 101.837C281.393 102.094 280.769 102.227 280.137 102.227C279.505 102.227 278.881 102.094 278.304 101.837C277.618 101.538 276.877 101.391 276.129 101.405C275.382 101.42 274.646 101.596 273.973 101.921C273.589 102.126 273.161 102.234 272.727 102.236C270.97 102.236 269.511 100.467 269.207 98.1382C269.557 97.8823 269.854 97.5615 270.083 97.1933C271.113 95.5342 272.708 94.4721 274.483 94.4721C276.258 94.4721 277.849 95.5232 278.883 97.1603C279.191 97.6581 279.623 98.0674 280.138 98.348C280.652 98.6285 281.23 98.7708 281.816 98.7608H281.86C283.235 98.7498 284.449 99.8705 285.036 101.504Z" fill="#2C1A0A"/>
<path d="M296.681 47.4869L301.239 50.3766L298.467 45.3481C299.251 44.7243 300.221 44.379 301.224 44.3665H301.297C301.614 44.3712 301.931 44.348 302.243 44.2969L303.791 45.2748L303.127 44.0735C304.221 43.6902 305.166 42.9726 305.829 42.0226L308.598 43.7732L306.849 40.6016C308.466 38.6605 310.647 37.4739 313.045 37.4739C315.924 37.4739 318.483 39.1806 320.137 41.8431C320.626 42.6399 321.317 43.2931 322.141 43.7363C322.965 44.1795 323.891 44.397 324.826 44.3665H324.98C328.156 44.3665 330.73 47.963 330.73 52.3982C330.73 56.8334 328.163 60.4299 324.98 60.4299C324.282 60.4263 323.595 60.2541 322.978 59.9281C321.897 59.4014 320.713 59.1165 319.51 59.0931C318.307 59.0697 317.113 59.3084 316.012 59.7926C315.081 60.2079 314.074 60.4225 313.054 60.4225C312.035 60.4225 311.028 60.2079 310.097 59.7926C309.006 59.319 307.824 59.0856 306.634 59.1084C305.444 59.1311 304.273 59.4095 303.2 59.9245C302.587 60.2431 301.907 60.4114 301.217 60.4153C298.041 60.4153 295.467 56.8188 295.467 52.3836C295.456 50.6757 295.873 48.9921 296.681 47.4869Z" fill="#F2F2F2"/>
<path opacity="0.03" d="M305.272 59.2396C306.931 58.9239 308.647 59.1101 310.2 59.7743C311.13 60.1896 312.138 60.4042 313.157 60.4042C314.176 60.4042 315.184 60.1896 316.114 59.7743C317.216 59.2916 318.41 59.054 319.613 59.0781C320.816 59.1021 321.999 59.3872 323.081 59.9135C323.698 60.2383 324.385 60.4092 325.083 60.4116C327.903 60.4116 330.249 57.5732 330.741 53.8192C330.175 53.4097 329.695 52.8933 329.329 52.2993C327.675 49.6404 325.112 47.9301 322.238 47.9301C319.363 47.9301 316.829 49.6184 315.176 52.2517C314.682 53.0457 313.991 53.6989 313.17 54.1481C312.349 54.5972 311.426 54.8271 310.49 54.8154H310.416C308.165 54.8191 306.218 56.6173 305.272 59.2396Z" fill="#2C1A0A"/>
</g>
<defs>
<clipPath id="clip0_118_168">
<rect width="385" height="275" fill="white"/>
</clipPath>
</defs>
</svg>
