<svg width="202" height="200" viewBox="0 0 202 200" fill="none" xmlns="http://www.w3.org/2000/svg">
<path d="M164.987 199.752H24.6929V55.6149C24.6929 24.9487 49.6084 0 80.2338 0H109.446C140.071 0 164.987 24.9487 164.987 55.6149V199.752Z" fill="#E6D8C3"/>
<path d="M135.775 199.752H24.6931V55.6149C24.6624 43.8643 28.3784 32.4107 35.3 22.9216C35.5551 22.5734 35.8097 22.2297 36.072 21.8898C39.42 17.493 43.4041 13.6207 47.893 10.4009C48.1465 10.2161 48.4011 10.0345 48.6595 9.85297C52.4156 7.25018 56.4788 5.12245 60.7564 3.5182C61.0105 3.42188 61.2691 3.32531 61.5277 3.23251C65.3964 1.84984 69.4069 0.902647 73.4849 0.408436C73.7367 0.373891 73.9973 0.346914 74.2567 0.319682C78.2307 -0.105787 82.2386 -0.105787 86.2126 0.319682C86.4714 0.346662 86.7311 0.373893 86.9867 0.40869C91.0636 0.903049 95.0729 1.85024 98.9405 3.23277C99.1991 3.32531 99.458 3.42188 99.7126 3.51871C103.938 5.1026 107.953 7.19851 111.67 9.75967C111.928 9.93617 112.186 10.1187 112.441 10.3003C114.957 12.0987 117.32 14.1023 119.507 16.2906C121.26 18.0458 122.894 19.9167 124.398 21.8909C124.659 22.2297 124.914 22.5734 125.169 22.9211C132.09 32.4103 135.807 43.8641 135.776 55.6149L135.775 199.752Z" fill="#7C6B5B"/>
<path d="M126.742 99.6839C130.139 99.6839 132.892 96.9269 132.892 93.5259C132.892 90.1249 130.139 87.3679 126.742 87.3679C123.346 87.3679 120.592 90.1249 120.592 93.5259C120.592 96.9269 123.346 99.6839 126.742 99.6839Z" fill="#A86523"/>
<path d="M201.13 200H0.323828C0.14504 200 0 199.795 0 199.542C0 199.289 0.14504 199.083 0.323828 199.083H201.13C201.309 199.083 201.454 199.289 201.454 199.542C201.454 199.795 201.31 200 201.13 200Z" fill="#E6D8C3"/>
<path d="M105.218 157.993H55.25C54.5919 157.996 53.9593 157.739 53.4909 157.276C53.0225 156.813 52.7566 156.183 52.7515 155.524V43.8436C52.7566 43.1847 53.0225 42.5548 53.4908 42.0919C53.9591 41.629 54.5917 41.3711 55.2497 41.3745H105.218C105.876 41.3711 106.508 41.629 106.976 42.0919C107.445 42.5548 107.711 43.1847 107.716 43.8436V155.524C107.711 156.183 107.445 156.813 106.976 157.276C106.508 157.739 105.876 157.996 105.218 157.993Z" fill="#FAF6F0"/>
<path d="M107.716 77.5107H52.7515V78.2805H107.716V77.5107Z" fill="#7C6B5B"/>
<path d="M107.908 121.43H52.9438V122.2H107.908V121.43Z" fill="#7C6B5B"/>
<path d="M70.8171 41.3747H70.0483V158.378H70.8171V41.3747Z" fill="#7C6B5B"/>
<path d="M90.0351 41.3747H89.2664V158.378H90.0351V41.3747Z" fill="#7C6B5B"/>
<path d="M164.133 73.4008C164.133 73.8503 164.08 74.2983 163.976 74.7357L159.548 93.6081C159.398 94.2458 159.125 94.8478 158.742 95.3796C158.36 95.9113 157.877 96.3624 157.321 96.707C156.765 97.0516 156.146 97.283 155.5 97.3879C154.854 97.4927 154.194 97.4691 153.558 97.3182L135.808 91.8032L134.941 91.5351C134.378 91.9223 133.744 92.1932 133.076 92.3322C132.407 92.4712 131.718 92.4754 131.047 92.3445C128.471 91.8882 126.688 89.7888 127.064 87.6523C127.44 85.5158 129.834 84.157 132.41 84.6109C133.084 84.7174 133.731 84.9571 134.312 85.3161C134.893 85.6752 135.397 86.1463 135.794 86.7022L135.808 86.7047L135.853 86.7128L151.302 88.6264L152.601 72.9361C152.72 71.4472 153.411 70.0624 154.527 69.0718C155.643 68.0811 157.099 67.5613 158.59 67.6214C160.08 67.6814 161.49 68.3165 162.523 69.3938C163.557 70.471 164.134 71.9068 164.134 73.4005L164.133 73.4008Z" fill="#ED9DA0"/>
<path d="M164.133 73.4008C164.133 73.8503 164.08 74.2983 163.977 74.7357L160.343 94.4034C160.193 95.0411 159.92 95.6431 159.538 96.1749C159.156 96.7066 158.673 97.1577 158.116 97.5023C157.56 97.8469 156.941 98.0783 156.295 98.1832C155.65 98.2881 154.99 98.2644 154.353 98.1135L136.603 93.1714L137.398 85.475L150.915 87.3329L152.601 72.9351C152.721 71.4462 153.411 70.0614 154.528 69.0708C155.644 68.0801 157.1 67.5604 158.59 67.6204C160.081 67.6804 161.49 68.3156 162.524 69.3928C163.557 70.47 164.134 71.9058 164.134 73.3995L164.133 73.4008Z" fill="#A86523"/>
<path d="M187.186 177.041L182.899 180.206L186.06 184.498L190.347 181.334L187.186 177.041Z" fill="#ED9DA0"/>
<path d="M192.489 185.779L183.376 192.507C182.592 193.084 181.688 193.479 180.732 193.661L178.457 194.093C178.206 194.14 177.947 194.11 177.714 194.006C177.481 193.903 177.285 193.73 177.152 193.512C177.02 193.293 176.957 193.04 176.972 192.785C176.987 192.53 177.08 192.285 177.237 192.085L179.996 188.566L183.628 181.067L183.649 181.087C184.174 181.567 184.972 182.29 185.031 182.325C186.153 182.574 187.014 182.434 187.591 181.91C188.599 180.996 188.395 179.204 188.393 179.187L188.391 179.173L188.403 179.166C188.517 179.089 188.647 179.039 188.783 179.02C188.92 179.002 189.058 179.015 189.189 179.058C189.713 179.25 189.986 179.939 190.026 180.044C190.537 180.116 191.868 181.644 191.975 181.768C192.741 181.907 193.269 182.195 193.543 182.624C193.664 182.837 193.74 183.074 193.763 183.319C193.787 183.564 193.759 183.811 193.681 184.044C193.493 184.742 193.072 185.354 192.489 185.779Z" fill="#2C1A0A"/>
<path d="M150.42 189.567H145.094V194.901H150.42V189.567Z" fill="#ED9DA0"/>
<path d="M149.511 199.752H138.189C137.216 199.751 136.255 199.532 135.377 199.111L133.289 198.106C133.06 197.996 132.869 197.817 132.743 197.595C132.617 197.373 132.561 197.118 132.584 196.863C132.607 196.609 132.706 196.367 132.87 196.171C133.033 195.975 133.252 195.833 133.498 195.765L137.804 194.572L145.171 190.695L145.177 190.723C145.314 191.421 145.528 192.477 145.554 192.541C146.31 193.408 147.086 193.807 147.861 193.728C149.213 193.591 150.112 192.028 150.121 192.012L150.128 192L150.141 192.001C150.279 192.007 150.413 192.044 150.534 192.11C150.654 192.176 150.758 192.269 150.837 192.381C151.146 192.847 150.958 193.564 150.927 193.672C151.296 194.034 151.462 196.055 151.475 196.219C152.009 196.786 152.263 197.331 152.23 197.839C152.202 198.083 152.122 198.318 151.996 198.53C151.87 198.741 151.701 198.923 151.5 199.064C150.935 199.514 150.234 199.758 149.512 199.754L149.511 199.752Z" fill="#2C1A0A"/>
<path d="M172.153 106.194H146.626L142.556 190.994H151.546L157.355 152.448L180.662 183.285L189.172 175.576L172.153 152.448L172.153 106.194Z" fill="#2C1A0A"/>
<path d="M166.286 53.7188C166.285 51.9775 165.803 50.2705 164.892 48.7872C163.981 47.3038 162.678 46.1023 161.127 45.3159C159.575 44.5294 157.836 44.189 156.103 44.3323C154.37 44.4755 152.711 45.097 151.309 46.1275C149.908 47.1581 148.819 48.5575 148.163 50.1703C147.508 51.7831 147.312 53.5462 147.597 55.2639C147.881 56.9816 148.636 58.5867 149.777 59.9009C150.918 61.2151 152.4 62.187 154.059 62.7087L155.878 74.7445L165.149 67.0078C165.149 67.0078 163.146 64.4533 162.072 61.5725C163.368 60.7142 164.431 59.5475 165.167 58.1769C165.902 56.8064 166.286 55.2746 166.286 53.7188Z" fill="#ED9DA0"/>
<path d="M166.548 94.5691L170.717 106.871L147.128 106.606L150.646 95.3651L166.548 94.5691Z" fill="#ED9DA0"/>
<path d="M164.418 63.3441L153.957 66.9857L144.068 118.108L164.418 120.596H174.365L166.765 69.7583C166.425 67.483 165.626 65.3007 164.417 63.3441H164.418Z" fill="#A86523"/>
<path d="M161.485 123.412L161.667 115.009L156.767 114.902L156.585 123.305C156.097 123.783 155.708 124.353 155.442 124.983C155.176 125.612 155.037 126.289 155.035 126.972C154.978 129.592 156.687 131.753 158.852 131.8C161.017 131.847 162.818 129.762 162.875 127.143C162.902 126.46 162.793 125.778 162.554 125.137C162.316 124.496 161.952 123.91 161.485 123.411V123.412Z" fill="#ED9DA0"/>
<path d="M164.225 59.5024C164.714 59.5858 165.288 58.3987 165.836 57.2424C166.985 54.8217 167.715 53.2836 167.771 51.1081C167.818 49.2543 167.304 49.7409 166.803 45.6195C166.638 44.2602 164.319 44.2627 163.847 43.6172C163.05 42.5269 164.273 42.0773 162.289 41.4235C158.574 40.1968 156.894 42.1025 154.534 42.2667C154.474 42.2707 153.304 43.4165 152.651 43.4757C151.506 43.5796 149.856 43.4001 149.114 41.6547C148.422 40.0218 147.964 44.7935 148.582 45.3838C149.124 45.9538 149.611 46.5736 150.037 47.235C150.062 47.3387 148.946 43.9712 148.582 44.9682C148.321 45.6856 148.081 50.3249 148.747 50.4636C149.304 50.5796 153.933 52.3597 159.065 48.8498C159.247 48.7252 159.075 48.9239 159.71 50.4636C160.51 52.4051 160.692 52.5113 160.677 53.0463C160.647 54.2045 159.778 54.5456 160.032 55.3064C160.159 55.6211 160.385 55.8859 160.676 56.0607C160.967 56.2354 161.307 56.3106 161.644 56.2749C162.324 56.1342 162.441 55.2915 162.934 55.3064C163.356 55.3192 163.856 55.9556 163.901 56.5979C163.995 57.9509 161.994 58.3231 161.644 60.1494C161.446 61.1802 163.774 59.427 164.223 59.5036L164.225 59.5024Z" fill="#2C1A0A"/>
</svg>
