<svg width="318" height="275" viewBox="0 0 318 275" fill="none" xmlns="http://www.w3.org/2000/svg">
<g clip-path="url(#clip0_215_2453)">
<path d="M0 274.405C0 274.692 0.23035 274.922 0.5172 274.922H317.483C317.77 274.922 318 274.692 318 274.405C318 274.119 317.77 273.888 317.483 273.888H0.5172C0.23035 273.888 0 274.119 0 274.405Z" fill="#3B2F2F"/>
<path d="M192.768 61.073L194.506 71.0601L175.817 74.0996L180.164 60.2046L192.768 61.073Z" fill="#A0616A"/>
<path d="M240.433 67.6775C244.197 69.3623 245.101 75.5238 242.445 81.4336C241.419 83.8087 239.833 85.906 237.829 87.5474L234.035 97.6647C231.545 109.727 225.882 122.428 218.076 121.443C207.032 120.049 203.551 106.64 203.551 106.64L218.415 100.83L225.052 88.0511L227.312 82.8361C227.203 80.2482 227.716 77.6732 228.811 75.3284C231.462 69.4144 236.665 65.9927 240.433 67.6775Z" fill="#A0616A"/>
<path d="M113.919 261.761L103.614 254.149L103.697 253.984L161.115 139.684L161.223 139.667L207.459 131.825L217.09 153.253L242.272 188.629C244.006 191.065 244.914 193.935 244.893 196.927L244.484 259.941L228.859 260.388L228.838 260.189L223.387 209.242C222.992 205.529 221.062 202.094 218.098 199.819L187.362 176.228L113.915 261.765L113.919 261.761Z" fill="#2C1A0A"/>
<path d="M105.191 254.952C105.191 254.952 99.9759 255.821 98.2374 258.86C96.4989 261.9 91.2834 268.413 91.2834 268.413C91.2834 268.413 87.3718 275.795 96.4989 274.926C105.626 274.058 109.103 270.15 109.103 270.15L113.015 259.294L105.191 254.952Z" fill="#2C1A0A"/>
<path d="M236.882 254.952C236.882 254.952 242.097 255.821 243.836 258.86C245.574 261.9 250.79 268.413 250.79 268.413C250.79 268.413 254.701 275.795 245.574 274.926C236.447 274.058 232.97 270.15 232.97 270.15L229.059 259.294L236.882 254.952Z" fill="#2C1A0A"/>
<path d="M167.125 73.6653L197.983 67.5862L215.368 73.231L210.587 137.93L161.258 139.884L167.125 73.6653Z" fill="#A86523"/>
<path d="M212.273 71.7852L218.993 81.9285L220.553 106.935L200.591 108.451L201.13 76.0492L212.273 71.7852Z" fill="#A86523"/>
<path d="M230.745 96.1232L222.67 92.9187L212.399 111.924L221.779 116.597L230.745 96.1232Z" fill="#A0616A"/>
<path d="M236.378 79.9486C235.817 79.9486 235.257 79.8531 234.718 79.662C233.423 79.2018 232.375 78.2117 231.836 76.9482L225.708 62.5668C223.4 57.1477 220.749 51.8112 217.828 46.7004L216.551 44.4598C215.668 43.1051 194.819 11.051 193.829 8.54553C193.081 6.65667 195.315 2.78777 195.411 2.62277L195.437 2.58803C195.484 2.53158 200.487 -2.91353 206.506 2.14513C212.417 7.10826 222.362 40.0047 222.783 41.4029L223.053 42.0803C225.504 48.2723 228.607 54.2341 232.271 59.7965L240.507 72.302C241.272 73.4657 241.511 74.9073 241.163 76.2534C240.816 77.5995 239.907 78.7415 238.669 79.3885C237.956 79.7619 237.169 79.9486 236.378 79.9486Z" fill="#3B2F2F"/>
<path d="M181.425 84.5252L191.13 85.068L209.771 65.4195L217.055 56.7699C217.694 54.2601 218.924 51.9413 220.641 50.0047C224.878 45.098 230.841 43.3047 233.966 45.9969C237.091 48.689 236.192 54.8463 231.954 59.753C230.289 61.7373 228.168 63.2918 225.778 64.2906L223.983 66.657L203.408 95.55C199.696 100.765 193.134 103.123 186.945 101.464L174.354 98.0902L181.425 84.5208V84.5252Z" fill="#A0616A"/>
<path d="M175.978 103.887L161.005 94.2777C156.246 91.2252 154.417 85.2416 156.655 80.0527C158.015 76.9003 160.684 74.5381 163.978 73.5741C167.268 72.6058 170.798 73.1486 173.649 75.0679L188.352 84.955L175.978 103.887Z" fill="#A86523"/>
<path d="M183.215 64.7465C191.688 64.7465 198.557 57.8839 198.557 49.4185C198.557 40.9531 191.688 34.0906 183.215 34.0906C174.742 34.0906 167.873 40.9531 167.873 49.4185C167.873 57.8839 174.742 64.7465 183.215 64.7465Z" fill="#A0616A"/>
<path d="M193.307 62.6493L191.982 60.4434C191.982 60.4434 197.784 56.5354 192.99 54.2688C188.196 52.0022 187.44 46.4572 187.44 46.4572C187.44 46.4572 173.436 42.4276 174.193 39.4011C174.949 36.3746 172.806 34.2339 176.335 32.9747C179.869 31.7155 195.633 32.9747 197.401 36.6265C199.166 40.2826 200.935 50.3608 200.053 51.7503C199.17 53.1398 193.307 62.6536 193.307 62.6536V62.6493Z" fill="#2C1A0A"/>
<path d="M189.33 45.3197L175.075 35.8711C175.075 35.8711 156.66 30.2045 163.596 41.0383L169.464 42.2367C169.464 42.2367 185.419 45.9537 189.33 45.3197Z" fill="#A86523"/>
<path d="M185.04 43.1789L199.926 54.3948C199.926 54.3948 208.627 38.8931 195.002 31.2074C181.376 23.5218 172.74 35.5583 172.74 35.5583L176.335 39.4012L185.04 43.1789Z" fill="#A86523"/>
<path d="M78.084 17.8682C78.084 22.5491 81.8826 26.3486 86.5722 26.3486C88.867 26.3486 90.9488 25.4367 92.4743 23.956C94.0694 22.4145 95.056 20.2565 95.056 17.8682C95.056 13.1874 91.2574 9.38794 86.5722 9.38794C85.1031 9.38794 83.7254 9.76137 82.5215 10.4127C82.3172 10.5256 82.1173 10.6472 81.9217 10.7774C80.0876 11.9759 78.7533 13.8647 78.2796 16.0749C78.2187 16.3268 78.1753 16.583 78.1492 16.8435C78.1057 17.1778 78.084 17.5209 78.084 17.8682Z" fill="#A86523"/>
<path d="M78.1494 16.8434C78.2841 16.991 78.4232 17.1517 78.5753 17.3341C79.0882 17.9507 79.2925 18.285 79.5793 18.7496C79.8271 19.1534 80.14 19.6571 80.7528 20.5082C82.0176 22.2625 82.6521 23.1439 83.6387 23.9429C84.6122 24.7288 85.8248 25.7102 87.6459 25.8361C87.772 25.8448 87.898 25.8448 88.0197 25.8448C90.2232 25.8448 91.8313 24.5204 92.4441 23.9255C94.0479 22.3623 94.3826 20.4648 94.4521 19.7223C94.5086 19.123 94.5868 17.0214 93.2091 15.1326C91.9921 13.4652 90.3101 12.8703 88.6803 12.2884C87.6155 11.9107 86.8071 11.776 86.09 11.6545C85.1077 11.4895 84.2646 11.3462 82.9737 10.6688C82.7955 10.5733 82.6478 10.4908 82.5217 10.4126C82.3174 10.5255 82.1175 10.6471 81.9219 10.7773C81.9524 10.7947 81.9871 10.8164 82.0219 10.8381C82.1914 10.938 82.4 11.0596 82.6869 11.2116C84.0646 11.9367 84.9991 12.0974 85.9857 12.2624C86.7115 12.384 87.4634 12.5099 88.476 12.8703C90.0841 13.4435 91.6053 13.9819 92.7093 15.4973C93.961 17.2125 93.8871 19.1187 93.8393 19.6615C93.7741 20.3389 93.4699 22.0627 92.0139 23.4826C91.4271 24.0514 89.8364 25.3671 87.6894 25.2195C86.0595 25.1066 84.9339 24.1947 84.0255 23.4652C83.1041 22.7184 82.4869 21.8586 81.257 20.1521C80.6528 19.3141 80.3486 18.8191 80.1052 18.424C79.8184 17.9593 79.5924 17.5902 79.0534 16.9433C78.7622 16.5915 78.5058 16.3093 78.2798 16.0748C78.219 16.3267 78.1755 16.5829 78.1494 16.8434Z" fill="#FAF6F0"/>
</g>
<defs>
<clipPath id="clip0_215_2453">
<rect width="318" height="275" fill="white"/>
</clipPath>
</defs>
</svg>
