<svg width="379" height="204" viewBox="0 0 379 204" fill="none" xmlns="http://www.w3.org/2000/svg">
<g clip-path="url(#clip0_215_2575)">
<path d="M70.683 132.179C109.72 132.179 141.366 126.642 141.366 119.811C141.366 112.98 109.72 107.443 70.683 107.443C31.6459 107.443 0 112.98 0 119.811C0 126.642 31.6459 132.179 70.683 132.179Z" fill="#2C1A0A"/>
<path d="M288.084 203.946C338.296 203.946 379 198.408 379 191.577C379 184.747 338.296 179.209 288.084 179.209C237.873 179.209 197.169 184.747 197.169 191.577C197.169 198.408 237.873 203.946 288.084 203.946Z" fill="#2C1A0A"/>
<path d="M183.923 183.232C178.46 183.302 173.01 182.696 167.696 181.428L168.173 179.561C197.4 187.03 251.731 169.856 257.61 151.291L259.448 151.872C254.339 168.005 214.348 183.232 183.923 183.232Z" fill="#3B2F2F"/>
<path d="M157.416 144.484C150.568 142.734 147.03 140.71 145.942 137.923C144.589 134.457 147.127 130.551 150.641 125.145C156.002 116.897 163.343 105.602 162.153 88.36C161.482 78.6159 157.994 71.4471 151.788 67.0516C139.16 58.1082 119.238 63.4668 119.038 63.5217L118.524 61.6641C119.377 61.4273 139.512 56.0033 152.895 65.4736C159.6 70.2191 163.362 77.8745 164.076 88.2268C165.308 106.111 157.454 118.197 152.256 126.195C149.056 131.119 146.743 134.675 147.737 137.221C148.565 139.342 151.792 141.058 157.892 142.615L157.416 144.484Z" fill="#3B2F2F"/>
<path d="M276.737 159.943L266.951 176.49C266.951 176.49 254.492 183.109 263.253 183.303C272.014 183.498 313.281 183.303 313.281 183.303C313.281 183.303 321.262 183.303 308.609 176.295L299.423 158.54L276.737 159.943Z" fill="#E6D8C3"/>
<path d="M361.48 47.7156H213.693C208.971 47.7156 205.144 51.5432 205.144 56.2649V154.022C205.144 158.743 208.971 162.571 213.693 162.571H361.48C366.202 162.571 370.029 158.743 370.029 154.022V56.2649C370.029 51.5432 366.202 47.7156 361.48 47.7156Z" fill="#E6D8C3"/>
<path d="M211.976 53.8474H363.197C363.538 53.8474 363.865 53.9828 364.106 54.2237C364.347 54.4647 364.482 54.7915 364.482 55.1322V145.42C364.482 145.761 364.347 146.088 364.106 146.329C363.865 146.57 363.538 146.705 363.197 146.705H211.976C211.635 146.705 211.309 146.57 211.068 146.329C210.827 146.088 210.691 145.761 210.691 145.42V55.1322C210.691 54.7915 210.827 54.4647 211.068 54.2237C211.309 53.9828 211.635 53.8474 211.976 53.8474Z" fill="#A86523"/>
<path d="M287.587 52.096C288.125 52.096 288.56 51.6602 288.56 51.1225C288.56 50.5848 288.125 50.1489 287.587 50.1489C287.049 50.1489 286.613 50.5848 286.613 51.1225C286.613 51.6602 287.049 52.096 287.587 52.096Z" fill="#FAF6F0"/>
<path d="M370.029 146.705V156.773C370.029 157.535 369.88 158.289 369.588 158.992C369.297 159.696 368.87 160.335 368.331 160.873C367.793 161.412 367.154 161.839 366.45 162.13C365.747 162.421 364.993 162.571 364.231 162.571H210.941C210.179 162.571 209.425 162.421 208.722 162.129C208.019 161.838 207.379 161.411 206.841 160.873C206.303 160.334 205.876 159.695 205.584 158.991C205.293 158.288 205.143 157.534 205.144 156.773V146.705H370.029Z" fill="#E6D8C3"/>
<path d="M330.609 193.815V195.762H225.876V194.204L226.018 193.815L228.6 186.807H328.466L330.609 193.815Z" fill="#FAF6F0"/>
<path d="M370.913 191.909C370.723 192.725 370.002 193.586 368.374 194.399C362.534 197.32 350.659 193.621 350.659 193.621C350.659 193.621 341.51 192.063 341.51 187.975C341.767 187.799 342.035 187.64 342.312 187.498C344.767 186.199 352.908 182.993 367.343 187.633C368.407 187.968 369.357 188.591 370.087 189.434C370.672 190.117 371.131 190.986 370.913 191.909Z" fill="#FAF6F0"/>
<path d="M370.913 191.909C363.765 194.649 357.393 194.853 350.855 190.311C347.557 188.022 344.561 187.455 342.312 187.498C344.768 186.199 352.909 182.993 367.344 187.633C368.408 187.968 369.358 188.591 370.088 189.434C370.673 190.117 371.131 190.986 370.913 191.909Z" fill="#E6D8C3"/>
<path opacity="0.1" d="M330.609 193.815V195.762H225.876V194.204L226.018 193.815L330.609 193.815Z" fill="#2C1A0A"/>
<path d="M115.645 38.017H20.0264C19.2629 38.0161 18.5309 37.7124 17.991 37.1725C17.4511 36.6326 17.1474 35.9006 17.1465 35.1371V2.87993C17.1474 2.1164 17.4511 1.38438 17.991 0.844474C18.5309 0.304574 19.2629 0.000877699 20.0264 0H115.645C116.408 0.000877699 117.14 0.304574 117.68 0.844474C118.22 1.38438 118.524 2.1164 118.525 2.87993V35.1366C118.524 35.9002 118.22 36.6324 117.68 37.1724C117.14 37.7124 116.408 38.0161 115.645 38.017Z" fill="#A86523"/>
<path d="M57.4677 8.64014H32.123V11.5201H57.4677V8.64014Z" fill="#FAF6F0"/>
<path d="M90.8757 12.0966C91.8302 12.0966 92.6039 11.3229 92.6039 10.3684C92.6039 9.4139 91.8302 8.64014 90.8757 8.64014C89.9212 8.64014 89.1475 9.4139 89.1475 10.3684C89.1475 11.3229 89.9212 12.0966 90.8757 12.0966Z" fill="#FAF6F0"/>
<path d="M96.6364 12.0966C97.5909 12.0966 98.3647 11.3229 98.3647 10.3684C98.3647 9.4139 97.5909 8.64014 96.6364 8.64014C95.682 8.64014 94.9082 9.4139 94.9082 10.3684C94.9082 11.3229 95.682 12.0966 96.6364 12.0966Z" fill="#FAF6F0"/>
<path d="M102.396 12.0966C103.351 12.0966 104.124 11.3229 104.124 10.3684C104.124 9.4139 103.351 8.64014 102.396 8.64014C101.442 8.64014 100.668 9.4139 100.668 10.3684C100.668 11.3229 101.442 12.0966 102.396 12.0966Z" fill="#FAF6F0"/>
<path d="M115.645 78.914H20.0264C19.2629 78.913 18.531 78.6092 17.9911 78.0694C17.4512 77.5295 17.1475 76.7975 17.1465 76.034V43.7769C17.1474 43.0134 17.4511 42.2813 17.991 41.7414C18.5309 41.2015 19.2629 40.8979 20.0264 40.897H115.645C116.408 40.8979 117.14 41.2015 117.68 41.7414C118.22 42.2813 118.524 43.0134 118.525 43.7769V76.0336C118.524 76.7972 118.22 77.5293 117.68 78.0693C117.14 78.6093 116.408 78.9131 115.645 78.914Z" fill="#E6D8C3"/>
<path d="M57.4677 49.5371H32.123V52.417H57.4677V49.5371Z" fill="#A86523"/>
<path d="M90.8757 52.9936C91.8302 52.9936 92.6039 52.2198 92.6039 51.2653C92.6039 50.3109 91.8302 49.5371 90.8757 49.5371C89.9212 49.5371 89.1475 50.3109 89.1475 51.2653C89.1475 52.2198 89.9212 52.9936 90.8757 52.9936Z" fill="#A86523"/>
<path d="M96.6364 52.9936C97.5909 52.9936 98.3647 52.2198 98.3647 51.2653C98.3647 50.3109 97.5909 49.5371 96.6364 49.5371C95.682 49.5371 94.9082 50.3109 94.9082 51.2653C94.9082 52.2198 95.682 52.9936 96.6364 52.9936Z" fill="#A86523"/>
<path d="M102.396 52.9936C103.351 52.9936 104.124 52.2198 104.124 51.2653C104.124 50.3109 103.351 49.5371 102.396 49.5371C101.442 49.5371 100.668 50.3109 100.668 51.2653C100.668 52.2198 101.442 52.9936 102.396 52.9936Z" fill="#A86523"/>
<path d="M115.645 119.811H20.0264C19.2629 119.81 18.531 119.506 17.9911 118.966C17.4512 118.426 17.1475 117.695 17.1465 116.931V84.6739C17.1474 83.9104 17.4511 83.1783 17.991 82.6384C18.5309 82.0985 19.2629 81.7948 20.0264 81.7939H115.645C116.408 81.7948 117.14 82.0985 117.68 82.6384C118.22 83.1783 118.524 83.9104 118.525 84.6739V116.931C118.524 117.695 118.22 118.427 117.68 118.966C117.14 119.506 116.408 119.81 115.645 119.811Z" fill="#E6D8C3"/>
<path d="M57.4677 90.4346H32.123V93.3145H57.4677V90.4346Z" fill="#A86523"/>
<path d="M90.8757 93.8911C91.8302 93.8911 92.6039 93.1173 92.6039 92.1628C92.6039 91.2083 91.8302 90.4346 90.8757 90.4346C89.9212 90.4346 89.1475 91.2083 89.1475 92.1628C89.1475 93.1173 89.9212 93.8911 90.8757 93.8911Z" fill="#A86523"/>
<path d="M96.6364 93.8911C97.5909 93.8911 98.3647 93.1173 98.3647 92.1628C98.3647 91.2083 97.5909 90.4346 96.6364 90.4346C95.682 90.4346 94.9082 91.2083 94.9082 92.1628C94.9082 93.1173 95.682 93.8911 96.6364 93.8911Z" fill="#A86523"/>
<path d="M102.396 93.8911C103.351 93.8911 104.124 93.1173 104.124 92.1628C104.124 91.2083 103.351 90.4346 102.396 90.4346C101.442 90.4346 100.668 91.2083 100.668 92.1628C100.668 93.1173 101.442 93.8911 102.396 93.8911Z" fill="#A86523"/>
<path d="M288.56 82.7178C290.866 82.7177 293.149 83.1718 295.279 84.0542C297.41 84.9365 299.345 86.2298 300.976 87.8603C302.606 89.4907 303.9 91.4263 304.782 93.5566C305.665 95.6869 306.119 97.9701 306.119 100.276C306.162 102.585 305.75 104.88 304.905 107.03C304.061 109.18 302.8 111.142 301.196 112.804C299.591 114.465 297.675 115.794 295.556 116.714C293.438 117.634 291.158 118.126 288.849 118.164C286.539 118.201 284.245 117.782 282.098 116.932C279.951 116.081 277.992 114.815 276.335 113.206C274.678 111.597 273.354 109.677 272.44 107.556C271.526 105.435 271.04 103.154 271.009 100.844L271.002 100.276L271.009 99.7841C271.137 95.2144 273.042 90.8747 276.32 87.6877C279.597 84.5007 283.989 82.7177 288.56 82.7178ZM288.578 105.544L288.355 105.556C287.928 105.606 287.534 105.812 287.248 106.133C286.963 106.454 286.805 106.869 286.805 107.299C286.805 107.73 286.963 108.145 287.248 108.466C287.534 108.787 287.928 108.993 288.355 109.043L288.561 109.055L288.784 109.043C289.211 108.993 289.605 108.787 289.89 108.466C290.176 108.145 290.334 107.73 290.334 107.299C290.334 106.869 290.176 106.454 289.89 106.133C289.605 105.812 289.211 105.606 288.784 105.556L288.578 105.544ZM288.561 90.212C288.131 90.2121 287.716 90.3699 287.394 90.6557C287.073 90.9414 286.868 91.3351 286.817 91.7621L286.805 91.9677V101.561L286.817 101.767C286.868 102.194 287.073 102.588 287.394 102.873C287.716 103.159 288.131 103.317 288.561 103.317C288.991 103.317 289.406 103.159 289.727 102.873C290.049 102.588 290.254 102.194 290.304 101.767L290.317 101.561V91.9677L290.304 91.7621C290.254 91.3349 290.049 90.9411 289.727 90.6553C289.405 90.3696 288.991 90.2119 288.561 90.212Z" fill="#FAF6F0"/>
</g>
<defs>
<clipPath id="clip0_215_2575">
<rect width="379" height="203.946" fill="white"/>
</clipPath>
</defs>
</svg>
