<svg width="286" height="275" viewBox="0 0 286 275" fill="none" xmlns="http://www.w3.org/2000/svg">
<g clip-path="url(#clip0_171_947)">
<path d="M43.3412 97.4531C43.3412 97.4531 47.818 112.25 46.4751 114.044C45.1322 115.839 60.8006 104.18 60.8006 104.18C60.8006 104.18 54.9809 100.144 57.2179 94.3154L43.3412 97.4531Z" fill="#9F616A"/>
<path d="M240.696 65.166H239.194V23.8895C239.194 17.5536 236.681 11.4772 232.208 6.99708C227.735 2.51693 221.668 3.1162e-09 215.343 3.1162e-09H128.031C124.898 -5.06672e-05 121.797 0.617834 118.903 1.81837C116.009 3.01891 113.38 4.77859 111.165 6.99695C108.95 9.2153 107.193 11.8489 105.994 14.7473C104.796 17.6458 104.179 20.7523 104.179 23.8895V250.335C104.179 256.671 106.692 262.747 111.165 267.227C115.638 271.708 121.704 274.224 128.03 274.224H215.341C221.667 274.224 227.733 271.707 232.206 267.227C236.679 262.747 239.192 256.671 239.192 250.335V94.5472H240.694L240.696 65.166Z" fill="#2C1A0A"/>
<path d="M234.302 22.2896V251.934C234.301 256.738 232.396 261.344 229.006 264.741C225.615 268.139 221.017 270.048 216.221 270.051H127.115C122.316 270.051 117.714 268.143 114.321 264.745C110.927 261.347 109.02 256.738 109.02 251.932V22.29C109.021 17.4845 110.928 12.8763 114.321 9.47905C117.715 6.08178 122.316 4.1736 127.114 4.17421H137.923C137.392 5.48145 137.19 6.89925 137.335 8.30299C137.479 9.70674 137.966 11.0534 138.751 12.2247C139.537 13.3961 140.598 14.3561 141.841 15.0205C143.084 15.6849 144.471 16.0333 145.88 16.0351H196.679C198.088 16.0333 199.475 15.6849 200.718 15.0205C201.961 14.3561 203.023 13.396 203.808 12.2246C204.594 11.0533 205.081 9.70651 205.225 8.30272C205.37 6.89892 205.168 5.48108 204.637 4.17383H216.215C221.01 4.17444 225.609 6.08236 229.001 9.47817C232.393 12.874 234.299 17.4798 234.302 22.283V22.2896Z" fill="white"/>
<path d="M171.644 114.478C192.189 114.478 208.844 97.7961 208.844 77.2185C208.844 56.6409 192.189 39.9595 171.644 39.9595C151.099 39.9595 134.445 56.6409 134.445 77.2185C134.445 97.7961 151.099 114.478 171.644 114.478Z" fill="#A86523"/>
<path d="M212.215 154.568H133.036C132.648 154.567 132.275 154.412 132 154.137C131.725 153.862 131.57 153.488 131.57 153.099V133.428C131.571 133.038 131.725 132.665 132 132.39C132.275 132.114 132.648 131.959 133.036 131.959H212.215C212.604 131.959 212.976 132.114 213.251 132.39C213.526 132.665 213.681 133.038 213.681 133.428V153.098C213.681 153.487 213.526 153.86 213.251 154.136C212.976 154.411 212.604 154.566 212.215 154.566V154.568ZM133.036 132.546C132.803 132.546 132.579 132.639 132.414 132.804C132.249 132.969 132.157 133.193 132.156 133.427V153.098C132.157 153.332 132.249 153.556 132.414 153.721C132.579 153.886 132.803 153.979 133.036 153.979H212.215C212.448 153.979 212.672 153.886 212.837 153.721C213.002 153.556 213.095 153.332 213.095 153.098V133.427C213.095 133.193 213.002 132.969 212.837 132.804C212.672 132.639 212.448 132.546 212.215 132.546H133.036Z" fill="#7C6B5B"/>
<path d="M157.523 139.043C157.255 139.048 156.998 139.159 156.81 139.351C156.622 139.543 156.517 139.802 156.517 140.071C156.517 140.34 156.622 140.599 156.81 140.791C156.998 140.983 157.255 141.094 157.523 141.099H205.908C206.178 141.107 206.441 141.007 206.638 140.822C206.836 140.637 206.952 140.381 206.963 140.11C206.973 139.839 206.876 139.575 206.693 139.376C206.51 139.176 206.255 139.057 205.985 139.044H205.94H157.523V139.043Z" fill="#7C6B5B"/>
<path d="M157.523 145.21C157.251 145.21 156.99 145.319 156.797 145.512C156.605 145.704 156.497 145.966 156.497 146.239C156.497 146.511 156.605 146.773 156.797 146.965C156.99 147.158 157.251 147.267 157.523 147.267H205.908C206.178 147.274 206.441 147.174 206.638 146.989C206.836 146.804 206.952 146.548 206.963 146.277C206.973 146.007 206.876 145.743 206.693 145.543C206.51 145.343 206.255 145.224 205.985 145.212H205.94H157.523V145.21Z" fill="#7C6B5B"/>
<path d="M212.215 187.357H133.036C132.648 187.356 132.275 187.201 132 186.926C131.725 186.651 131.57 186.277 131.57 185.888V166.217C131.571 165.827 131.725 165.454 132 165.179C132.275 164.903 132.648 164.749 133.036 164.748H212.215C212.604 164.749 212.976 164.903 213.251 165.179C213.526 165.454 213.681 165.827 213.681 166.217V185.889C213.68 186.278 213.525 186.65 213.25 186.925C212.976 187.2 212.603 187.355 212.215 187.355V187.357ZM133.036 165.335C132.803 165.336 132.579 165.428 132.414 165.594C132.249 165.759 132.157 165.983 132.156 166.217V185.889C132.157 186.123 132.249 186.347 132.414 186.512C132.579 186.677 132.803 186.77 133.036 186.77H212.215C212.448 186.77 212.672 186.677 212.837 186.512C213.002 186.347 213.095 186.123 213.095 185.889V166.217C213.095 165.983 213.002 165.759 212.837 165.594C212.672 165.428 212.448 165.336 212.215 165.335H133.036Z" fill="#7C6B5B"/>
<path d="M157.523 171.938C157.251 171.938 156.99 172.047 156.797 172.24C156.605 172.432 156.497 172.694 156.497 172.967C156.497 173.239 156.605 173.501 156.797 173.694C156.99 173.886 157.251 173.995 157.523 173.995H205.908C206.044 173.998 206.179 173.975 206.305 173.926C206.432 173.877 206.548 173.803 206.646 173.709C206.744 173.615 206.822 173.503 206.876 173.378C206.931 173.254 206.96 173.119 206.962 172.984C206.964 172.848 206.939 172.713 206.889 172.586C206.839 172.46 206.764 172.345 206.669 172.248C206.574 172.151 206.461 172.073 206.336 172.02C206.211 171.967 206.077 171.939 205.941 171.938H157.523Z" fill="#7C6B5B"/>
<path d="M157.523 178.107C157.251 178.107 156.99 178.216 156.797 178.409C156.605 178.601 156.497 178.863 156.497 179.135C156.497 179.408 156.605 179.67 156.797 179.862C156.99 180.055 157.251 180.164 157.523 180.164H205.908C206.044 180.167 206.179 180.144 206.305 180.095C206.432 180.046 206.548 179.972 206.646 179.878C206.744 179.784 206.822 179.672 206.876 179.547C206.931 179.423 206.96 179.288 206.962 179.152C206.964 179.017 206.939 178.882 206.889 178.755C206.839 178.629 206.764 178.514 206.669 178.417C206.574 178.32 206.461 178.242 206.336 178.189C206.211 178.136 206.077 178.108 205.941 178.107H157.523Z" fill="#7C6B5B"/>
<path d="M212.215 220.253H133.036C132.648 220.253 132.275 220.098 132 219.822C131.725 219.547 131.57 219.174 131.57 218.785V199.113C131.571 198.724 131.725 198.351 132 198.075C132.275 197.8 132.648 197.645 133.036 197.645H212.215C212.604 197.645 212.976 197.8 213.251 198.075C213.526 198.351 213.681 198.724 213.681 199.113V218.785C213.681 219.175 213.526 219.548 213.251 219.823C212.976 220.098 212.604 220.253 212.215 220.254V220.253ZM133.036 198.232C132.803 198.232 132.579 198.325 132.414 198.49C132.249 198.655 132.157 198.879 132.156 199.113V218.785C132.157 219.019 132.249 219.243 132.414 219.408C132.579 219.573 132.803 219.666 133.036 219.667H212.215C212.448 219.666 212.672 219.573 212.837 219.408C213.002 219.243 213.095 219.019 213.095 218.785V199.113C213.095 198.879 213.002 198.655 212.837 198.49C212.672 198.325 212.448 198.232 212.215 198.232H133.036Z" fill="#7C6B5B"/>
<path d="M157.523 204.836C157.251 204.836 156.99 204.944 156.797 205.137C156.605 205.33 156.497 205.591 156.497 205.864C156.497 206.137 156.605 206.398 156.797 206.591C156.99 206.784 157.251 206.892 157.523 206.892H205.908C206.178 206.9 206.441 206.8 206.638 206.615C206.836 206.429 206.952 206.174 206.963 205.903C206.973 205.632 206.876 205.368 206.693 205.169C206.51 204.969 206.255 204.85 205.985 204.837H205.94H157.523V204.836Z" fill="#7C6B5B"/>
<path d="M157.523 211.005C157.251 211.005 156.99 211.113 156.797 211.306C156.605 211.499 156.497 211.76 156.497 212.033C156.497 212.306 156.605 212.567 156.797 212.76C156.99 212.953 157.251 213.061 157.523 213.061H205.908C206.178 213.069 206.441 212.969 206.638 212.784C206.836 212.598 206.952 212.343 206.963 212.072C206.973 211.801 206.876 211.537 206.693 211.338C206.51 211.138 206.255 211.019 205.985 211.006H205.94H157.523V211.005Z" fill="#7C6B5B"/>
<path d="M285.253 274.942H0.746574C0.333994 274.942 0 274.762 0 274.539C0 274.316 0.334379 274.136 0.746574 274.136H285.254C285.666 274.136 286 274.316 286 274.539C286 274.762 285.666 274.942 285.253 274.942Z" fill="#7C6B5B"/>
<path d="M273.204 259.213C271.989 259.641 270.684 259.748 269.415 259.525C268.146 259.301 266.956 258.753 265.96 257.935C263.422 255.802 262.627 252.288 261.98 249.034L260.065 239.409L264.073 242.173C266.956 244.161 269.903 246.213 271.9 249.093C273.896 251.972 274.767 255.903 273.163 259.019" fill="#7C6B5B"/>
<path d="M272.585 271.536C273.09 267.854 273.609 264.126 273.255 260.405C272.94 257.1 271.934 253.873 269.884 251.226C268.797 249.824 267.473 248.623 265.973 247.676C265.582 247.429 265.222 248.05 265.611 248.296C268.207 249.939 270.214 252.365 271.344 255.224C272.592 258.404 272.792 261.87 272.577 265.247C272.447 267.29 272.171 269.319 271.893 271.344C271.871 271.435 271.885 271.532 271.932 271.614C271.978 271.696 272.054 271.757 272.144 271.785C272.235 271.81 272.333 271.797 272.416 271.75C272.498 271.703 272.559 271.626 272.584 271.534L272.585 271.536Z" fill="white"/>
<path d="M268.954 265.629C268.432 266.423 267.716 267.068 266.873 267.504C266.03 267.94 265.09 268.151 264.142 268.116C261.706 268.001 259.675 266.298 257.847 264.682L252.44 259.898L256.019 259.727C258.592 259.603 261.232 259.488 263.685 260.283C266.138 261.078 268.397 262.991 268.845 265.531" fill="#7C6B5B"/>
<path d="M274.011 273.652C271.584 269.348 268.765 264.564 263.731 263.035C262.331 262.611 260.864 262.459 259.407 262.588C258.948 262.626 259.063 263.336 259.523 263.296C261.964 263.093 264.401 263.739 266.423 265.125C268.369 266.451 269.884 268.295 271.166 270.251C271.951 271.447 272.655 272.698 273.358 273.945C273.581 274.343 274.239 274.056 274.011 273.652Z" fill="white"/>
<path d="M142.914 149.31C146.315 149.31 149.073 146.549 149.073 143.142C149.073 139.736 146.315 136.974 142.914 136.974C139.513 136.974 136.756 139.736 136.756 143.142C136.756 146.549 139.513 149.31 142.914 149.31Z" fill="#A86523"/>
<path d="M139.966 141.99C139.895 141.99 139.838 142.451 139.838 143.018C139.838 143.586 139.895 144.046 139.966 144.046H146.022C146.092 144.056 146.151 143.603 146.152 143.035C146.191 142.682 146.148 142.324 146.026 141.991H139.966V141.99Z" fill="#7C6B5B"/>
<path d="M142.914 182.22C146.315 182.22 149.073 179.459 149.073 176.052C149.073 172.646 146.315 169.884 142.914 169.884C139.513 169.884 136.756 172.646 136.756 176.052C136.756 179.459 139.513 182.22 142.914 182.22Z" fill="#A86523"/>
<path d="M139.966 174.9C139.895 174.9 139.838 175.361 139.838 175.928C139.838 176.496 139.895 176.957 139.966 176.957H146.022C146.092 176.966 146.151 176.513 146.152 175.946C146.191 175.592 146.148 175.235 146.026 174.901L139.966 174.9Z" fill="#7C6B5B"/>
<path d="M142.914 215.116C146.315 215.116 149.073 212.355 149.073 208.948C149.073 205.542 146.315 202.78 142.914 202.78C139.513 202.78 136.756 205.542 136.756 208.948C136.756 212.355 139.513 215.116 142.914 215.116Z" fill="#A86523"/>
<path d="M139.966 207.796C139.895 207.796 139.838 208.257 139.838 208.824C139.838 209.392 139.895 209.853 139.966 209.853H146.022C146.092 209.862 146.151 209.409 146.152 208.842C146.192 208.488 146.148 208.131 146.026 207.797L139.966 207.796Z" fill="#7C6B5B"/>
<path d="M163.609 66.9868L161.43 69.1694L179.681 87.4492L181.86 85.2666L163.609 66.9868Z" fill="white"/>
<path d="M181.86 69.1714L179.68 66.9888L161.43 85.2686L163.609 87.4512L181.86 69.1714Z" fill="white"/>
<path d="M34.7707 175.997C35.3046 175.808 35.7905 175.504 36.1943 175.106C36.598 174.708 36.9099 174.227 37.1077 173.695C37.3056 173.164 37.3848 172.595 37.3396 172.03C37.2944 171.465 37.1261 170.916 36.8463 170.423L45.9227 160.057L38.8376 159.079L31.3033 169.072C30.5069 169.597 29.9307 170.397 29.6839 171.32C29.4371 172.243 29.5369 173.224 29.9644 174.078C30.3918 174.932 31.1172 175.599 32.003 175.953C32.8888 176.307 33.8735 176.323 34.7703 175.998L34.7707 175.997Z" fill="#9F616A"/>
<path d="M45.7185 267.859H39.3873L36.3752 243.398H45.7197L45.7185 267.859Z" fill="#9F616A"/>
<path d="M78.8612 262.552L72.8132 264.432L62.6963 241.967L71.6205 239.192L78.8612 262.552Z" fill="#9F616A"/>
<path d="M40.87 155.087L31.4932 165.844L38.8341 166.505L40.87 155.087Z" fill="#7C6B5B"/>
<path d="M37.2061 168.952C37.2061 168.952 33.949 170.583 33.5418 177.923C33.1346 185.263 34.7634 204.431 34.7634 204.431C34.7634 204.431 33.135 212.994 34.7634 220.742C36.3917 228.489 33.135 256.625 35.1705 256.625C37.2061 256.625 47.7914 257.849 48.1986 256.625C48.6058 255.402 49.0129 237.052 49.0129 237.052C49.0129 237.052 52.2701 227.673 49.0129 221.965C49.0129 221.965 60.3853 241.855 67.7408 257.034C69.3507 260.356 81.5832 256.626 79.5477 252.956C77.5121 249.286 72.6267 232.567 72.6267 232.567C72.6267 232.567 68.9624 220.333 62.4485 215.032L65.7057 188.934C65.7057 188.934 72.6271 171.4 68.5563 168.953C64.4856 166.506 37.2061 168.952 37.2061 168.952Z" fill="#2C1A0A"/>
<path d="M49.4198 103.299C55.2659 103.299 60.0051 98.5519 60.0051 92.6965C60.0051 86.841 55.2659 82.0942 49.4198 82.0942C43.5737 82.0942 38.8345 86.841 38.8345 92.6965C38.8345 98.5519 43.5737 103.299 49.4198 103.299Z" fill="#9F616A"/>
<path d="M61.2266 103.298L48.0672 111.046C48.0672 111.046 43.0285 113.888 41.1462 118.794C39.14 124.022 40.3061 131.383 41.1462 133.066C42.7746 136.329 40.4632 144.484 40.4632 144.484L38.4277 163.242C38.4277 163.242 31.0995 170.174 36.7993 170.99C42.4991 171.805 52.6773 170.582 58.7843 170.99C64.8913 171.398 71.8123 172.213 69.7768 168.134C67.7412 164.056 65.2985 161.202 67.7412 153.048C69.6527 146.666 69.5699 122.804 69.4436 112.727C69.4264 111.343 69.056 109.986 68.3675 108.786C67.6789 107.586 66.6953 106.582 65.51 105.87L61.2266 103.298Z" fill="#E6D8C3"/>
<path opacity="0.1" d="M55.3249 116.145L56.5461 141.019L44.7096 165.028L42.7021 164.262L54.9162 141.834L55.3249 116.145Z" fill="#3B2F2F"/>
<path opacity="0.1" d="M68.7586 146.32V143.464L54.9178 166.301L68.7586 146.32Z" fill="#3B2F2F"/>
<path d="M41.907 82.8745L40.1585 82.1738C40.1585 82.1738 43.8182 78.139 48.9082 78.4897L47.4763 76.9109C47.4763 76.9109 50.9761 75.5075 54.1581 79.1912C55.8307 81.1277 57.7657 83.4042 58.9734 85.9682H60.8476L60.0655 87.6933L62.803 89.4184L59.9931 89.1097C60.2593 90.599 60.1681 92.1303 59.7273 93.5774L59.8044 94.941C59.8044 94.941 56.5457 89.8907 56.5457 89.1919V90.9436C56.5457 90.9436 54.7956 89.3648 54.7956 88.3122L53.841 89.5403L53.3637 87.6111L47.4774 89.5403L48.4313 87.9607L44.7716 88.487L46.2035 86.5577C46.2035 86.5577 42.0673 88.8381 41.9082 90.7681C41.7491 92.6981 39.6812 95.1536 39.6812 95.1536L38.7266 93.3991C38.7266 93.3991 37.2935 85.5059 41.907 82.8745Z" fill="#2C1A0A"/>
<path d="M48.7557 177.151C49.2475 176.87 49.6718 176.484 49.9986 176.021C50.3255 175.558 50.5471 175.029 50.6476 174.47C50.7482 173.912 50.7253 173.339 50.5807 172.79C50.436 172.242 50.1731 171.732 49.8104 171.296L56.9075 159.482L49.7599 159.778L44.1163 170.952C43.426 171.611 43.0009 172.501 42.9217 173.452C42.8424 174.404 43.1146 175.352 43.6865 176.116C44.2584 176.88 45.0903 177.408 46.0246 177.599C46.9589 177.79 47.9306 177.631 48.7557 177.152V177.151Z" fill="#9F616A"/>
<path d="M64.8913 108.6L67.9446 107.989C67.9446 107.989 77.1049 114.717 74.255 128.174C71.4051 141.631 58.7843 162.02 58.7843 162.02C58.7843 162.02 55.9336 165.69 55.12 166.505C54.3064 167.32 52.6772 166.505 53.4916 167.729C54.306 168.952 52.27 169.767 52.27 169.767C52.27 169.767 43.3131 169.767 44.1275 166.505C44.9419 163.243 58.7843 139.998 58.7843 139.998L56.7476 118.385C56.7476 118.385 55.1196 107.785 64.8913 108.6Z" fill="#E6D8C3"/>
<path d="M74.1364 262.465C74.1364 262.465 69.9648 259.401 69.9648 261.072C69.9648 262.743 65.2369 269.428 65.2369 269.428C65.2369 269.428 57.4499 275 63.8462 275C70.2425 275 73.0239 273.885 73.0239 273.885L79.6987 269.428C79.6987 269.428 81.3675 267.478 80.8113 265.25C80.255 263.022 78.3073 259.958 78.3073 259.958C78.3073 259.958 76.0833 263.022 74.1364 262.465Z" fill="#2C1A0A"/>
<path d="M38.8873 264.45C38.8873 264.45 38.3117 261.567 36.2974 263.009C34.283 264.45 28.8151 268.774 28.8151 268.774C28.8151 268.774 18.7425 271.079 25.0738 273.962C31.405 276.845 45.794 272.809 45.794 272.809C45.794 272.809 46.3696 263.585 45.794 263.873C45.2185 264.162 39.175 265.026 38.8873 264.45Z" fill="#2C1A0A"/>
</g>
<defs>
<clipPath id="clip0_171_947">
<rect width="286" height="275" fill="white"/>
</clipPath>
</defs>
</svg>
