<svg width="264" height="275" viewBox="0 0 264 275" fill="none" xmlns="http://www.w3.org/2000/svg">
<g clip-path="url(#clip0_113_141)">
<path d="M81.6402 203.7L5.27754 213.455C3.46162 213.687 3.18629 216.206 4.90916 216.826L166.452 274.897C166.798 275.022 167.174 275.033 167.527 274.931L262.744 247.22C264.475 246.716 264.396 244.235 262.636 243.844L82.2387 203.728C82.0423 203.684 81.8398 203.675 81.6402 203.7Z" fill="#A86523"/>
<path d="M42.0967 181.643C42.0967 181.643 36.7444 180.452 35.555 184.023C34.3656 187.594 33.7709 194.14 33.7709 194.14V199.752C33.7709 199.752 25.4451 214.374 34.9603 219.135C44.4755 223.896 49.8278 222.11 49.8278 222.11C49.8278 222.11 55.7749 219.135 52.8014 214.969L49.8278 210.803C49.8278 210.803 49.7712 202.609 50.989 201.945C52.2067 201.281 53.3961 199.496 53.3961 199.496L54.5855 185.808C54.5855 185.808 48.6384 179.262 42.0967 181.643Z" fill="#2C1A0A"/>
<path d="M106.402 30.295C106.402 30.295 111.375 48.2328 106.471 53.3438C101.567 58.4547 102.706 62.3732 102.706 62.3732C102.706 62.3732 90.3186 66.3302 88.509 51.6804L91.5301 62.86C91.5301 62.86 79.9004 61.9418 83.2999 47.4033C86.6993 32.8649 90.9133 32.8498 88.509 28.394C86.1046 23.9383 86.1046 1.32404 99.7828 0.133812C113.461 -1.05641 111.677 6.08492 111.677 6.08492L106.402 30.295Z" fill="#2C1A0A"/>
<path d="M160.601 90.8871C160.601 90.8871 174.121 117.371 170.552 124.512C166.984 131.653 154.403 145.873 154.403 145.873H141.13L149.76 135.084L156.141 118.38L149.143 102.53L160.601 90.8871Z" fill="#ED9DA0"/>
<path d="M107.488 32.6488C106.927 20.6029 116.231 10.3829 128.269 9.82179C140.306 9.26066 150.519 18.5709 151.08 30.6167C151.535 40.386 145.501 48.9533 136.783 52.1424L133.867 80.2044L111.553 63.2934C111.553 63.2934 115.918 57.1623 118.096 50.3771C112.032 46.7453 107.842 40.2421 107.488 32.6488Z" fill="#ED9DA0"/>
<path d="M135.691 61.1235C135.691 61.1235 137.475 72.4306 114.282 57.5528L91.7544 70.0593L99.4855 104.576L100.675 119.454C100.675 119.454 96.512 122.429 97.1067 126.595C97.1067 126.595 87.5915 131.951 87.5915 141.473C87.5915 141.473 79.2657 148.614 85.8074 150.399C92.3491 152.185 113.164 149.209 113.164 149.209L142.304 139.687C142.304 139.687 147.062 136.008 142.304 131.599L149.44 109.337C149.44 109.337 153.826 105.171 152.228 98.9222C152.228 98.9222 163.713 97.4345 164.903 94.4589C164.903 94.4589 151.819 68.274 147.656 67.0838C143.493 65.8936 135.691 61.1235 135.691 61.1235Z" fill="#A86523"/>
<path d="M151.931 98.9444C151.924 98.8497 151.203 89.4593 148.895 85.995C146.484 82.3755 147.038 77.0933 147.063 76.8701L147.654 76.9358C147.649 76.9887 147.101 82.2284 149.39 85.6649C151.785 89.2593 152.496 98.5086 152.525 98.9003L151.931 98.9444Z" fill="#2C1A0A"/>
<path d="M85.5099 147.721C85.5099 147.721 73.0212 173.906 94.4304 179.262C115.84 184.618 145.575 170.336 145.575 170.336C145.575 170.336 142.007 188.784 146.764 197.711L149.143 214.374C149.143 214.374 161.037 215.343 164.903 212.478L169.363 168.55C169.363 168.55 171.147 150.697 165.795 148.912C160.442 147.126 142.007 142.96 142.007 142.96L140.123 139.088L85.5099 147.721Z" fill="#2C1A0A"/>
<path d="M92.6463 173.906L84.3205 197.711L58.1537 188.784C58.1537 188.784 52.2066 189.379 53.9907 201.281C53.9907 201.281 64.6954 207.232 74.8053 215.564C84.9152 223.896 96.2602 222.11 100.698 215.564C105.135 209.018 123.804 186.906 125.769 177.431L92.6463 173.906Z" fill="#2C1A0A"/>
<path d="M150.927 210.803L149.143 214.374L152.117 236.393L166.984 233.417L164.903 212.478L150.927 210.803Z" fill="#ED9DA0"/>
<path d="M159.848 229.252C159.848 229.252 151.04 234.012 150.389 223.598C150.389 223.598 146.005 225.472 145.493 230.338C144.98 235.203 143.791 239.964 143.791 239.964C143.791 239.964 139.628 247.105 145.575 248.295C151.522 249.485 156.874 249.485 156.874 249.485C156.874 249.485 178.283 262.578 190.177 248.295C190.177 248.295 192.556 244.129 187.204 242.344C181.852 240.559 178.283 236.988 178.283 236.988L169.648 227.466C169.648 227.466 168.81 220.92 164.032 223.598C159.253 226.276 159.848 229.252 159.848 229.252Z" fill="#2C1A0A"/>
<path d="M58.1537 189.974V188.784L48.6385 185.213C48.6385 185.213 42.0598 190.217 46.2412 197.535L53.9908 201.281L58.1537 189.974Z" fill="#ED9DA0"/>
<path d="M141.13 6.29573C141.13 6.29573 124.166 -5.22219 111.677 6.08492C99.1882 17.392 98.348 38.1337 118.096 50.3771L116.434 41.7916C116.434 41.7916 111.677 34.6502 119.408 35.2454C127.139 35.8405 125.95 28.6991 125.95 28.6991C125.95 28.6991 142.508 21.2302 142.554 16.038L148.728 25.7453C148.728 25.7453 161.067 15.4332 141.13 6.29573Z" fill="#2C1A0A"/>
<path d="M115.245 6.08492C115.245 6.08492 112.254 -0.865989 108.397 4.3948C104.54 9.65558 107.464 13.4242 107.464 13.4242L115.245 6.08492Z" fill="#A86523"/>
<path d="M115.804 145.64C113.587 144.235 111.073 143.836 108.945 144.349L107.703 143.514C103.915 140.289 85.5826 124.503 83.2999 119.164L95.6199 101.898L81.889 90.8871C81.889 90.8871 64.6955 118.561 69.4531 125.702C73.7048 132.084 97.6366 147.238 102.678 150.388L104.342 151.62C104.788 153.765 106.222 155.869 108.439 157.274C112.318 159.733 117.112 159.122 119.145 155.91C121.179 152.697 119.683 148.1 115.804 145.64Z" fill="#ED9DA0"/>
<path d="M47.1517 252.758C47.1517 252.758 46.557 246.212 44.7729 245.617C42.9888 245.022 38.2311 243.832 38.2311 243.832C38.2311 243.832 28.1212 242.641 28.1212 256.924C28.1212 256.924 29.1091 260.71 30.3993 261.198C31.6894 261.685 36.447 263.47 36.447 263.47C36.447 263.47 44.1782 263.47 44.1782 259.9L57.5641 263.47C57.5641 263.47 56.0722 270.017 59.0457 271.802C62.0192 273.587 66.5294 275 66.5294 275C66.5294 275 75.1026 272.397 76.292 268.231C77.4814 264.065 79.2655 254.544 73.9132 253.353L67.9662 250.973C67.9662 250.973 61.7219 251.271 58.7483 256.031L47.1517 252.758Z" fill="#2C1A0A"/>
<path d="M234.78 213.779V219.151C234.78 219.151 231.212 219.135 231.212 226.276V257.857C231.212 257.857 232.303 261.983 239.538 261.983C246.674 261.983 247.863 259.007 247.863 259.007V226.736C247.863 226.736 247.863 219.73 243.701 218.539L243.617 213.779C243.617 213.779 240.727 210.208 234.78 213.779Z" fill="#2C1A0A"/>
<path d="M30.3994 144.787L27.5267 145.043C27.5267 145.043 25.7426 131.356 23.3637 127.785L25.1479 126.595L26.3373 132.546C26.3373 132.546 27.5267 128.38 25.7426 126L27.5267 123.024V117.073C27.5267 117.073 23.9585 101.005 5.52271 95.6491C5.52271 95.6491 20.3902 96.8393 27.5267 111.717L28.1214 99.8149C28.1214 99.8149 24.5532 74.8202 16.822 69.4642C16.822 69.4642 27.7042 78.986 29.3995 99.2198C29.3995 99.2198 34.6631 74.2251 47.1518 72.4398C47.1518 72.4398 33.8253 83.1518 30.676 98.9222L29.3108 115.883C29.3108 115.883 41.2048 96.8393 53.6935 97.4344C53.6935 97.4344 37.6366 101.005 31.0949 116.478C31.0949 116.478 27.5267 124.502 29.6081 131.499C29.6081 131.499 32.879 118.858 34.0684 118.858L33.4737 123.619C33.4737 123.619 29.3108 130.761 29.9055 134.331C30.5002 137.902 30.3994 144.787 30.3994 144.787Z" fill="#2C1A0A"/>
<path d="M32.9329 176.706L22.3597 176.454C18.3784 176.359 15.1233 173.248 14.8461 169.272L13.551 150.697H42.0967L40.8147 169.512C40.5339 173.634 37.0604 176.804 32.9329 176.706Z" fill="#2C1A0A"/>
<path d="M39.7411 153.33C31.7964 153.743 23.8517 153.743 15.9069 153.33C13.5889 153.209 11.7671 151.297 11.7671 148.975V143.556C21.5482 140.908 32.3904 141.303 43.881 143.556V148.975C43.881 151.297 42.0592 153.209 39.7411 153.33Z" fill="#2C1A0A"/>
<path d="M7.30666 58.1571C7.30666 58.1571 2.54905 68.8691 18.0113 84.9371C18.0113 84.9371 25.1477 88.5078 26.3371 88.5078C26.3371 88.5078 28.1212 84.342 28.7159 83.1518C29.3106 81.9616 30.0672 72.8501 22.7689 64.7034C15.0038 56.0356 10.8331 57.0114 7.30666 58.1571Z" fill="#2C1A0A"/>
<path d="M31.281 92.5113C31.281 92.5113 27.8239 82.8542 33.1762 76.9031C38.5285 70.952 46.2596 65.0009 51.6119 66.7862C51.6119 66.7862 53.396 68.5716 52.2066 71.5471C51.7286 72.7429 51.0585 74.5155 50.4279 76.208C48.9274 80.2356 46.5518 83.8995 43.3742 86.7916C42.2585 87.807 41.1536 88.6417 40.2733 88.9541C37.3391 89.9956 32.5734 92.5113 32.5734 92.5113H31.281Z" fill="#2C1A0A"/>
<path d="M24.355 109.795C24.355 109.795 15.9299 110.229 8.79346 104.278C3.37224 99.7574 1.03972 96.2669 0.231657 94.8502C-0.129309 94.2173 -0.067489 93.4193 0.410493 92.8696C1.12372 92.0493 2.77908 91.179 6.61626 91.3934C13.5511 91.7809 18.9034 93.5662 21.8769 97.1369C24.8504 100.708 26.2079 104.669 25.8265 108.64L24.355 109.795Z" fill="#2C1A0A"/>
<path d="M33.8054 109.802C33.8054 109.802 30.5107 102.029 43.7457 95.1043C45.0472 94.4233 46.4692 94.0064 47.9319 93.8744C51.7865 93.5267 59.3718 93.4962 61.1273 98.3271C61.1273 98.3271 60.833 99.2628 57.1145 101.77C54.5256 103.517 51.7393 104.906 50.2855 105.59C49.6507 105.888 48.9863 106.11 48.2995 106.252L35.714 108.849L33.8054 109.802Z" fill="#2C1A0A"/>
<path d="M27.5266 120.02L15.6326 116.788C15.6326 116.788 11.0893 115.528 7.85996 120.02C4.63058 124.512 4.03588 128.678 4.03588 128.678C4.03588 128.678 2.84647 134.629 5.22528 135.819C7.60409 137.009 23.3637 127.785 23.3637 127.785C23.3637 127.785 27.8239 125.645 27.5266 120.02Z" fill="#2C1A0A"/>
<path d="M34.0682 118.858L42.0967 115.634C42.0967 115.634 52.8013 114.395 55.7749 121.536C58.7484 128.678 56.9643 130.463 56.9643 130.463C56.9643 130.463 56.9643 131.653 54.5855 131.653C52.2067 131.653 38.9844 128.134 32.8094 124.835L34.0682 118.858Z" fill="#2C1A0A"/>
<path d="M97.9987 70.3569L91.7544 70.0594C91.7544 70.0594 76.5895 88.8054 76.5895 94.7565C76.5895 94.7565 94.4305 98.3271 96.8093 107.849L106.471 88.9541L97.9987 70.3569Z" fill="#A86523"/>
</g>
<defs>
<clipPath id="clip0_113_141">
<rect width="264" height="275" fill="white"/>
</clipPath>
</defs>
</svg>
