<svg width="314" height="275" viewBox="0 0 314 275" fill="none" xmlns="http://www.w3.org/2000/svg">
<g clip-path="url(#clip0_235_7904)">
<path d="M15.1512 93.7117L0.0108691 85.1782C-0.193357 76.0483 1.83264 67.0065 5.91295 58.8379C9.40361 74.6921 27.7738 82.235 36.2496 96.0776C38.86 100.415 40.4616 105.285 40.9355 110.326C41.4095 115.368 40.7437 120.451 38.9876 125.2L39.9833 137.492C32.1583 135.147 24.9344 131.132 18.8093 125.724C12.6842 120.315 7.80362 113.643 4.50371 106.165C2.694 101.952 1.42169 97.5279 0.716815 92.9966C7.77587 93.7483 15.1512 93.7117 15.1512 93.7117Z" fill="white"/>
<path d="M287.323 248.958L287.787 238.512C292.627 235.923 298.025 234.556 303.513 234.528C295.96 240.707 296.904 252.619 291.784 260.928C290.167 263.507 287.99 265.69 285.416 267.313C282.842 268.936 279.936 269.959 276.913 270.306L270.592 274.178C269.725 269.34 269.916 264.371 271.153 259.614C272.389 254.857 274.642 250.425 277.755 246.623C279.522 244.507 281.549 242.623 283.787 241.014C285.301 245.008 287.323 248.958 287.323 248.958Z" fill="white"/>
<path d="M271.038 268.803L265.315 268.802L262.592 246.713L271.039 246.713L271.038 268.803Z" fill="#FFB6B6"/>
<path d="M272.498 274.354L254.044 274.353V274.119C254.045 272.213 254.801 270.385 256.148 269.037C257.495 267.689 259.322 266.932 261.227 266.932L264.598 264.373L270.887 266.932L272.498 266.932L272.498 274.354Z" fill="#2C1A0A"/>
<path d="M244.45 268.803L238.727 268.802L236.005 246.713L244.451 246.713L244.45 268.803Z" fill="#FFB6B6"/>
<path d="M245.91 274.354L227.456 274.353V274.119C227.456 272.213 228.213 270.385 229.56 269.037C230.907 267.689 232.734 266.932 234.639 266.932L238.01 264.373L244.299 266.932L245.91 266.932L245.91 274.354Z" fill="#2C1A0A"/>
<path d="M241.973 148.037L279.198 148.968C286.268 152.811 286.375 161.128 284.058 171.002C284.058 171.002 284.84 176.871 283.276 178.436C281.712 180.001 280.93 180.001 281.712 182.74C282.494 185.479 278.363 189.952 278.865 190.454C279.366 190.957 280.539 193.696 280.539 193.696L276.629 215.998C276.629 215.998 273.892 254.733 273.11 255.516C272.328 256.298 271.546 255.516 272.328 257.472C273.11 259.428 273.892 258.646 273.11 259.428C272.418 260.176 271.765 260.959 271.155 261.776H261.702C261.702 261.776 260.989 257.863 260.989 257.472C260.989 257.081 260.207 254.733 260.207 254.342C260.207 253.951 260.899 253.259 260.899 253.259C261.138 252.464 261.299 251.647 261.38 250.821C261.38 250.038 263.726 219.91 263.726 219.91L259.034 180.784L247.696 219.128C247.696 219.128 247.696 252.777 246.914 253.559C246.132 254.342 246.132 253.951 246.523 255.516C246.914 257.081 248.478 256.69 247.305 257.863C246.132 259.037 245.741 257.081 246.132 259.037L246.523 260.994L234.792 261.161C234.792 261.161 233.229 257.863 234.011 256.69C234.793 255.516 234.746 255.836 233.792 253.915C232.838 251.994 232.446 251.603 232.837 251.212C233.228 250.821 233.229 248.739 233.229 248.739L235.184 211.303C235.184 211.303 235.574 171.785 235.574 170.611C235.604 170.007 235.493 169.404 235.25 168.851V167.257L236.748 161.612L241.973 148.037Z" fill="#2C1A0A"/>
<path d="M264.334 70.5814C270.722 70.5814 275.9 65.3996 275.9 59.0075C275.9 52.6154 270.722 47.4336 264.334 47.4336C257.947 47.4336 252.768 52.6154 252.768 59.0075C252.768 65.3996 257.947 70.5814 264.334 70.5814Z" fill="#FFB6B6"/>
<path d="M258.551 78.2307C256.06 79.7131 254.569 82.4367 253.713 85.2083C252.129 90.3394 251.176 95.6446 250.874 101.007L249.97 117.059L238.777 151.24C248.478 159.454 284.941 153.107 284.941 153.107C284.941 153.107 286.06 152.733 284.941 151.613C283.821 150.493 282.732 151.486 283.851 150.366C284.97 149.245 284.199 150.493 283.825 149.373C283.452 148.253 283.825 149 284.199 148.627C284.572 148.253 281.31 144.893 281.31 144.893L284.295 125.273L288.026 85.6977C283.549 80.0975 274.545 76.7961 274.545 76.7961L272.218 72.6055L260.585 73.5367L258.551 78.2307Z" fill="white"/>
<path d="M256.965 52.2148C257.413 52.2183 257.858 52.2768 258.291 52.3889C259.145 52.5944 260.013 52.74 260.887 52.8246C263.565 53.0766 266.081 54.2193 268.033 56.0701C269.986 57.9209 271.262 60.373 271.658 63.0348C272.33 62.4484 273.86 61.3698 275.113 62.3722C275.132 62.3881 275.143 62.3963 275.187 62.3754C276.02 61.9803 277.498 57.1162 277.542 52.8334C277.566 50.5603 277.208 47.6576 275.371 46.7384L275.274 46.69L275.249 46.5847C275.126 46.0734 273.755 45.2006 271.372 44.5212C267.04 43.2867 260.584 40.8817 256.948 44.421C256.673 45.6142 255.778 48.1676 254.873 48.457C253.872 48.7774 253.007 49.0538 252.871 50.2829C252.757 52.032 252.766 53.7869 252.896 55.5349C253.235 54.4653 253.901 53.5291 254.8 52.8582C255.439 52.4276 256.195 52.2031 256.965 52.2148Z" fill="#2C1A0A"/>
<path d="M235.437 116.166L254.33 104.058L244.815 91.3994L235.418 102.966L206.142 104.762C205.371 104.001 204.397 103.48 203.336 103.263C202.275 103.046 201.174 103.143 200.167 103.541C199.16 103.94 198.291 104.623 197.665 105.507C197.04 106.391 196.685 107.439 196.643 108.521C196.602 109.604 196.877 110.675 197.434 111.605C197.991 112.534 198.806 113.281 199.779 113.755C200.753 114.228 201.844 114.408 202.918 114.273C203.992 114.137 205.004 113.692 205.829 112.99L235.437 116.166Z" fill="#FFB6B6"/>
<path d="M271.866 87.1572C272.962 93.7978 252.255 106.479 252.255 106.479C252.255 104.92 239.895 116.687 239.338 115.394C237.752 111.72 236.637 103.018 234.422 101.625C233.155 100.829 242.053 93.3462 242.053 93.3462C242.053 93.3462 246.71 88.6509 252.822 82.7284C254.519 81.022 256.62 79.7729 258.929 79.0975C261.238 78.4221 263.68 78.3423 266.029 78.8655C266.029 78.8655 270.769 80.5165 271.866 87.1572Z" fill="white"/>
<path d="M310.807 119.344L298.311 100.698L285.865 110.486L297.62 119.642L300.035 148.894C299.29 149.681 298.79 150.667 298.596 151.733C298.402 152.799 298.522 153.899 298.941 154.898C299.361 155.896 300.062 156.752 300.958 157.359C301.855 157.966 302.909 158.299 303.992 158.317C305.074 158.335 306.139 158.038 307.055 157.461C307.972 156.885 308.701 156.053 309.154 155.069C309.607 154.085 309.763 152.99 309.605 151.918C309.447 150.846 308.98 149.844 308.262 149.033L310.807 119.344Z" fill="#FFB6B6"/>
<path d="M281.054 83.513C287.666 82.2753 300.774 102.724 300.774 102.724C299.216 102.757 311.234 114.873 309.954 115.458C306.317 117.122 297.647 118.422 296.302 120.668C295.533 121.952 287.869 113.209 287.869 113.209C287.869 113.209 283.079 108.649 277.033 102.659C275.292 100.998 274 98.9222 273.276 96.6264C272.552 94.3305 272.421 91.8887 272.894 89.5284C272.894 89.5284 274.443 84.7506 281.054 83.513Z" fill="white"/>
<path d="M314 274.446C314 274.519 313.986 274.591 313.958 274.658C313.931 274.725 313.89 274.787 313.838 274.838C313.787 274.89 313.726 274.93 313.658 274.958C313.591 274.986 313.519 275 313.446 275H183.024C182.878 275 182.737 274.941 182.633 274.838C182.529 274.734 182.471 274.593 182.471 274.446C182.471 274.299 182.529 274.158 182.633 274.054C182.737 273.95 182.878 273.892 183.024 273.892H313.446C313.519 273.891 313.591 273.906 313.658 273.933C313.726 273.961 313.787 274.002 313.838 274.053C313.89 274.105 313.931 274.166 313.958 274.233C313.986 274.301 314 274.373 314 274.446Z" fill="#E6D8C3"/>
<path d="M193.179 106.532H34.8944C32.4214 106.535 30.0506 107.519 28.3019 109.269C26.5533 111.019 25.5697 113.391 25.5669 115.866V214.481C25.5697 216.956 26.5533 219.328 28.302 221.078C30.0506 222.828 32.4215 223.812 34.8944 223.815H193.179C195.652 223.812 198.023 222.828 199.771 221.078C201.52 219.328 202.504 216.956 202.507 214.481V115.866C202.504 113.391 201.52 111.019 199.772 109.269C198.023 107.519 195.652 106.535 193.179 106.532Z" fill="#A86523"/>
<path d="M193.179 106.532H34.8944C32.4214 106.535 30.0506 107.519 28.3019 109.269C26.5533 111.019 25.5697 113.391 25.5669 115.866V214.481C25.5697 216.956 26.5533 219.328 28.302 221.078C30.0506 222.828 32.4215 223.812 34.8944 223.815H193.179C195.652 223.812 198.023 222.828 199.771 221.078C201.52 219.328 202.504 216.956 202.507 214.481V115.866C202.504 113.391 201.52 111.019 199.772 109.269C198.023 107.519 195.652 106.535 193.179 106.532ZM196.24 177.368C196.202 187.408 192.234 197.033 185.186 204.178C178.138 211.323 168.573 215.42 158.541 215.589C142.481 215.798 167.428 215.88 148.057 215.88C103.763 215.88 57.5765 215.456 40.3437 215.182C38.0764 215.135 35.9172 214.203 34.3272 212.585C32.7371 210.967 31.8422 208.791 31.8334 206.522V115.873C31.8343 115.061 32.1568 114.282 32.7303 113.706C33.3038 113.131 34.0817 112.806 34.8938 112.803H193.173C193.985 112.804 194.763 113.127 195.338 113.701C195.913 114.275 196.237 115.053 196.24 115.865V177.368Z" fill="#3B2F2F"/>
<path d="M173.695 49.7471H53.0983C52.0313 49.7486 50.9907 50.0796 50.1187 50.695C49.2467 51.3103 48.5857 52.18 48.226 53.1852L29.6007 105.475C29.3228 106.256 29.2361 107.092 29.348 107.913C29.4599 108.734 29.7671 109.516 30.2438 110.193C30.7205 110.871 31.3528 111.424 32.0874 111.806C32.8221 112.188 33.6378 112.388 34.4658 112.389L196.205 112.676H196.212C197.068 112.676 197.911 112.464 198.664 112.058C199.418 111.652 200.059 111.065 200.53 110.35C201.002 109.635 201.288 108.814 201.364 107.961C201.44 107.107 201.304 106.249 200.967 105.461L178.449 52.8842C178.051 51.9526 177.388 51.1587 176.543 50.6009C175.697 50.0432 174.707 49.7463 173.695 49.7471Z" fill="#3B2F2F"/>
<path d="M201.385 106.597C201.385 107.298 201.242 107.992 200.966 108.636L178.45 149.109C178.049 150.038 177.385 150.83 176.54 151.387C175.695 151.944 174.706 152.241 173.695 152.242H53.1001C52.0327 152.241 50.9916 151.911 50.1189 151.296C49.2461 150.681 48.5843 149.811 48.2236 148.806L29.6019 108.622C29.3736 107.982 29.2737 107.303 29.3078 106.624C29.3419 105.945 29.5094 105.28 29.8006 104.666C30.0919 104.052 30.5012 103.501 31.0052 103.046C31.5093 102.59 32.0981 102.238 32.7381 102.01C33.2917 101.81 33.8758 101.708 34.4644 101.708L54.2215 101.67L62.2853 101.656L168.395 101.47L176.463 101.456L196.206 101.419H196.211C197.583 101.419 198.899 101.965 199.869 102.936C200.84 103.907 201.385 105.224 201.385 106.597Z" fill="#3B2F2F"/>
<path d="M46.7607 180.505C49.1521 180.505 81.9912 182.513 81.9912 184.906C81.9912 187.299 49.152 189.171 46.7607 189.171C45.6123 189.171 44.5109 188.714 43.6989 187.902C42.8868 187.089 42.4307 185.987 42.4307 184.838C42.4307 183.689 42.8868 182.587 43.6989 181.774C44.5109 180.961 45.6123 180.505 46.7607 180.505Z" fill="#3B2F2F"/>
<path d="M166.184 17.9365H64.5001C61.775 17.9397 59.1624 19.0244 57.2355 20.9526C55.3085 22.8809 54.2246 25.4953 54.2214 28.2223V152.243H173.695C174.676 152.246 175.637 151.966 176.463 151.437V28.2223C176.46 25.4953 175.376 22.8809 173.449 20.9526C171.522 19.0244 168.91 17.9397 166.184 17.9365Z" fill="white"/>
<path d="M127.373 26.2754H71.6475C69.166 26.2778 66.7869 27.265 65.0318 29.0204C63.2767 30.7758 62.289 33.1561 62.2854 35.6392V152.242H168.395V67.3253C168.382 56.442 164.056 46.0081 156.366 38.3125C148.676 30.6169 138.249 26.2879 127.373 26.2754Z" fill="white"/>
<path d="M150.318 141.887H80.3628C79.7581 141.887 79.1782 142.127 78.7506 142.555C78.323 142.983 78.0828 143.563 78.0828 144.168C78.0828 144.773 78.323 145.354 78.7506 145.782C79.1782 146.209 79.7581 146.45 80.3628 146.45H150.318C150.922 146.45 151.502 146.209 151.93 145.782C152.357 145.354 152.598 144.773 152.598 144.168C152.598 143.563 152.357 142.983 151.93 142.555C151.502 142.127 150.922 141.887 150.318 141.887Z" fill="#7C6B5B"/>
<path d="M150.317 132.863H80.3627C79.7574 132.863 79.1768 133.104 78.7488 133.532C78.3208 133.961 78.0803 134.541 78.0803 135.147C78.0803 135.753 78.3208 136.334 78.7488 136.762C79.1768 137.19 79.7574 137.431 80.3627 137.431H150.317C150.923 137.431 151.503 137.19 151.931 136.762C152.359 136.334 152.6 135.753 152.6 135.147C152.6 134.541 152.359 133.961 151.931 133.532C151.503 133.104 150.923 132.863 150.317 132.863Z" fill="#7C6B5B"/>
<path d="M110.687 123.844H80.3625C79.7578 123.844 79.1779 124.084 78.7503 124.512C78.3227 124.94 78.0825 125.52 78.0825 126.125C78.0825 126.73 78.3227 127.311 78.7503 127.739C79.1779 128.167 79.7578 128.407 80.3625 128.407H110.687C111.292 128.407 111.871 128.167 112.299 127.739C112.727 127.311 112.967 126.73 112.967 126.125C112.967 125.52 112.727 124.94 112.299 124.512C111.871 124.084 111.292 123.844 110.687 123.844Z" fill="#7C6B5B"/>
<path d="M150.317 104.948H80.3627C79.7574 104.948 79.1768 105.189 78.7488 105.617C78.3208 106.046 78.0803 106.626 78.0803 107.232C78.0803 107.838 78.3208 108.419 78.7488 108.847C79.1768 109.275 79.7574 109.516 80.3627 109.516H150.317C150.923 109.516 151.503 109.275 151.931 108.847C152.359 108.419 152.6 107.838 152.6 107.232C152.6 106.626 152.359 106.046 151.931 105.617C151.503 105.189 150.923 104.948 150.317 104.948Z" fill="#7C6B5B"/>
<path d="M150.318 95.9287H80.3628C79.7581 95.9287 79.1782 96.1691 78.7506 96.597C78.323 97.0249 78.0828 97.6052 78.0828 98.2103C78.0828 98.8154 78.323 99.3957 78.7506 99.8236C79.1782 100.251 79.7581 100.492 80.3628 100.492H150.318C150.922 100.492 151.502 100.251 151.93 99.8236C152.357 99.3957 152.598 98.8154 152.598 98.2103C152.598 97.6052 152.357 97.0249 151.93 96.597C151.502 96.1691 150.922 95.9287 150.318 95.9287Z" fill="#7C6B5B"/>
<path d="M110.687 86.9053H80.3627C79.7574 86.9053 79.1768 87.1459 78.7488 87.5742C78.3208 88.0025 78.0803 88.5835 78.0803 89.1892C78.0803 89.7949 78.3208 90.3758 78.7488 90.8042C79.1768 91.2325 79.7574 91.4731 80.3627 91.4731H110.687C111.292 91.4731 111.873 91.2325 112.301 90.8042C112.729 90.3758 112.969 89.7949 112.969 89.1892C112.969 88.5835 112.729 88.0025 112.301 87.5742C111.873 87.1459 111.292 86.9053 110.687 86.9053Z" fill="#7C6B5B"/>
<path d="M150.317 68.0098H80.3627C79.7574 68.0098 79.1768 68.2504 78.7488 68.6787C78.3208 69.107 78.0803 69.6879 78.0803 70.2937C78.0803 70.8994 78.3208 71.4803 78.7488 71.9086C79.1768 72.337 79.7574 72.5776 80.3627 72.5776H150.317C150.923 72.5776 151.503 72.337 151.931 71.9086C152.359 71.4803 152.6 70.8994 152.6 70.2937C152.6 69.6879 152.359 69.107 151.931 68.6787C151.503 68.2504 150.923 68.0098 150.317 68.0098Z" fill="#A86523"/>
<path d="M150.317 58.9912H80.3627C79.7574 58.9912 79.1768 59.2318 78.7488 59.6602C78.3208 60.0885 78.0803 60.6694 78.0803 61.2751C78.0803 61.8809 78.3208 62.4618 78.7488 62.8901C79.1768 63.3184 79.7574 63.559 80.3627 63.559H150.317C150.923 63.559 151.503 63.3184 151.931 62.8901C152.359 62.4618 152.6 61.8809 152.6 61.2751C152.6 60.6694 152.359 60.0885 151.931 59.6602C151.503 59.2318 150.923 58.9912 150.317 58.9912Z" fill="#A86523"/>
<path d="M110.687 49.9668H80.3627C79.7574 49.9668 79.1768 50.2074 78.7488 50.6357C78.3208 51.0641 78.0803 51.645 78.0803 52.2507C78.0803 52.8564 78.3208 53.4374 78.7488 53.8657C79.1768 54.294 79.7574 54.5346 80.3627 54.5346H110.687C111.292 54.5346 111.873 54.294 112.301 53.8657C112.729 53.4374 112.969 52.8564 112.969 52.2507C112.969 51.645 112.729 51.0641 112.301 50.6357C111.873 50.2074 111.292 49.9668 110.687 49.9668Z" fill="#A86523"/>
<path d="M172.651 35.5394C182.458 35.5394 190.409 27.5837 190.409 17.7697C190.409 7.95578 182.458 0 172.651 0C162.844 0 154.894 7.95578 154.894 17.7697C154.894 27.5837 162.844 35.5394 172.651 35.5394Z" fill="#A86523"/>
<path d="M170.229 27.0184C169.922 27.0184 169.62 26.947 169.345 26.8097C169.071 26.6725 168.832 26.4732 168.649 26.2276L163.804 19.7637C163.648 19.5561 163.534 19.3197 163.469 19.0679C163.404 18.8161 163.389 18.554 163.425 18.2966C163.462 18.0391 163.548 17.7914 163.681 17.5675C163.813 17.3437 163.988 17.1482 164.196 16.9922C164.404 16.8361 164.64 16.7227 164.892 16.6584C165.144 16.594 165.406 16.58 165.663 16.6171C165.92 16.6543 166.168 16.7418 166.391 16.8748C166.614 17.0077 166.809 17.1835 166.964 17.3919L170.134 21.6204L178.274 9.4017C178.565 8.9655 179.017 8.66269 179.53 8.55988C180.044 8.45706 180.578 8.56268 181.014 8.85348C181.449 9.14427 181.752 9.59644 181.855 10.1105C181.958 10.6246 181.852 11.1584 181.561 11.5946L171.872 26.1382C171.697 26.4012 171.461 26.6184 171.185 26.7714C170.908 26.9245 170.599 27.009 170.284 27.0178C170.265 27.0181 170.247 27.0184 170.229 27.0184Z" fill="white"/>
</g>
<defs>
<clipPath id="clip0_235_7904">
<rect width="314" height="275" fill="white"/>
</clipPath>
</defs>
</svg>
