<svg width="223" height="200" viewBox="0 0 223 200" fill="none" xmlns="http://www.w3.org/2000/svg">
<g clip-path="url(#clip0_554_4303)">
<path d="M114.205 0.435989L106.949 2.30585L17.5537 25.343L10.2976 27.2128C6.77566 28.1247 3.75944 30.3954 1.91071 33.5267C0.0619892 36.6581 -0.468258 40.3944 0.4363 43.9159L31.9 165.839C32.8125 169.359 35.0848 172.373 38.2184 174.22C41.3519 176.068 45.0909 176.598 48.6149 175.694L48.6336 175.689L152.504 148.922L152.523 148.917C156.045 148.005 159.061 145.734 160.91 142.603C162.758 139.472 163.289 135.735 162.384 132.214L130.92 10.2904C130.008 6.77093 127.736 3.75682 124.602 1.90939C121.468 0.0619594 117.729 -0.467926 114.205 0.435989Z" fill="#FAF6F0"/>
<path d="M115.192 4.25912L106.597 6.47385L19.878 28.8213L11.2839 31.036C8.77576 31.6853 6.62783 33.3023 5.3113 35.5322C3.99477 37.7621 3.61717 40.4229 4.26132 42.9306L35.7251 164.854C36.3749 167.36 37.993 169.507 40.2245 170.822C42.456 172.138 45.1186 172.515 47.6281 171.871L47.6469 171.867L151.517 145.099L151.536 145.095C154.044 144.445 156.192 142.828 157.508 140.598C158.825 138.368 159.203 135.708 158.558 133.2L127.095 11.2767C126.445 8.77041 124.827 6.62401 122.595 5.30842C120.364 3.99282 117.701 3.61546 115.192 4.25912Z" fill="white"/>
<path d="M108.703 43.7405L56.1576 57.2813C55.5707 57.4326 54.9478 57.3447 54.4258 57.0369C53.9038 56.7292 53.5255 56.2268 53.3742 55.6403C53.2228 55.0539 53.3108 54.4313 53.6188 53.9097C53.9267 53.3881 54.4295 53.01 55.0163 52.8588L107.562 39.3179C108.148 39.1673 108.771 39.2556 109.293 39.5634C109.814 39.8712 110.192 40.3733 110.343 40.9595C110.495 41.5456 110.407 42.1678 110.099 42.6892C109.792 43.2107 109.289 43.5888 108.703 43.7405Z" fill="#FAF6F0"/>
<path d="M119.757 48.8513L58.0834 64.7445C57.4965 64.8957 56.8736 64.8078 56.3516 64.5C55.8296 64.1922 55.4513 63.6899 55.2999 63.1034C55.1486 62.517 55.2366 61.8944 55.5446 61.3728C55.8525 60.8512 56.3552 60.4731 56.9421 60.3219L118.616 44.4288C119.202 44.2776 119.825 44.3655 120.347 44.6732C120.869 44.981 121.248 45.4834 121.399 46.0698C121.55 46.6563 121.462 47.2788 121.154 47.8004C120.846 48.3221 120.344 48.7001 119.757 48.8513Z" fill="#FAF6F0"/>
<path d="M117.334 77.1863L64.7885 90.7272C64.4979 90.802 64.1954 90.819 63.8982 90.7771C63.6011 90.7351 63.3151 90.6351 63.0566 90.4827C62.7982 90.3303 62.5723 90.1286 62.3918 89.8889C62.2114 89.6493 62.0799 89.3765 62.005 89.0861C61.9301 88.7957 61.9131 88.4934 61.9551 88.1965C61.997 87.8996 62.0971 87.6138 62.2496 87.3555C62.4021 87.0972 62.604 86.8715 62.8438 86.6912C63.0836 86.5108 63.3566 86.3795 63.6472 86.3046L116.193 72.7637C116.483 72.6889 116.786 72.6719 117.083 72.7139C117.38 72.7558 117.666 72.8558 117.925 73.0082C118.183 73.1606 118.409 73.3623 118.589 73.602C118.77 73.8416 118.901 74.1144 118.976 74.4048C119.051 74.6952 119.068 74.9975 119.026 75.2944C118.984 75.5913 118.884 75.8771 118.732 76.1354C118.579 76.3937 118.377 76.6194 118.137 76.7997C117.898 76.9801 117.625 77.1114 117.334 77.1863Z" fill="#FAF6F0"/>
<path d="M128.388 82.2967L66.7143 98.1898C66.4237 98.2647 66.1212 98.2816 65.824 98.2397C65.5269 98.1977 65.2409 98.0977 64.9824 97.9453C64.724 97.7929 64.498 97.5912 64.3176 97.3515C64.1372 97.1119 64.0057 96.8391 63.9308 96.5487C63.8559 96.2584 63.8389 95.9561 63.8809 95.6591C63.9228 95.3622 64.0229 95.0764 64.1754 94.8181C64.3279 94.5598 64.5298 94.3341 64.7696 94.1538C65.0094 93.9735 65.2824 93.8421 65.573 93.7672L127.246 77.8741C127.833 77.7229 128.456 77.8108 128.978 78.1186C129.5 78.4263 129.878 78.9287 130.03 79.5151C130.181 80.1016 130.093 80.7241 129.785 81.2458C129.477 81.7674 128.975 82.1454 128.388 82.2967Z" fill="#FAF6F0"/>
<path d="M125.964 110.632L73.4188 124.172C72.8321 124.323 72.2095 124.235 71.6878 123.927C71.1661 123.619 70.7881 123.117 70.6369 122.531C70.4856 121.945 70.5734 121.323 70.8811 120.801C71.1887 120.28 71.691 119.902 72.2775 119.75L124.823 106.209C125.41 106.058 126.033 106.146 126.555 106.454C127.077 106.761 127.455 107.264 127.606 107.85C127.758 108.437 127.67 109.059 127.362 109.581C127.054 110.102 126.551 110.48 125.964 110.632Z" fill="#FAF6F0"/>
<path d="M137.019 115.742L75.3451 131.635C75.0544 131.71 74.7518 131.727 74.4544 131.686C74.1571 131.644 73.8709 131.544 73.6122 131.392C73.3535 131.239 73.1274 131.038 72.9468 130.798C72.7662 130.558 72.6347 130.285 72.5597 129.995C72.4847 129.704 72.4678 129.402 72.5098 129.104C72.5519 128.807 72.6521 128.521 72.8048 128.263C72.9575 128.005 73.1597 127.779 73.3997 127.599C73.6398 127.418 73.913 127.287 74.2039 127.213L135.877 111.319C136.464 111.168 137.087 111.256 137.609 111.564C138.131 111.872 138.509 112.374 138.661 112.96C138.812 113.547 138.724 114.169 138.416 114.691C138.108 115.213 137.605 115.591 137.019 115.742Z" fill="#FAF6F0"/>
<path d="M47.1871 71.1655L28.5918 75.9575C28.3104 76.0297 28.0118 75.9874 27.7616 75.8399C27.5114 75.6924 27.3299 75.4517 27.2571 75.1707L22.9886 58.6299C22.9163 58.3487 22.9587 58.0503 23.1063 57.8003C23.2539 57.5503 23.4947 57.369 23.776 57.2961L42.3713 52.5042C42.6527 52.432 42.9513 52.4743 43.2015 52.6218C43.4517 52.7693 43.6331 53.01 43.706 53.291L47.9745 69.8318C48.0468 70.113 48.0044 70.4113 47.8568 70.6614C47.7092 70.9114 47.4683 71.0927 47.1871 71.1655Z" fill="#E6E6E6"/>
<path d="M55.818 104.611L37.2226 109.403C36.9412 109.475 36.6427 109.433 36.3925 109.285C36.1422 109.138 35.9608 108.897 35.888 108.616L31.6194 92.0752C31.5472 91.794 31.5895 91.4956 31.7371 91.2456C31.8848 90.9956 32.1256 90.8143 32.4068 90.7415L51.0022 85.9495C51.2836 85.8773 51.5821 85.9196 51.8323 86.0671C52.0826 86.2146 52.264 86.4553 52.3368 86.7363L56.6054 103.277C56.6776 103.558 56.6353 103.857 56.4877 104.107C56.34 104.357 56.0992 104.538 55.818 104.611Z" fill="#E6E6E6"/>
<path d="M64.4488 138.056L45.8535 142.848C45.5721 142.92 45.2735 142.878 45.0233 142.731C44.7731 142.583 44.5917 142.342 44.5188 142.061L40.2503 125.521C40.178 125.239 40.2204 124.941 40.368 124.691C40.5156 124.441 40.7565 124.26 41.0377 124.187L59.633 119.395C59.9144 119.323 60.213 119.365 60.4632 119.512C60.7134 119.66 60.8949 119.901 60.9677 120.182L65.2363 136.722C65.3085 137.004 65.2662 137.302 65.1185 137.552C64.9709 137.802 64.7301 137.983 64.4488 138.056Z" fill="#E6E6E6"/>
<path d="M186.676 31.3418H79.3684C75.7301 31.3459 72.242 32.792 69.6693 35.3628C67.0967 37.9337 65.6496 41.4193 65.6455 45.055V170.967C65.6496 174.603 67.0967 178.088 69.6693 180.659C72.242 183.23 75.7301 184.676 79.3684 184.68H186.676C190.314 184.676 193.802 183.23 196.375 180.659C198.947 178.088 200.394 174.603 200.398 170.967V45.055C200.394 41.4193 198.947 37.9337 196.375 35.3628C193.802 32.792 190.314 31.3459 186.676 31.3418Z" fill="#E6E6E6"/>
<path d="M186.676 35.29H79.3691C76.7782 35.2929 74.2942 36.3227 72.4622 38.1535C70.6301 39.9842 69.5996 42.4664 69.5967 45.0555V170.968C69.5996 173.557 70.6301 176.039 72.4622 177.87C74.2942 179.7 76.7782 180.73 79.3691 180.733H186.676C189.267 180.73 191.751 179.7 193.583 177.87C195.415 176.039 196.446 173.557 196.449 170.968V45.0555C196.446 42.4665 195.415 39.9843 193.583 38.1535C191.751 36.3228 189.267 35.293 186.676 35.29Z" fill="white"/>
<path d="M197.949 200C211.784 200 223 188.793 223 174.967C223 161.142 211.784 149.935 197.949 149.935C184.114 149.935 172.898 161.142 172.898 174.967C172.898 188.793 184.114 200 197.949 200Z" fill="#A86523"/>
<path d="M209.93 171.702H201.217V162.995C201.217 162.129 200.873 161.298 200.26 160.686C199.647 160.074 198.816 159.729 197.949 159.729C197.083 159.729 196.252 160.074 195.639 160.686C195.026 161.298 194.682 162.129 194.682 162.995V171.702H185.969C185.102 171.702 184.271 172.046 183.658 172.658C183.045 173.27 182.701 174.101 182.701 174.967C182.701 175.833 183.045 176.663 183.658 177.276C184.271 177.888 185.102 178.232 185.969 178.232H194.682V186.939C194.682 187.805 195.026 188.636 195.639 189.248C196.252 189.86 197.083 190.204 197.949 190.204C198.816 190.204 199.647 189.86 200.26 189.248C200.873 188.636 201.217 187.805 201.217 186.939V178.232H209.93C210.797 178.232 211.628 177.888 212.24 177.276C212.853 176.663 213.198 175.833 213.198 174.967C213.198 174.101 212.853 173.27 212.24 172.658C211.628 172.046 210.797 171.702 209.93 171.702Z" fill="white"/>
<path d="M170.526 104.478H116.261C115.961 104.479 115.664 104.42 115.386 104.305C115.109 104.191 114.856 104.022 114.644 103.81C114.431 103.598 114.263 103.346 114.148 103.069C114.033 102.792 113.974 102.495 113.974 102.195C113.974 101.895 114.033 101.597 114.148 101.32C114.263 101.043 114.431 100.791 114.644 100.579C114.856 100.367 115.109 100.199 115.386 100.084C115.664 99.9696 115.961 99.9108 116.261 99.9111H170.526C171.132 99.9118 171.712 100.153 172.14 100.581C172.568 101.009 172.809 101.59 172.809 102.195C172.809 102.8 172.568 103.38 172.14 103.809C171.712 104.237 171.132 104.478 170.526 104.478Z" fill="#E6E6E6"/>
<path d="M179.953 112.185H116.261C115.961 112.186 115.664 112.127 115.386 112.012C115.109 111.898 114.856 111.73 114.644 111.517C114.431 111.305 114.263 111.053 114.148 110.776C114.033 110.499 113.974 110.202 113.974 109.902C113.974 109.602 114.033 109.305 114.148 109.027C114.263 108.75 114.431 108.498 114.644 108.286C114.856 108.074 115.109 107.906 115.386 107.791C115.664 107.677 115.961 107.618 116.261 107.618H179.953C180.559 107.618 181.14 107.859 181.568 108.287C181.997 108.715 182.238 109.296 182.238 109.902C182.238 110.507 181.997 111.088 181.568 111.517C181.14 111.945 180.559 112.185 179.953 112.185Z" fill="#E6E6E6"/>
<path d="M170.526 139.017H116.261C115.961 139.018 115.664 138.959 115.386 138.844C115.109 138.73 114.856 138.562 114.644 138.349C114.431 138.137 114.263 137.886 114.148 137.608C114.033 137.331 113.974 137.034 113.974 136.734C113.974 136.434 114.033 136.137 114.148 135.859C114.263 135.582 114.431 135.33 114.644 135.118C114.856 134.906 115.109 134.738 115.386 134.623C115.664 134.509 115.961 134.45 116.261 134.45H170.526C171.132 134.45 171.713 134.691 172.142 135.119C172.57 135.547 172.811 136.128 172.811 136.734C172.811 137.339 172.57 137.92 172.142 138.349C171.713 138.777 171.132 139.017 170.526 139.017Z" fill="#E6E6E6"/>
<path d="M179.952 146.725H116.261C115.961 146.726 115.664 146.667 115.386 146.552C115.109 146.438 114.856 146.27 114.644 146.057C114.431 145.845 114.263 145.594 114.148 145.316C114.033 145.039 113.974 144.742 113.974 144.442C113.974 144.142 114.033 143.845 114.148 143.567C114.263 143.29 114.431 143.038 114.644 142.826C114.856 142.614 115.109 142.446 115.386 142.331C115.664 142.217 115.961 142.158 116.261 142.158H179.952C180.253 142.158 180.55 142.217 180.828 142.331C181.105 142.446 181.358 142.614 181.57 142.826C181.783 143.038 181.951 143.29 182.066 143.567C182.181 143.845 182.24 144.142 182.24 144.442C182.24 144.742 182.181 145.039 182.066 145.316C181.951 145.594 181.783 145.845 181.57 146.057C181.358 146.27 181.105 146.438 180.828 146.552C180.55 146.667 180.253 146.726 179.952 146.725Z" fill="#E6E6E6"/>
<path d="M104.106 115.684H84.9024C84.6119 115.684 84.3334 115.568 84.1279 115.363C83.9225 115.158 83.807 114.879 83.8066 114.589V97.5071C83.807 97.2168 83.9225 96.9385 84.1279 96.7332C84.3334 96.5279 84.6119 96.4124 84.9024 96.4121H104.106C104.397 96.4124 104.675 96.5279 104.881 96.7332C105.086 96.9385 105.202 97.2168 105.202 97.5071V114.589C105.202 114.879 105.086 115.158 104.881 115.363C104.675 115.568 104.397 115.684 104.106 115.684Z" fill="#E6E6E6"/>
<path d="M104.106 150.224H84.9024C84.6119 150.224 84.3334 150.108 84.1279 149.903C83.9225 149.698 83.807 149.419 83.8066 149.129V132.047C83.807 131.757 83.9225 131.479 84.1279 131.273C84.3334 131.068 84.6119 130.952 84.9024 130.952H104.106C104.397 130.952 104.675 131.068 104.881 131.273C105.086 131.479 105.202 131.757 105.202 132.047V149.129C105.202 149.419 105.086 149.698 104.881 149.903C104.675 150.108 104.397 150.224 104.106 150.224Z" fill="#E6E6E6"/>
<path d="M170.586 66.0291H130.579C129.973 66.0291 129.392 65.7885 128.963 65.3603C128.535 64.932 128.294 64.3512 128.294 63.7455C128.294 63.1399 128.535 62.559 128.963 62.1308C129.392 61.7025 129.973 61.4619 130.579 61.4619H170.586C171.192 61.4619 171.774 61.7025 172.202 62.1308C172.631 62.559 172.871 63.1399 172.871 63.7455C172.871 64.3512 172.631 64.932 172.202 65.3603C171.774 65.7885 171.192 66.0291 170.586 66.0291Z" fill="#7C6B5B"/>
<path d="M180.013 73.7362H130.579C130.279 73.7362 129.982 73.6771 129.705 73.5623C129.427 73.4476 129.175 73.2794 128.963 73.0673C128.751 72.8553 128.583 72.6035 128.468 72.3265C128.353 72.0494 128.294 71.7524 128.294 71.4526C128.294 71.1527 128.353 70.8557 128.468 70.5787C128.583 70.3016 128.751 70.0498 128.963 69.8378C129.175 69.6257 129.427 69.4575 129.705 69.3428C129.982 69.228 130.279 69.1689 130.579 69.1689H180.013C180.619 69.1689 181.2 69.4095 181.629 69.8378C182.057 70.2661 182.298 70.8469 182.298 71.4526C182.298 72.0582 182.057 72.6391 181.629 73.0673C181.2 73.4956 180.619 73.7362 180.013 73.7362Z" fill="#7C6B5B"/>
<path d="M121.725 83.0759H84.8419C84.5513 83.0756 84.2728 82.9601 84.0674 82.7548C83.862 82.5496 83.7464 82.2712 83.7461 81.9809V53.2161C83.7464 52.9258 83.862 52.6474 84.0674 52.4422C84.2728 52.2369 84.5513 52.1214 84.8419 52.1211H121.725C122.015 52.1214 122.294 52.2369 122.499 52.4422C122.705 52.6474 122.82 52.9258 122.821 53.2161V81.9809C122.82 82.2712 122.705 82.5496 122.499 82.7548C122.294 82.9601 122.015 83.0756 121.725 83.0759Z" fill="#A86523"/>
</g>
<defs>
<clipPath id="clip0_554_4303">
<rect width="223" height="200" fill="white"/>
</clipPath>
</defs>
</svg>
