<svg width="380" height="247" viewBox="0 0 380 247" fill="none" xmlns="http://www.w3.org/2000/svg">
<g clip-path="url(#clip0_120_532)">
<path d="M290.135 233.176L309.918 203.745L290.175 236.342L290.217 239.654C288.772 239.665 287.342 239.641 285.926 239.582L286.907 197.012L286.88 196.683L286.916 196.62L287.01 192.597L265.345 161.129L286.985 189.586L287.061 190.437L287.803 158.273L269.089 125.648L287.856 152.623L287.66 85.9877L287.66 85.7659L287.667 85.984L288.909 138.501L305.964 117.169L288.965 143.026L289.337 171.795L305.031 143.717L289.395 176.025L289.602 192.022L312.425 152.91L289.671 197.603L290.135 233.176Z" fill="#7C6B5B"/>
<path d="M356.715 234.103L376.499 204.672L356.755 237.269L356.797 240.581C355.352 240.592 353.922 240.568 352.506 240.509L353.487 197.939L353.46 197.61L353.496 197.547L353.59 193.524L331.925 162.056L353.565 190.513L353.641 191.363L354.383 159.2L335.67 126.575L354.436 153.55L354.24 86.9147L354.24 86.6929L354.247 86.9111L355.489 139.428L372.544 118.096L355.545 143.953L355.917 172.722L371.611 144.644L355.975 176.952L356.182 192.949L379.005 153.837L356.251 198.53L356.715 234.103Z" fill="#7C6B5B"/>
<path d="M156.57 -0.497375H38.1826V159.696H156.57V-0.497375Z" fill="#7C6B5B"/>
<path d="M152.398 5.14752H42.3545V154.051H152.398V5.14752Z" fill="white"/>
<path d="M137.934 31.2648H57.1715C56.5174 31.2639 55.8903 31.0034 55.428 30.5403C54.9657 30.0773 54.7061 29.4496 54.7061 28.7951C54.7061 28.1407 54.9657 27.513 55.428 27.05C55.8903 26.5869 56.5174 26.3264 57.1715 26.3255H137.934C138.259 26.3251 138.58 26.3886 138.88 26.5126C139.18 26.6365 139.452 26.8183 139.682 27.0477C139.911 27.2771 140.094 27.5495 140.218 27.8493C140.342 28.1492 140.406 28.4706 140.406 28.7951C140.406 29.1197 140.342 29.4411 140.218 29.741C140.094 30.0408 139.911 30.3132 139.682 30.5426C139.452 30.772 139.18 30.9538 138.88 31.0777C138.58 31.2017 138.259 31.2652 137.934 31.2648Z" fill="#7C6B5B"/>
<path d="M137.934 56.6669H57.1715C56.5174 56.666 55.8903 56.4054 55.428 55.9424C54.9657 55.4793 54.7061 54.8516 54.7061 54.1972C54.7061 53.5428 54.9657 52.9151 55.428 52.4521C55.8903 51.989 56.5174 51.7284 57.1715 51.7276H137.934C138.259 51.7271 138.58 51.7907 138.88 51.9146C139.18 52.0385 139.452 52.2204 139.682 52.4498C139.911 52.6791 140.094 52.9515 140.218 53.2514C140.342 53.5512 140.406 53.8726 140.406 54.1972C140.406 54.5218 140.342 54.8432 140.218 55.1431C140.094 55.4429 139.911 55.7153 139.682 55.9447C139.452 56.174 139.18 56.3559 138.88 56.4798C138.58 56.6037 138.259 56.6673 137.934 56.6669Z" fill="#7C6B5B"/>
<path d="M137.934 82.0689H57.1715C56.5174 82.0681 55.8903 81.8075 55.428 81.3445C54.9657 80.8814 54.7061 80.2537 54.7061 79.5993C54.7061 78.9449 54.9657 78.3172 55.428 77.8541C55.8903 77.3911 56.5174 77.1305 57.1715 77.1296H137.934C138.259 77.1292 138.58 77.1928 138.88 77.3167C139.18 77.4406 139.452 77.6225 139.682 77.8518C139.911 78.0812 140.094 78.3536 140.218 78.6534C140.342 78.9533 140.406 79.2747 140.406 79.5993C140.406 79.9239 140.342 80.2453 140.218 80.5451C140.094 80.845 139.911 81.1174 139.682 81.3467C139.452 81.5761 139.18 81.758 138.88 81.8819C138.58 82.0058 138.259 82.0694 137.934 82.0689Z" fill="#7C6B5B"/>
<path d="M137.934 107.471H57.1715C56.5174 107.47 55.8903 107.21 55.428 106.747C54.9657 106.283 54.7061 105.656 54.7061 105.001C54.7061 104.347 54.9657 103.719 55.428 103.256C55.8903 102.793 56.5174 102.533 57.1715 102.532H137.934C138.259 102.531 138.58 102.595 138.88 102.719C139.18 102.843 139.452 103.025 139.682 103.254C139.911 103.483 140.094 103.756 140.218 104.056C140.342 104.355 140.406 104.677 140.406 105.001C140.406 105.326 140.342 105.647 140.218 105.947C140.094 106.247 139.911 106.519 139.682 106.749C139.452 106.978 139.18 107.16 138.88 107.284C138.58 107.408 138.259 107.471 137.934 107.471Z" fill="#7C6B5B"/>
<path d="M137.934 132.873H57.1715C56.5174 132.872 55.8903 132.612 55.428 132.149C54.9657 131.686 54.7061 131.058 54.7061 130.403C54.7061 129.749 54.9657 129.121 55.428 128.658C55.8903 128.195 56.5174 127.935 57.1715 127.934H137.934C138.259 127.933 138.58 127.997 138.88 128.121C139.18 128.245 139.452 128.427 139.682 128.656C139.911 128.885 140.094 129.158 140.218 129.458C140.342 129.757 140.406 130.079 140.406 130.403C140.406 130.728 140.342 131.049 140.218 131.349C140.094 131.649 139.911 131.922 139.682 132.151C139.452 132.38 139.18 132.562 138.88 132.686C138.58 132.81 138.259 132.874 137.934 132.873Z" fill="#7C6B5B"/>
<path d="M123.827 31.2648H56.8189C56.4944 31.2652 56.1731 31.2017 55.8732 31.0777C55.5733 30.9538 55.3007 30.772 55.0711 30.5426C54.8416 30.3132 54.6594 30.0408 54.5352 29.741C54.4109 29.4411 54.3469 29.1197 54.3469 28.7951C54.3469 28.4706 54.4109 28.1492 54.5352 27.8493C54.6594 27.5495 54.8416 27.2771 55.0711 27.0477C55.3007 26.8183 55.5733 26.6365 55.8732 26.5126C56.1731 26.3886 56.4944 26.3251 56.8189 26.3255H123.827C124.481 26.3264 125.108 26.5869 125.571 27.05C126.033 27.513 126.293 28.1407 126.293 28.7951C126.293 29.4496 126.033 30.0773 125.571 30.5403C125.108 31.0034 124.481 31.2639 123.827 31.2648Z" fill="#A86523"/>
<path d="M103.019 56.6669H56.8188C56.1641 56.6669 55.5361 56.4067 55.0732 55.9435C54.6102 55.4804 54.3501 54.8522 54.3501 54.1972C54.3501 53.5422 54.6102 52.9141 55.0732 52.4509C55.5361 51.9878 56.1641 51.7276 56.8188 51.7276H103.019C103.344 51.7271 103.665 51.7907 103.965 51.9146C104.265 52.0385 104.537 52.2204 104.767 52.4498C104.997 52.6791 105.179 52.9515 105.303 53.2514C105.427 53.5512 105.491 53.8726 105.491 54.1972C105.491 54.5218 105.427 54.8432 105.303 55.1431C105.179 55.4429 104.997 55.7153 104.767 55.9447C104.537 56.174 104.265 56.3559 103.965 56.4798C103.665 56.6037 103.344 56.6673 103.019 56.6669Z" fill="#A86523"/>
<path d="M77.6267 82.0689H56.8189C56.4944 82.0694 56.1731 82.0058 55.8732 81.8819C55.5733 81.758 55.3007 81.5761 55.0711 81.3467C54.8416 81.1174 54.6594 80.845 54.5352 80.5451C54.4109 80.2453 54.3469 79.9239 54.3469 79.5993C54.3469 79.2747 54.4109 78.9533 54.5352 78.6534C54.6594 78.3536 54.8416 78.0812 55.0711 77.8518C55.3007 77.6225 55.5733 77.4406 55.8732 77.3167C56.1731 77.1928 56.4944 77.1292 56.8189 77.1296H77.6267C78.2809 77.1305 78.908 77.3911 79.3703 77.8541C79.8325 78.3172 80.0922 78.9449 80.0922 79.5993C80.0922 80.2537 79.8325 80.8814 79.3703 81.3445C78.908 81.8075 78.2809 82.0681 77.6267 82.0689Z" fill="#A86523"/>
<path d="M130.175 107.471H56.8188C56.1641 107.471 55.5361 107.211 55.0732 106.748C54.6102 106.285 54.3501 105.656 54.3501 105.001C54.3501 104.346 54.6102 103.718 55.0732 103.255C55.5361 102.792 56.1641 102.532 56.8188 102.532H130.175C130.83 102.532 131.458 102.792 131.921 103.255C132.384 103.718 132.644 104.346 132.644 105.001C132.644 105.656 132.384 106.285 131.921 106.748C131.458 107.211 130.83 107.471 130.175 107.471Z" fill="#A86523"/>
<path d="M113.952 132.873H56.8189C56.4944 132.874 56.1731 132.81 55.8732 132.686C55.5733 132.562 55.3007 132.38 55.0711 132.151C54.8416 131.922 54.6594 131.649 54.5352 131.349C54.4109 131.049 54.3469 130.728 54.3469 130.403C54.3469 130.079 54.4109 129.757 54.5352 129.458C54.6594 129.158 54.8416 128.885 55.0711 128.656C55.3007 128.427 55.5733 128.245 55.8732 128.121C56.1731 127.997 56.4944 127.933 56.8189 127.934H113.952C114.277 127.933 114.598 127.997 114.898 128.121C115.198 128.245 115.47 128.427 115.7 128.656C115.93 128.885 116.112 129.158 116.236 129.458C116.36 129.757 116.424 130.079 116.424 130.403C116.424 130.728 116.36 131.049 116.236 131.349C116.112 131.649 115.93 131.922 115.7 132.151C115.47 132.38 115.198 132.562 114.898 132.686C114.598 132.81 114.277 132.874 113.952 132.873Z" fill="#A86523"/>
<path d="M377.153 239.657H-0.994873V240.508H377.153V239.657Z" fill="#3F3D56"/>
<path d="M214.476 114.91C214.476 114.91 211.8 95.2737 207.339 100.629C202.878 105.984 207.339 114.017 207.339 114.017L210.907 118.48L214.476 115.802V114.91Z" fill="#9F616A"/>
<path d="M225.183 121.157C225.183 121.157 216.26 111.339 214.476 113.124C212.692 114.91 207.338 115.802 208.231 119.372C209.123 122.942 227.859 134.545 227.859 134.545L225.183 121.157Z" fill="#A86523"/>
<path opacity="0.1" d="M225.183 121.157C225.183 121.157 216.26 111.339 214.476 113.124C212.692 114.91 207.338 115.802 208.231 119.372C209.123 122.942 227.859 134.545 227.859 134.545L225.183 121.157Z" fill="#2C1A0A"/>
<path d="M276.039 120.265V127.405C276.039 127.405 276.931 143.471 271.577 142.578C266.224 141.686 268.901 128.298 268.901 128.298L269.793 120.265L276.039 120.265Z" fill="#9F616A"/>
<path d="M273.362 172.032C273.362 172.032 281.392 184.528 284.068 185.42C286.745 186.313 301.02 194.346 302.805 202.379L315.296 218.444L309.05 226.477C309.05 226.477 280.499 196.131 272.47 193.453C264.44 190.776 256.41 177.387 256.41 177.387L273.362 172.032Z" fill="#9F616A"/>
<path d="M210.015 151.504C210.015 151.504 193.063 154.181 195.74 164.892C198.416 175.602 224.29 197.916 224.29 197.916L225.183 203.271L234.997 205.056L239.458 200.593L238.566 197.916C238.566 197.916 227.859 188.098 226.967 184.528C226.075 180.958 216.261 166.677 211.799 165.784L218.045 162.214L210.015 151.504Z" fill="#9F616A"/>
<path d="M312.619 218.444C312.619 218.444 309.05 213.089 314.403 213.982C319.757 214.874 323.325 215.767 323.325 219.337C323.325 222.907 318.864 247.898 313.511 246.113C308.158 244.328 312.619 236.295 312.619 236.295C312.619 236.295 309.942 229.155 308.158 228.262C306.373 227.37 306.373 222.907 308.158 222.907C309.942 222.907 313.511 220.229 312.619 218.444Z" fill="#2C1A0A"/>
<path d="M236.781 198.808C236.781 198.808 236.781 194.346 240.35 198.808C243.919 203.271 245.703 206.841 242.134 209.519C238.566 212.197 226.075 218.444 226.075 218.444C226.075 218.444 212.692 221.122 214.476 214.874C214.476 214.874 223.398 210.411 223.398 206.841C223.398 203.271 223.398 197.023 226.075 198.808C228.751 200.594 236.781 201.486 236.781 198.808Z" fill="#2C1A0A"/>
<path d="M253.733 131.868C253.733 131.868 266.224 133.653 265.332 151.504C265.332 151.504 281.392 167.569 276.931 172.925C272.47 178.28 262.655 188.098 259.086 185.42C255.518 182.743 244.811 162.214 244.811 162.214C244.811 162.214 219.829 171.14 215.368 166.677C210.907 162.214 206.446 151.504 206.446 151.504L228.751 139.901L253.733 131.868Z" fill="#2C1A0A"/>
<path d="M218.937 80.993C224.85 80.993 229.644 76.1978 229.644 70.2825C229.644 64.3673 224.85 59.572 218.937 59.572C213.024 59.572 208.231 64.3673 208.231 70.2825C208.231 76.1978 213.024 80.993 218.937 80.993Z" fill="#9F616A"/>
<path d="M226.967 71.1751C226.967 71.1751 233.212 80.993 234.997 81.8856C236.781 82.7781 222.506 91.7035 222.506 91.7035C222.506 91.7035 222.506 80.1005 218.045 77.4229L226.967 71.1751Z" fill="#9F616A"/>
<path d="M227.859 80.993C227.859 80.993 242.135 76.5303 244.811 83.6707C247.488 90.811 253.733 104.199 252.841 113.125C251.949 122.05 250.164 120.265 252.841 122.942C255.518 125.62 257.302 123.835 256.41 127.405C255.518 130.975 254.625 130.975 255.518 132.76C256.41 134.545 244.811 140.793 234.997 141.686L225.183 142.578C225.183 142.578 225.183 126.513 223.398 122.942C221.614 119.372 218.045 112.232 218.045 109.554V102.47C218.045 97.754 219.275 93.1201 221.614 89.0259C221.614 89.0259 226.967 80.993 227.859 80.993Z" fill="#A86523"/>
<path d="M238.566 84.5632C238.566 84.5632 271.577 87.2408 275.146 96.1662C278.715 105.092 280.499 122.942 276.931 122.942C273.362 122.942 268.901 124.728 268.009 122.942C267.116 121.157 263.547 103.307 262.655 103.307C261.763 103.307 234.997 100.629 234.997 100.629C234.997 100.629 223.398 86.3483 238.566 84.5632Z" fill="#A86523"/>
<path d="M218.507 67.6273C218.507 67.6273 215.666 62.688 212.114 66.9782C208.563 71.2684 202.785 63.3844 203.672 61.7021C204.559 60.0198 207.691 61.7777 213.059 60.0224C218.426 58.2671 228.766 54.6912 230.498 66.3559C232.229 78.0206 228.105 76.7977 228.105 76.7977C228.105 76.7977 226.215 66.4615 224.506 69.4305L222.798 72.3995L221.316 72.7644L218.507 67.6273Z" fill="#2C1A0A"/>
</g>
<defs>
<clipPath id="clip0_120_532">
<rect width="380" height="246.702" fill="white"/>
</clipPath>
</defs>
</svg>
