<svg width="267" height="200" viewBox="0 0 267 200" fill="none" xmlns="http://www.w3.org/2000/svg">
<g clip-path="url(#clip0_123_4554)">
<path d="M267 199.423C267 199.743 266.743 200 266.423 200H0.577061C0.257011 200 0 199.743 0 199.423C0 199.103 0.257011 198.846 0.577061 198.846H266.423C266.743 198.846 267 199.103 267 199.423Z" fill="#2C1A0A"/>
<path d="M211.747 41.113H55.3181C53.1561 41.113 51.3971 39.3541 51.3971 37.1921V25.1407C51.3971 22.9787 53.1561 21.2198 55.3181 21.2198H211.747C213.909 21.2198 215.668 22.9787 215.668 25.1407V37.1921C215.668 39.3541 213.909 41.113 211.747 41.113Z" fill="white" stroke="#E6D8C3" stroke-width="2" stroke-linecap="round" stroke-linejoin="round"/>
<path d="M211.747 115.405H55.3181C53.1561 115.405 51.3971 113.646 51.3971 111.484V99.4322C51.3971 97.2702 53.1561 95.5112 55.3181 95.5112H211.747C213.909 95.5112 215.668 97.2702 215.668 99.4322V111.484C215.668 113.646 213.909 115.405 211.747 115.405Z" fill="white" stroke="#E6D8C3" stroke-width="2" stroke-linecap="round" stroke-linejoin="round"/>
<path d="M100.699 168.745H54.8333C52.6712 168.745 50.9122 166.986 50.9122 164.824V152.773C50.9122 150.611 52.6712 148.852 54.8333 148.852H100.699C102.861 148.852 104.62 150.611 104.62 152.773V164.824C104.62 166.986 102.861 168.745 100.699 168.745Z" fill="#A86523"/>
<path d="M51.7407 0.484924H86.0492" stroke="#E6D8C3" stroke-width="2" stroke-linecap="round" stroke-linejoin="round"/>
<path d="M51.7407 74.7764H115.472" stroke="#E6D8C3" stroke-width="2" stroke-linecap="round" stroke-linejoin="round"/>
<path d="M192.822 178.08L187.427 181.529L192.319 189.181L197.714 185.732L192.822 178.08Z" fill="#F1A1A4"/>
<path d="M175.712 75.2109L168.897 77.5381L168.79 67.6978L174.992 67.6286L175.712 75.2109Z" fill="#F1A1A4"/>
<path d="M169.585 70.415C173.349 70.415 176.4 67.3638 176.4 63.6C176.4 59.8362 173.349 56.785 169.585 56.785C165.821 56.785 162.77 59.8362 162.77 63.6C162.77 67.3638 165.821 70.415 169.585 70.415Z" fill="#F1A1A4"/>
<path d="M171.45 62.905C170.312 62.8829 169.548 61.7413 169.092 60.6909C168.635 59.6468 168.167 58.4392 167.107 58.0146C166.239 57.6687 164.742 60.084 164.05 59.455C163.33 58.7977 163.987 55.3635 164.739 54.744C165.491 54.1244 166.522 53.9923 167.491 53.9326C169.865 53.7973 172.252 53.9609 174.586 54.4232C176.026 54.7062 177.517 55.1433 178.564 56.1717C179.895 57.4769 180.253 59.4644 180.366 61.3231C180.486 63.2257 180.395 65.2196 179.489 66.899C178.58 68.5752 176.658 69.8237 174.793 69.4212C174.595 68.4117 174.771 67.377 174.834 66.3455C174.897 65.3202 174.806 64.2132 174.171 63.4019C173.535 62.5905 172.196 62.2823 171.475 63.015" fill="#2C1A0A"/>
<path d="M179.86 65.1724C180.536 64.6661 181.344 64.2384 182.184 64.3327C183.093 64.4302 183.867 65.1724 184.109 66.053C184.351 66.9335 184.099 67.9085 183.549 68.6381C182.999 69.3677 182.171 69.852 181.291 70.1005C180.781 70.2451 180.225 70.3049 179.734 70.1005C179.014 69.7986 178.618 68.8897 178.891 68.1569" fill="#2C1A0A"/>
<path d="M154.499 129.555C154.071 131.797 154.923 133.835 156.408 134.102C157.889 134.37 159.44 132.766 159.87 130.523C160.056 129.63 160.015 128.706 159.751 127.828L164.994 92.6808L157.93 91.4355L155.606 127.086C155.037 127.816 154.656 128.662 154.499 129.564L154.499 129.555Z" fill="#F1A1A4"/>
<path d="M168.771 73.0221L163.959 73.0756C160.562 73.6259 159.66 75.4531 158.927 78.8119C157.804 83.9349 156.37 90.7625 156.672 90.8568C157.153 91.0141 165.384 94.7754 169.551 93.8445L168.774 73.0221L168.771 73.0221Z" fill="#A86523"/>
<path d="M174.681 184.733L168.278 184.804L168.379 193.886L174.782 193.815L174.681 184.733Z" fill="#F1A1A4"/>
<path d="M162.188 199.456C161.512 199.466 160.918 199.456 160.465 199.419C158.76 199.283 157.128 198.044 156.301 197.321C155.93 196.997 155.807 196.469 155.993 196.016C156.125 195.692 156.395 195.444 156.735 195.34L161.217 194.006L168.441 189.015L168.522 189.16C168.554 189.214 169.283 190.493 169.532 191.361C169.626 191.692 169.607 191.965 169.469 192.179C169.375 192.327 169.243 192.415 169.136 192.468C169.268 192.604 169.683 192.88 170.96 193.069C172.815 193.346 173.189 191.415 173.202 191.333L173.215 191.267L173.268 191.229C174.146 190.648 174.683 190.387 174.872 190.44C174.992 190.471 175.183 190.531 175.768 195.764C175.822 195.928 176.206 197.129 175.966 198.287C175.709 199.544 170.221 199.17 169.126 199.085C169.095 199.088 164.994 199.428 162.182 199.456H162.191L162.188 199.456Z" fill="#2C1A0A"/>
<path d="M185.829 197.947C185.077 197.956 184.386 197.871 183.892 197.79C183.407 197.708 183.024 197.327 182.942 196.843C182.879 196.494 182.983 196.145 183.213 195.881L186.307 192.377L189.792 184.32L189.94 184.399C189.993 184.427 191.289 185.128 191.962 185.732C192.217 185.962 192.346 186.204 192.346 186.462C192.346 186.638 192.279 186.783 192.213 186.88C192.399 186.924 192.896 186.937 194.078 186.424C195.799 185.676 195.094 183.839 195.063 183.767L195.038 183.704L195.066 183.647C195.503 182.691 195.824 182.182 196.009 182.125C196.129 182.093 196.321 182.034 199.588 186.166C199.72 186.276 200.683 187.091 201.092 188.198C201.535 189.402 196.689 191.987 195.708 192.494C195.679 192.519 190.613 196.283 188.531 197.362C187.704 197.79 186.719 197.931 185.823 197.937L185.832 197.947L185.829 197.947Z" fill="#2C1A0A"/>
<path d="M178.539 108.71L160.613 108.909L159.172 125.602L166.975 187.141L176.127 187.037L172.073 151.49L187.276 183.458L195.346 177.672L183.42 147.801C183.42 147.801 187.273 121.623 183.945 115.151C180.621 108.679 178.542 108.701 178.542 108.701V108.71L178.539 108.71Z" fill="#2C1A0A"/>
<path d="M187.464 109.629L158.993 109.946L167.126 73.0441L179.533 72.9026L187.464 109.629Z" fill="#A86523"/>
<path d="M190.245 129.159C190.723 131.395 189.914 133.448 188.439 133.747C186.961 134.049 185.376 132.48 184.901 130.244C184.697 129.354 184.716 128.429 184.958 127.545L178.932 92.5205L185.964 91.1179L189.081 126.712C189.666 127.429 190.065 128.269 190.245 129.165V129.159Z" fill="#F1A1A4"/>
<path d="M174.724 72.956L179.536 72.9026C182.942 73.3806 183.886 75.1858 184.697 78.5288C185.933 83.6267 187.515 90.4165 187.219 90.5203C186.738 90.6838 178.599 94.6276 174.413 93.791L174.73 72.9561L174.724 72.956Z" fill="#A86523"/>
</g>
<defs>
<clipPath id="clip0_123_4554">
<rect width="267" height="200" fill="white"/>
</clipPath>
</defs>
</svg>
