<svg width="320" height="275" viewBox="0 0 320 275" fill="none" xmlns="http://www.w3.org/2000/svg">
<g clip-path="url(#clip0_171_848)">
<path d="M24.0292 252.365C25.8731 253.014 27.8529 253.176 29.7777 252.837C31.7026 252.497 33.5078 251.667 35.0192 250.426C38.8685 247.19 40.0756 241.861 41.0573 236.925L43.9618 222.326L37.881 226.519C33.5077 229.534 29.0362 232.647 26.0085 237.015C22.9808 241.382 21.6599 247.345 24.0919 252.071" fill="#E6D8C3"/>
<path d="M24.9681 271.057C24.2028 265.473 23.4153 259.816 23.9535 254.172C24.4304 249.159 25.9575 244.264 29.0664 240.249C30.7166 238.122 32.7246 236.3 35.0001 234.864C35.5933 234.489 36.1394 235.43 35.5487 235.804C31.6114 238.296 28.5659 241.976 26.8515 246.313C24.958 251.136 24.654 256.393 24.9801 261.517C25.1772 264.615 25.5962 267.693 26.0169 270.767C26.0501 270.906 26.0294 271.053 25.9589 271.177C25.8884 271.301 25.7734 271.394 25.6371 271.437C25.4981 271.474 25.35 271.455 25.2248 271.384C25.0996 271.313 25.0076 271.195 24.9685 271.056L24.9681 271.057Z" fill="white"/>
<path d="M30.4771 262.096C31.2678 263.3 32.3548 264.28 33.6333 264.941C34.9119 265.602 36.3389 265.922 37.7769 265.87C41.4733 265.695 44.5536 263.112 47.3262 260.66L55.5288 253.407L50.1002 253.146C46.1962 252.959 42.1915 252.784 38.4731 253.991C34.7547 255.198 31.3254 258.098 30.6456 261.953" fill="#E6D8C3"/>
<path d="M22.8047 274.267C26.4894 267.737 30.763 260.481 38.3999 258.161C40.5232 257.519 42.7495 257.288 44.9591 257.483C45.6556 257.543 45.4816 258.618 44.7866 258.558C41.0827 258.25 37.386 259.23 34.3187 261.332C31.3671 263.344 29.0689 266.141 27.1239 269.107C25.9324 270.925 24.8652 272.819 23.798 274.71C23.4569 275.315 22.4597 274.878 22.8047 274.267Z" fill="white"/>
<path d="M317.639 193.663H114.494C113.868 193.662 113.268 193.412 112.826 192.969C112.383 192.526 112.134 191.925 112.133 191.298V2.36462C112.134 1.73774 112.383 1.13676 112.826 0.693486C113.268 0.250212 113.868 0.000819495 114.494 0H317.639C318.265 0.000819495 318.865 0.250212 319.308 0.693486C319.75 1.13676 319.999 1.73774 320 2.36462V191.298C319.999 191.925 319.75 192.526 319.308 192.969C318.865 193.412 318.265 193.662 317.639 193.663Z" fill="white"/>
<path d="M317.639 193.663H114.494C113.868 193.662 113.268 193.412 112.826 192.969C112.383 192.526 112.134 191.925 112.133 191.298V2.36462C112.134 1.73774 112.383 1.13676 112.826 0.693486C113.268 0.250212 113.868 0.000819495 114.494 0H317.639C318.265 0.000819495 318.865 0.250212 319.308 0.693486C319.75 1.13676 319.999 1.73774 320 2.36462V191.298C319.999 191.925 319.75 192.526 319.308 192.969C318.865 193.412 318.265 193.662 317.639 193.663ZM114.494 0.943985C114.119 0.944801 113.759 1.09441 113.494 1.36007C113.229 1.62574 113.08 1.98582 113.079 2.36152V191.298C113.08 191.673 113.229 192.033 113.494 192.299C113.759 192.565 114.119 192.714 114.494 192.715H317.639C318.014 192.714 318.374 192.565 318.639 192.299C318.904 192.034 319.054 191.673 319.054 191.298V2.36462C319.053 1.98892 318.904 1.62884 318.639 1.36318C318.374 1.09752 318.014 0.947904 317.639 0.947088L114.494 0.943985Z" fill="#E6D8C3"/>
<path d="M210.484 49.0952C210.059 49.0959 209.652 49.2654 209.352 49.5664C209.052 49.8674 208.884 50.2753 208.884 50.7006C208.884 51.1258 209.052 51.5338 209.352 51.8347C209.652 52.1357 210.059 52.3052 210.484 52.3059H298.443C298.867 52.3052 299.274 52.1357 299.574 51.8347C299.874 51.5338 300.043 51.1258 300.043 50.7006C300.043 50.2753 299.874 49.8674 299.574 49.5664C299.274 49.2654 298.867 49.0959 298.443 49.0952H210.484Z" fill="#7C6B5B"/>
<path d="M210.484 58.728C210.059 58.7291 209.653 58.8986 209.353 59.1996C209.053 59.5005 208.885 59.9083 208.885 60.3334C208.885 60.7585 209.053 61.1662 209.353 61.4672C209.653 61.7681 210.059 61.9377 210.484 61.9387H255.388C255.813 61.9377 256.22 61.7681 256.519 61.4672C256.819 61.1662 256.988 60.7585 256.988 60.3334C256.988 59.9083 256.819 59.5005 256.519 59.1996C256.22 58.8986 255.813 58.7291 255.388 58.728H210.484Z" fill="#7C6B5B"/>
<path d="M133.605 110.531C133.181 110.532 132.774 110.701 132.474 111.002C132.174 111.303 132.006 111.711 132.006 112.136C132.006 112.561 132.174 112.969 132.474 113.27C132.774 113.571 133.181 113.74 133.605 113.741H298.528C298.953 113.74 299.359 113.571 299.659 113.27C299.959 112.969 300.127 112.561 300.127 112.136C300.127 111.711 299.959 111.303 299.659 111.002C299.359 110.701 298.953 110.532 298.528 110.531H133.605Z" fill="#7C6B5B"/>
<path d="M133.605 120.164C133.181 120.165 132.774 120.335 132.474 120.636C132.174 120.937 132.006 121.344 132.006 121.769C132.006 122.194 132.174 122.602 132.474 122.903C132.774 123.204 133.181 123.374 133.605 123.375H255.474C255.899 123.374 256.305 123.204 256.605 122.903C256.905 122.602 257.073 122.194 257.073 121.769C257.073 121.344 256.905 120.937 256.605 120.636C256.305 120.335 255.899 120.165 255.474 120.164H133.605Z" fill="#7C6B5B"/>
<path d="M133.605 129.579C133.181 129.58 132.774 129.75 132.474 130.051C132.174 130.352 132.006 130.759 132.006 131.184C132.006 131.61 132.174 132.017 132.474 132.318C132.774 132.619 133.181 132.789 133.605 132.79H298.528C298.953 132.789 299.359 132.619 299.659 132.318C299.959 132.017 300.127 131.61 300.127 131.184C300.127 130.759 299.959 130.352 299.659 130.051C299.359 129.75 298.953 129.58 298.528 129.579H133.605Z" fill="#7C6B5B"/>
<path d="M133.605 139.212C133.181 139.213 132.774 139.383 132.474 139.683C132.174 139.984 132.006 140.392 132.006 140.817C132.006 141.242 132.174 141.65 132.474 141.951C132.774 142.252 133.181 142.422 133.605 142.423H255.474C255.899 142.422 256.305 142.252 256.605 141.951C256.905 141.65 257.073 141.242 257.073 140.817C257.073 140.392 256.905 139.984 256.605 139.683C256.305 139.383 255.899 139.213 255.474 139.212H133.605Z" fill="#7C6B5B"/>
<path d="M133.605 148.878C133.181 148.879 132.774 149.049 132.474 149.349C132.174 149.65 132.006 150.058 132.006 150.483C132.006 150.908 132.174 151.316 132.474 151.617C132.774 151.918 133.181 152.088 133.605 152.089H298.528C298.953 152.088 299.359 151.918 299.659 151.617C299.959 151.316 300.127 150.908 300.127 150.483C300.127 150.058 299.959 149.65 299.659 149.349C299.359 149.049 298.953 148.879 298.528 148.878H133.605Z" fill="#7C6B5B"/>
<path d="M133.605 158.511C133.181 158.512 132.774 158.681 132.474 158.982C132.174 159.283 132.006 159.691 132.006 160.116C132.006 160.541 132.174 160.949 132.474 161.25C132.774 161.551 133.181 161.72 133.605 161.721H255.474C255.899 161.72 256.305 161.551 256.605 161.25C256.905 160.949 257.073 160.541 257.073 160.116C257.073 159.691 256.905 159.283 256.605 158.982C256.305 158.681 255.899 158.512 255.474 158.511H133.605Z" fill="#7C6B5B"/>
<path d="M159.727 78.5811C155.172 78.5811 150.719 77.2285 146.932 74.6941C143.145 72.1598 140.193 68.5576 138.45 64.3432C136.706 60.1287 136.25 55.4912 137.139 51.0171C138.028 46.543 140.221 42.4333 143.442 39.2077C146.663 35.982 150.766 33.7853 155.234 32.8954C159.701 32.0054 164.332 32.4621 168.54 34.2078C172.748 35.9535 176.345 38.9097 178.876 42.7027C181.407 46.4956 182.757 50.9549 182.757 55.5166C182.75 61.6315 180.322 67.494 176.004 71.8179C171.687 76.1418 165.833 78.5741 159.727 78.5811Z" fill="#A86523"/>
<path d="M89.8175 165.789C89.7777 164.948 89.554 164.125 89.1623 163.379C88.7705 162.633 88.2203 161.982 87.5502 161.472C86.8802 160.962 86.1066 160.606 85.2841 160.428C84.4615 160.249 83.61 160.254 82.7894 160.441L75.177 149.697L67.5293 152.738L78.4923 167.759C78.8976 169.119 79.7868 170.282 80.9914 171.029C82.1961 171.776 83.6325 172.055 85.0284 171.812C86.4244 171.569 87.6829 170.822 88.5656 169.712C89.4482 168.602 89.8937 167.206 89.8175 165.789Z" fill="#A0616A"/>
<path d="M74.9811 164.993L51.947 135.067L60.5777 107.902C61.2101 101.073 65.4775 99.1657 65.6591 99.0877L65.9361 98.9688L73.4464 119.026L67.932 133.753L81.4668 156.55L74.9811 164.993Z" fill="#3B2F2F"/>
<path d="M154.975 72.7408C154.14 72.8456 153.338 73.1325 152.625 73.5813C151.913 74.0301 151.308 74.6299 150.852 75.3384C150.396 76.0468 150.101 76.8468 149.987 77.6818C149.873 78.5169 149.944 79.3668 150.194 80.1716L140.086 88.6032L143.704 96.0042L157.811 83.8964C159.133 83.3866 160.223 82.4088 160.873 81.1483C161.524 79.8877 161.69 78.432 161.341 77.0569C160.991 75.6818 160.15 74.4829 158.976 73.6874C157.803 72.892 156.379 72.5551 154.975 72.7408Z" fill="#A0616A"/>
<path d="M155.329 87.616L127.317 112.929L99.6065 106.412C92.7584 106.308 90.53 102.195 90.4383 102.019L90.2985 101.752L109.686 92.7024L124.773 97.0697L146.422 81.793L155.329 87.616Z" fill="#3B2F2F"/>
<path d="M106.809 267.565L114.335 267.565L117.915 238.492L106.807 238.493L106.809 267.565Z" fill="#A0616A"/>
<path d="M128.85 274.563L105.196 274.564L105.195 265.412L122.213 265.411C123.973 265.411 125.661 266.111 126.906 267.357C128.15 268.603 128.849 270.294 128.849 272.056L128.85 274.563Z" fill="#2C1A0A"/>
<path d="M76.7275 267.565L84.2538 267.565L87.8343 238.492L76.7266 238.493L76.7275 267.565Z" fill="#A0616A"/>
<path d="M98.7689 274.563L75.1152 274.564L75.1148 265.412L92.1324 265.411C93.0039 265.411 93.8668 265.583 94.672 265.917C95.4771 266.251 96.2087 266.74 96.8249 267.357C97.4412 267.974 97.93 268.707 98.2636 269.513C98.5971 270.32 98.7688 271.184 98.7688 272.056L98.7689 274.563Z" fill="#2C1A0A"/>
<path d="M74.0508 161.447L74.6646 204.483L75.2789 261.045L88.7841 259.815L95.5372 181.736L104.132 259.815H118.075L119.479 181.121L114.568 163.907L74.0508 161.447Z" fill="#2C1A0A"/>
<path d="M100.485 167.227C85.7898 167.228 72.2632 160.567 72.0806 160.475L71.9289 160.4L70.6958 130.761C70.3382 129.714 63.2966 109.047 62.104 102.478C60.8957 95.823 78.4079 89.9823 80.5345 89.2992L81.0171 83.9454L100.642 81.8276L103.129 88.6781L110.169 91.3219C110.968 91.6219 111.628 92.2046 112.026 92.9598C112.424 93.7149 112.531 94.5899 112.328 95.4191L108.415 111.355L117.972 164.08L115.914 164.169C110.982 166.4 105.66 167.226 100.485 167.227Z" fill="#3B2F2F"/>
<path d="M98.3749 76.7022C105.222 72.9536 107.739 64.3557 103.996 57.4982C100.253 50.6408 91.6673 48.1206 84.8199 51.8692C77.9726 55.6179 75.4561 64.2158 79.1992 71.0733C82.9424 77.9307 91.5276 80.4509 98.3749 76.7022Z" fill="#A0616A"/>
<path d="M80.1534 77.985C82.8462 80.8576 87.8471 79.3155 88.1979 75.3911C88.2255 75.0864 88.2235 74.7797 88.192 74.4754C88.0108 72.7371 87.008 71.1589 87.2482 69.3234C87.3026 68.8666 87.4725 68.4312 87.7419 68.0586C89.8877 65.1809 94.9249 69.3457 96.95 66.7406C98.1918 65.1433 96.7321 62.6283 97.685 60.8429C98.9427 58.4866 102.668 59.649 105.004 58.3585C107.603 56.9227 107.448 52.9289 105.737 50.4996C103.65 47.537 99.9918 45.9562 96.3788 45.7284C92.7659 45.5005 89.1778 46.4786 85.8049 47.7951C81.9724 49.2908 78.1721 51.3579 75.8137 54.7328C72.9456 58.8369 72.6696 64.3546 74.1039 69.1536C74.9765 72.0729 77.9544 75.6391 80.1534 77.985Z" fill="#2C1A0A"/>
<path d="M179.543 274.928H0.470009C0.345355 274.928 0.225799 274.878 0.137655 274.79C0.0495111 274.702 0 274.582 0 274.457C0 274.332 0.0495111 274.212 0.137655 274.124C0.225799 274.036 0.345355 273.986 0.470009 273.986H179.543C179.668 273.986 179.788 274.036 179.876 274.124C179.964 274.212 180.013 274.332 180.013 274.457C180.013 274.582 179.964 274.702 179.876 274.79C179.788 274.878 179.668 274.928 179.543 274.928Z" fill="#E6D8C3"/>
<path d="M158.397 64.2283C157.982 64.2288 157.582 64.0714 157.278 63.788L149.684 56.724C149.365 56.4265 149.177 56.0143 149.161 55.578C149.145 55.1416 149.303 54.7168 149.599 54.3969C149.896 54.0769 150.307 53.8881 150.743 53.8717C151.179 53.8554 151.603 54.013 151.923 54.3098L158.355 60.2933L171.081 47.5485C171.234 47.3945 171.415 47.2723 171.615 47.1887C171.815 47.1051 172.029 47.0619 172.246 47.0615C172.463 47.0611 172.677 47.1035 172.877 47.1864C173.077 47.2692 173.259 47.3908 173.412 47.5442C173.566 47.6975 173.687 47.8797 173.77 48.0802C173.852 48.2806 173.895 48.4955 173.894 48.7123C173.894 48.9292 173.85 49.1439 173.767 49.344C173.683 49.5442 173.561 49.7258 173.408 49.8785L159.561 63.7459C159.408 63.8991 159.227 64.0205 159.027 64.1033C158.827 64.1861 158.613 64.2286 158.397 64.2283Z" fill="white"/>
</g>
<defs>
<clipPath id="clip0_171_848">
<rect width="320" height="275" fill="white"/>
</clipPath>
</defs>
</svg>
