<svg width="249" height="200" viewBox="0 0 249 200" fill="none" xmlns="http://www.w3.org/2000/svg">
<path d="M12.955 74.2445C9.51915 74.2445 6.22397 75.6094 3.79443 78.0389C1.3649 80.4684 0 83.7636 0 87.1995C0 90.6354 1.3649 93.9305 3.79443 96.3601C6.22397 98.7896 9.51915 100.155 12.955 100.155H109.501C112.937 100.155 116.232 98.7896 118.662 96.3601C121.091 93.9305 122.456 90.6354 122.456 87.1995C122.456 83.7636 121.091 80.4684 118.662 78.0389C116.232 75.6094 112.937 74.2445 109.501 74.2445H12.955Z" fill="#FAF6F0"/>
<path d="M12.9548 76.8662C10.2143 76.8662 7.58597 77.9549 5.64812 79.8927C3.71027 81.8306 2.62158 84.4589 2.62158 87.1994C2.62158 89.94 3.71027 92.5682 5.64812 94.5061C7.58597 96.4439 10.2143 97.5326 12.9548 97.5326H109.501C112.241 97.5326 114.869 96.4439 116.807 94.5061C118.745 92.5682 119.834 89.94 119.834 87.1994C119.834 84.4589 118.745 81.8306 116.807 79.8927C114.869 77.9549 112.241 76.8662 109.501 76.8662H12.9548Z" fill="white"/>
<path d="M34.2805 93.3782H15.0715C15.0097 93.3798 14.9483 93.369 14.8907 93.3465C14.8332 93.324 14.7808 93.2902 14.7365 93.247C14.6923 93.2039 14.6571 93.1524 14.6331 93.0954C14.6091 93.0385 14.5967 92.9773 14.5967 92.9155C14.5967 92.8537 14.6091 92.7926 14.6331 92.7357C14.6571 92.6787 14.6923 92.6272 14.7365 92.584C14.7808 92.5409 14.8332 92.5071 14.8907 92.4846C14.9483 92.462 15.0097 92.4513 15.0715 92.4529H34.2805C34.4011 92.456 34.5158 92.5061 34.6 92.5925C34.6842 92.679 34.7314 92.7949 34.7314 92.9155C34.7314 93.0362 34.6842 93.1521 34.6 93.2386C34.5158 93.325 34.4011 93.3751 34.2805 93.3782Z" fill="#A86523"/>
<path d="M58.6487 93.5323H39.4397C39.317 93.5323 39.1993 93.4836 39.1126 93.3968C39.0258 93.3101 38.9771 93.1924 38.9771 93.0697C38.9771 92.9469 39.0258 92.8293 39.1126 92.7425C39.1993 92.6557 39.317 92.607 39.4397 92.607H58.6487C58.7715 92.607 58.8892 92.6557 58.9759 92.7425C59.0627 92.8293 59.1114 92.9469 59.1114 93.0697C59.1114 93.1924 59.0627 93.3101 58.9759 93.3968C58.8892 93.4836 58.7715 93.5323 58.6487 93.5323Z" fill="#A86523"/>
<path d="M83.0163 93.6869H63.8073C63.6867 93.6837 63.572 93.6336 63.4878 93.5472C63.4036 93.4607 63.3564 93.3448 63.3564 93.2242C63.3564 93.1035 63.4036 92.9876 63.4878 92.9012C63.572 92.8147 63.6867 92.7646 63.8073 92.7615H83.0163C83.139 92.7615 83.2567 92.8102 83.3435 92.897C83.4303 92.9838 83.479 93.1015 83.479 93.2242C83.479 93.3469 83.4303 93.4646 83.3435 93.5513C83.2567 93.6381 83.139 93.6869 83.0163 93.6869Z" fill="#A86523"/>
<path d="M107.384 93.8411H88.1751C88.0524 93.8411 87.9347 93.7923 87.8479 93.7055C87.7611 93.6188 87.7124 93.5011 87.7124 93.3784C87.7124 93.2557 87.7611 93.138 87.8479 93.0512C87.9347 92.9644 88.0524 92.9157 88.1751 92.9157H107.384C107.505 92.9188 107.619 92.9689 107.704 93.0553C107.788 93.1418 107.835 93.2577 107.835 93.3784C107.835 93.499 107.788 93.615 107.704 93.7014C107.619 93.7878 107.505 93.8379 107.384 93.8411Z" fill="#A86523"/>
<path d="M24.6343 89.1202C26.6061 89.1202 28.2046 87.5217 28.2046 85.5499C28.2046 83.5781 26.6061 81.9796 24.6343 81.9796C22.6624 81.9796 21.064 83.5781 21.064 85.5499C21.064 87.5217 22.6624 89.1202 24.6343 89.1202Z" fill="#A86523"/>
<path d="M49.1494 89.1202C51.1212 89.1202 52.7197 87.5217 52.7197 85.5499C52.7197 83.5781 51.1212 81.9796 49.1494 81.9796C47.1776 81.9796 45.5791 83.5781 45.5791 85.5499C45.5791 87.5217 47.1776 89.1202 49.1494 89.1202Z" fill="#A86523"/>
<path d="M73.6645 89.1202C75.6364 89.1202 77.2348 87.5217 77.2348 85.5499C77.2348 83.5781 75.6364 81.9796 73.6645 81.9796C71.6927 81.9796 70.0942 83.5781 70.0942 85.5499C70.0942 87.5217 71.6927 89.1202 73.6645 89.1202Z" fill="#A86523"/>
<path d="M98.1792 89.1202C100.151 89.1202 101.749 87.5217 101.749 85.5499C101.749 83.5781 100.151 81.9796 98.1792 81.9796C96.2074 81.9796 94.6089 83.5781 94.6089 85.5499C94.6089 87.5217 96.2074 89.1202 98.1792 89.1202Z" fill="#A86523"/>
<path d="M111.288 186.795C110.924 186.795 110.563 186.731 110.221 186.606L87.0631 178.189C86.421 177.956 85.873 177.519 85.503 176.944C85.133 176.37 84.9613 175.69 85.0143 175.009C85.0673 174.328 85.342 173.683 85.7964 173.173C86.2508 172.663 86.8598 172.315 87.5303 172.184L151.489 159.663C152.007 159.562 152.542 159.593 153.044 159.754L170.914 165.48C171.56 165.687 172.12 166.097 172.512 166.65C172.903 167.203 173.104 167.868 173.085 168.545C173.066 169.222 172.828 169.875 172.406 170.405C171.984 170.934 171.401 171.313 170.745 171.483L112.073 186.695C111.817 186.761 111.553 186.795 111.288 186.795Z" fill="#2C1A0A"/>
<path d="M158.127 157.354L191.716 161.39L185.593 173.2L155.979 168.902C153.54 170.631 150.152 171.401 146.628 170.746C140.464 169.598 136.236 164.533 137.185 159.431C138.135 154.328 143.902 151.124 150.066 152.272C153.589 152.925 156.474 154.863 158.127 157.354Z" fill="#ED9DA0"/>
<path d="M204.766 62.5787C203.476 57.8091 200.889 53.4904 197.293 50.1021C193.697 46.7138 189.232 44.3886 184.394 43.3845C179.556 42.3805 174.534 42.7369 169.886 44.4143C165.239 46.0917 161.147 49.0243 158.065 52.8866C154.984 56.7489 153.033 61.3897 152.429 66.2938C151.826 71.1978 152.593 76.1732 154.646 80.6674C156.699 85.1617 159.958 88.999 164.06 91.7532C168.162 94.5075 172.948 96.0709 177.885 96.2699L191.785 127.893L211.488 99.8244C211.488 99.8244 204.103 94.3112 199.024 87.2165C201.943 83.9046 203.996 79.9205 204.998 75.6208C206 71.3212 205.92 66.8401 204.766 62.5787Z" fill="#ED9DA0"/>
<path d="M231.806 117.782C230.042 113.434 227.029 109.706 223.149 107.07C219.268 104.433 214.692 103.006 210.001 102.968C197.897 102.851 182.49 106.016 181.855 122.744C180.804 150.441 181.855 139.293 181.855 139.293C181.855 139.293 173.5 160.099 181.855 170.134C190.211 180.169 197.497 199.95 197.497 199.95H248.272C248.272 199.95 239.506 176.784 241.013 160.979C242.034 150.251 237.161 131.027 231.806 117.783L231.806 117.782Z" fill="#E6D8C3"/>
<path d="M246.332 113.691C244.941 116.198 240.924 116.056 238.941 113.984C236.959 111.911 236.628 108.751 236.939 105.901C237.25 103.05 238.09 100.247 238.032 97.3799C237.922 91.9089 245.058 100.85 241.392 96.7867C237.727 92.7238 233.536 88.9916 231.031 84.1264L230.729 83.8162C231.799 80.2822 229.204 76.6722 226.283 74.4148C223.362 72.1573 219.86 70.4331 217.866 67.325C216.169 64.6817 215.826 61.4309 215.083 58.3774C212.206 46.5516 202.259 36.7422 190.395 34.029C178.531 31.3159 165.309 35.8283 157.578 45.2279L157.764 44.8383C155.251 45.3839 152.938 46.6115 151.077 48.3861C149.216 50.1608 147.881 52.4139 147.217 54.898C146.854 56.3371 146.733 57.8845 147.217 59.2882C147.7 60.692 148.876 61.9176 150.342 62.15C151.914 62.3981 153.487 61.4743 154.456 60.2108C155.425 58.9473 155.908 57.3878 156.373 55.8662C157.289 59.0719 159.041 61.9764 161.449 64.2822C163.857 66.588 166.835 68.2122 170.077 68.9884C169.964 69.8642 170.089 70.7543 170.439 71.5649C170.79 72.3754 171.353 73.0763 172.068 73.5934C172.784 74.1106 173.626 74.4248 174.506 74.5029C175.386 74.581 176.27 74.4201 177.066 74.0372L177.438 73.6823L182.929 73.9305C181.453 75.9412 180.402 78.2308 179.839 80.6603C179.276 83.0898 179.212 85.6084 179.652 88.0632C180.092 90.5179 181.027 92.8576 182.399 94.9401C183.771 97.0225 185.553 98.8043 187.635 100.177C190.95 102.363 194.866 103.414 198.714 104.396C202.562 105.378 203.698 112.267 208.758 118.25C208.49 125.049 213.536 131.683 220.161 133.237L218.342 139.341C222.027 138.031 226.061 139.224 229.951 139.62C233.841 140.017 238.558 139.073 240.053 135.46C241.642 131.618 238.607 127.544 235.784 124.492C241.532 125.065 247.042 119.422 246.333 113.691H246.332Z" fill="#2C1A0A"/>
<path d="M146.398 176.241L179.107 184.881L171.41 195.731L142.674 187.38C140.02 188.756 136.557 189.05 133.159 187.914C127.212 185.925 123.725 180.324 125.37 175.402C127.016 170.481 133.171 168.104 139.119 170.092C142.517 171.228 145.106 173.546 146.399 176.242L146.398 176.241Z" fill="#ED9DA0"/>
<path d="M211.489 139.293C211.489 139.293 210.062 202.041 189.599 199.949C169.136 197.856 162.364 195.222 162.364 195.222C162.364 195.222 158.224 179.418 165.373 179.041C172.522 178.664 181.853 176.905 181.853 176.905V131.396" fill="#E6D8C3"/>
<path d="M152.071 27.3665C150.737 27.9249 149.341 27.3131 148.758 25.9134C148.164 24.4926 148.719 23.0501 150.075 22.4837C151.432 21.9172 152.801 22.5296 153.404 23.9727C153.998 25.3957 153.448 26.7907 152.071 27.3665ZM149.513 19.6867L148.451 20.13C148.186 20.2395 147.889 20.2455 147.62 20.1467C147.35 20.0479 147.128 19.8515 146.996 19.5965L146.944 19.4938C145.801 17.4333 145.672 14.9292 146.557 12.0548C147.378 9.47622 147.719 7.66269 147.033 6.01977C146.24 4.12031 144.547 3.52531 142.386 4.38709C141.549 4.73702 141.282 4.73144 140.623 5.38538C140.479 5.52932 140.309 5.64292 140.12 5.7194C139.932 5.79589 139.73 5.83368 139.527 5.83054C139.331 5.82821 139.137 5.78636 138.957 5.70748C138.777 5.6286 138.615 5.51431 138.48 5.37142C138.221 5.09602 138.075 4.73237 138.073 4.3539C138.071 3.97544 138.213 3.61035 138.47 3.33236C139.578 2.1725 140.914 1.25491 142.395 0.637488C147.035 -1.30013 149.371 1.5607 150.44 4.12062C151.486 6.6247 150.898 8.94823 149.953 11.957C149.161 14.4574 149.208 16.31 150.108 18.1521C150.173 18.2914 150.209 18.4423 150.214 18.5959C150.219 18.7495 150.193 18.9026 150.138 19.0459C150.082 19.1892 149.998 19.3198 149.891 19.4299C149.784 19.5399 149.656 19.6272 149.514 19.6864L149.513 19.6867Z" fill="#A86523"/>
</svg>
