<svg width="457" height="500" viewBox="0 0 457 500" fill="none" xmlns="http://www.w3.org/2000/svg">
<g clip-path="url(#clip0_973_18810)">
<path d="M270.5 483.537C270.5 483.651 270.522 483.764 270.565 483.87C270.609 483.975 270.673 484.071 270.753 484.152C270.834 484.232 270.93 484.296 271.035 484.34C271.141 484.383 271.254 484.405 271.368 484.405H456.132C456.362 484.405 456.583 484.314 456.746 484.151C456.909 483.988 457 483.768 457 483.537C457 483.307 456.909 483.087 456.746 482.924C456.583 482.761 456.362 482.67 456.132 482.67H271.368C271.254 482.67 271.141 482.692 271.035 482.735C270.93 482.779 270.834 482.843 270.753 482.923C270.673 483.004 270.609 483.1 270.565 483.205C270.522 483.31 270.5 483.423 270.5 483.537Z" fill="#E6E6E6"/>
<path d="M47.3266 0H227.661C239.022 0 249.919 4.51059 257.952 12.5395C265.986 20.5684 270.499 31.4579 270.499 42.8125V441.591C270.499 452.946 265.986 463.835 257.952 471.864C249.919 479.893 239.022 484.404 227.661 484.404H47.3266C35.9652 484.404 25.0691 479.893 17.0353 471.864C9.00159 463.835 4.48828 452.946 4.48828 441.591L4.48828 42.8125C4.48828 31.4579 9.00159 20.5684 17.0353 12.5395C25.0691 4.51059 35.9652 0 47.3266 0Z" fill="#2C1A0A"/>
<path d="M266.013 47.8957V436.513C266 448.021 261.42 459.055 253.277 467.192C245.134 475.33 234.094 479.908 222.578 479.921H52.4133C40.8971 479.909 29.8561 475.332 21.7125 467.194C13.569 459.056 8.98802 448.022 8.97461 436.513V47.8957C8.98802 36.3871 13.5685 25.3537 21.7112 17.2159C29.854 9.07806 40.894 4.50036 52.4096 4.48696H74.6642V12.1688C74.6644 15.6465 76.0468 18.9817 78.5073 21.4408C80.9678 23.8999 84.3049 25.2816 87.7846 25.282C116.594 33.9788 150.41 32.6213 187.205 25.282C190.685 25.2818 194.022 23.9003 196.483 21.4412C198.943 18.9822 200.326 15.6471 200.326 12.1695V4.48633H222.578C234.094 4.49973 245.134 9.07744 253.277 17.2153C261.42 25.3531 266 36.3865 266.013 47.8951V47.8957Z" fill="white"/>
<path d="M3.26384 98.2669C2.39852 98.2659 1.56891 97.9219 0.957036 97.3104C0.345162 96.6989 0.0009931 95.8698 0 95.005V88.4806C0 87.6155 0.343859 86.7859 0.955948 86.1741C1.56804 85.5624 2.39821 85.2188 3.26384 85.2188C4.12947 85.2188 4.95962 85.5624 5.57171 86.1741C6.1838 86.7859 6.52768 87.6155 6.52768 88.4806V95.0044C6.52669 95.8692 6.1825 96.6983 5.57062 97.3098C4.95875 97.9213 4.12916 98.2653 3.26384 98.2662V98.2669Z" fill="#2C1A0A"/>
<path d="M3.26384 131.721C2.39852 131.72 1.56891 131.376 0.957036 130.764C0.345162 130.153 0.0009931 129.324 0 128.459V110.5C0 109.635 0.343859 108.805 0.955948 108.194C1.56804 107.582 2.39821 107.238 3.26384 107.238C4.12947 107.238 4.95962 107.582 5.57171 108.194C6.1838 108.805 6.52768 109.635 6.52768 110.5V128.459C6.52669 129.324 6.1825 130.153 5.57062 130.764C4.95875 131.376 4.12916 131.72 3.26384 131.721Z" fill="#2C1A0A"/>
<path d="M3.26378 158.615C2.39824 158.614 1.56826 158.271 0.955999 157.659C0.343737 157.048 -0.000793696 156.218 -0.00195312 155.353V137.395C-0.00195312 136.53 0.341925 135.7 0.954014 135.088C1.5661 134.476 2.39626 134.133 3.26189 134.133C4.12751 134.133 4.95769 134.476 5.56978 135.088C6.18187 135.7 6.52575 136.53 6.52575 137.395V155.353C6.52459 156.218 6.18058 157.046 5.56913 157.658C4.95768 158.269 4.12866 158.613 3.26378 158.615Z" fill="#2C1A0A"/>
<path d="M64.9421 23.7097H42.91C41.828 23.7097 40.7902 23.2801 40.0251 22.5154C39.2599 21.7507 38.8301 20.7136 38.8301 19.6322C38.8301 18.5508 39.2599 17.5136 40.0251 16.749C40.7902 15.9843 41.828 15.5547 42.91 15.5547H64.9421C66.0241 15.5547 67.0619 15.9843 67.827 16.749C68.5922 17.5136 69.022 18.5508 69.022 19.6322C69.022 20.7136 68.5922 21.7507 67.827 22.5154C67.0619 23.2801 66.0241 23.7097 64.9421 23.7097Z" fill="#E6E6E6"/>
<path d="M265.472 47.7193V255.296C265.472 279.234 8.43555 279.234 8.43555 255.296V47.7193C8.44895 36.2103 13.0298 25.1765 21.173 17.0386C29.3163 8.9007 40.357 4.32328 51.873 4.31055H74.1252V11.9924C74.1253 15.4701 75.5077 18.8053 77.9682 21.2644C80.4287 23.7235 83.7658 25.1052 87.2456 25.1056C114.831 33.7637 148.886 32.3387 186.666 25.1056C190.146 25.1054 193.483 23.7239 195.944 21.2648C198.404 18.8058 199.787 15.4707 199.787 11.993V4.31055H222.038C233.554 4.32395 244.594 8.90166 252.736 17.0395C260.879 25.1773 265.46 36.2107 265.473 47.7193H265.472Z" fill="#F2F2F2"/>
<path d="M8.80664 251.234V255.312C8.80664 279.249 265.844 279.249 265.844 255.312V251.234C265.843 275.169 8.80664 275.169 8.80664 251.234Z" fill="#D6D6E3"/>
<path d="M134.544 479.782C134.405 479.554 131.115 474.065 129.975 462.667C128.929 452.21 129.6 434.583 138.748 409.995C156.077 363.415 134.755 325.832 134.537 325.458L135.589 324.848C135.644 324.943 141.146 334.525 144.396 349.785C148.691 370.014 147.127 391.048 139.888 410.421C122.589 456.921 135.448 478.934 135.581 479.151L134.544 479.782Z" fill="#D6D6E3"/>
<path d="M127.768 322.724C132.133 322.724 135.671 319.188 135.671 314.826C135.671 310.464 132.133 306.928 127.768 306.928C123.403 306.928 119.865 310.464 119.865 314.826C119.865 319.188 123.403 322.724 127.768 322.724Z" fill="#A86523"/>
<path d="M152.692 351.884C157.057 351.884 160.595 348.348 160.595 343.986C160.595 339.624 157.057 336.088 152.692 336.088C148.327 336.088 144.789 339.624 144.789 343.986C144.789 348.348 148.327 351.884 152.692 351.884Z" fill="#D6D6E3"/>
<path d="M135.67 371.326C140.035 371.326 143.573 367.789 143.573 363.427C143.573 359.065 140.035 355.529 135.67 355.529C131.306 355.529 127.768 359.065 127.768 363.427C127.768 367.789 131.306 371.326 135.67 371.326Z" fill="#A86523"/>
<path d="M156.338 387.728C160.703 387.728 164.241 384.192 164.241 379.83C164.241 375.468 160.703 371.932 156.338 371.932C151.974 371.932 148.436 375.468 148.436 379.83C148.436 384.192 151.974 387.728 156.338 387.728Z" fill="#A86523"/>
<path d="M129.592 413.245C133.957 413.245 137.495 409.709 137.495 405.347C137.495 400.985 133.957 397.449 129.592 397.449C125.228 397.449 121.689 400.985 121.689 405.347C121.689 409.709 125.228 413.245 129.592 413.245Z" fill="#D6D6E3"/>
<path d="M139.319 480.073C139.319 480.073 131.416 460.632 155.124 446.051L139.319 480.073Z" fill="#D6D6E3"/>
<path d="M129.599 479.721C129.599 479.721 126.003 459.047 98.166 459.224L129.599 479.721Z" fill="#D6D6E3"/>
<path opacity="0.097" d="M136.955 209.177C173.008 209.177 202.235 179.968 202.235 143.937C202.235 107.906 173.008 78.6973 136.955 78.6973C100.902 78.6973 71.6758 107.906 71.6758 143.937C71.6758 179.968 100.902 209.177 136.955 209.177Z" fill="#A86523"/>
<path opacity="0.2" d="M136.956 189.88C162.345 189.88 182.927 169.31 182.927 143.936C182.927 118.562 162.345 97.9922 136.956 97.9922C111.567 97.9922 90.9844 118.562 90.9844 143.936C90.9844 169.31 111.567 189.88 136.956 189.88Z" fill="#A86523"/>
<path d="M136.954 174.26C153.711 174.26 167.295 160.684 167.295 143.938C167.295 127.191 153.711 113.615 136.954 113.615C120.197 113.615 106.613 127.191 106.613 143.938C106.613 160.684 120.197 174.26 136.954 174.26Z" fill="#A86523"/>
<path d="M142.471 137.397C142.471 136.467 142.236 135.551 141.787 134.736C141.338 133.921 140.689 133.233 139.903 132.736C139.116 132.239 138.216 131.949 137.286 131.893C136.357 131.837 135.429 132.017 134.588 132.416C133.747 132.815 133.021 133.42 132.477 134.175C131.933 134.931 131.59 135.811 131.478 136.735C131.366 137.658 131.49 138.595 131.839 139.458C132.187 140.321 132.748 141.082 133.469 141.669L131.438 155.883H142.47L140.439 141.669C141.074 141.153 141.586 140.502 141.938 139.763C142.29 139.024 142.472 138.215 142.471 137.397Z" fill="white"/>
<path d="M414.311 109.934C414.311 109.934 401.152 98.1434 383.456 120.364C365.76 142.585 338.08 153.468 331.729 162.085C331.729 162.085 358.047 151.201 367.125 146.666C376.203 142.131 375.746 143.041 375.746 143.041C375.746 143.041 363.49 151.655 361.221 160.272C358.952 168.89 360.767 176.147 356.684 184.76C352.6 193.373 434.731 190.656 434.731 190.656C434.731 190.656 442.898 176.598 440.629 162.086C438.36 147.575 439.722 111.748 414.311 109.934Z" fill="#2C1A0A"/>
<path d="M389.423 144.891C389.423 144.891 392.284 164.909 380.021 169.403C367.758 173.896 372.251 180.024 372.251 180.024L390.646 189.012L410.267 182.887L416.807 173.082C416.807 173.082 406.179 170.631 409.041 163.278C411.902 155.924 412.72 153.473 412.72 153.473L389.423 144.891Z" fill="#ED9DA0"/>
<path d="M440.927 202.086C440.927 202.086 438.065 239.67 438.883 241.305C439.701 242.939 438.883 299.724 438.883 299.724C438.883 299.724 439.669 320.137 435.153 326.465C434.761 327.021 432.268 327.826 431.526 327.991C424.168 329.625 431.526 297.678 431.526 297.678L424.168 250.289L424.985 203.308L440.927 202.086Z" fill="#ED9DA0"/>
<path d="M361.215 315.248C361.215 315.248 347.726 366.314 348.134 391.234C348.542 416.154 353.857 450.879 353.857 450.879C353.857 450.879 354.674 465.995 353.448 467.629C352.222 469.264 359.577 476.209 359.577 476.209L367.343 471.715L370.205 468.447V465.589C370.205 465.589 365.708 451.699 369.388 440.669C373.067 429.639 375.11 401.857 371.431 393.28L396.778 318.107L361.215 315.248Z" fill="#ED9DA0"/>
<path d="M360.398 469.672C360.398 469.672 355.493 463.547 352.223 465.587C348.953 467.627 343.638 481.52 343.638 481.52C343.638 481.52 325.243 499.087 338.323 499.904C351.402 500.72 357.126 496.227 358.761 492.959C360.396 489.69 375.521 481.111 375.521 481.111C375.521 481.111 373.886 465.587 371.434 465.179C368.982 464.77 365.305 471.304 365.305 471.304L360.398 469.672Z" fill="#2C1A0A"/>
<path d="M405.772 318.515V369.171C405.819 375.318 406.229 381.456 406.998 387.555C408.224 396.542 400.049 463.541 400.049 463.541L400.867 475.39L411.087 474.573L412.312 464.358L427.028 419.421C427.028 419.421 431.933 392.05 429.48 381.836C427.028 371.623 438.64 306.553 438.64 306.553L405.772 318.515Z" fill="#ED9DA0"/>
<path d="M397.597 472.531L400.624 471.874C400.624 471.874 402.911 466.811 405.773 468.037C407.787 468.965 409.695 470.108 411.464 471.445L412.723 473.757C412.723 473.757 415.585 479.882 419.263 483.97C422.942 488.058 427.03 497.043 420.899 497.86C414.767 498.677 406.591 499.086 404.138 497.043C401.686 495.001 403.321 491.731 400.868 490.918C398.416 490.106 396.372 487.65 396.781 486.833C397.19 486.017 397.597 472.531 397.597 472.531Z" fill="#2C1A0A"/>
<path d="M405.773 161.096C415.806 161.096 423.94 152.967 423.94 142.939C423.94 132.912 415.806 124.783 405.773 124.783C395.739 124.783 387.605 132.912 387.605 142.939C387.605 152.967 395.739 161.096 405.773 161.096Z" fill="#ED9DA0"/>
<path d="M371.438 172.671L376.837 170.787C376.837 170.787 374.711 174.305 386.155 176.35C397.6 178.394 409.454 179.115 414.769 172.421C414.769 172.421 416.813 171.447 419.675 174.306C422.536 177.166 424.171 176.349 424.171 176.349L422.127 186.971L418.04 206.58L412.724 221.287L397.6 218.019L381.248 206.171L375.12 190.239V175.531L371.438 172.671Z" fill="#A86523"/>
<path d="M421.305 178.39L425.393 175.53C425.393 175.53 439.291 177.981 440.109 184.517L429.48 204.943C431.648 210.627 431.501 216.933 429.071 222.51C424.984 231.907 425.392 233.948 425.392 233.948L422.531 246.203L370.617 250.288C370.617 250.288 368.573 245.386 367.756 244.569C366.938 243.752 366.938 240.892 367.756 240.892C368.573 240.892 367.756 239.667 366.938 238.441C366.121 237.215 365.712 236.807 366.938 235.173C368.165 233.539 364.894 218.836 364.894 218.836V202.898L350.996 184.515C350.996 184.515 355.902 177.161 358.354 176.344C360.807 175.527 372.474 172.305 372.474 172.305L375.114 176.19L378.79 205.761L384.106 223.736L406.481 219.937L415.174 205.352L420.896 188.194L421.305 178.39Z" fill="#A86523"/>
<path d="M436.839 182.064L440.109 184.516C440.109 184.516 442.971 207.391 442.153 209.028C441.335 210.664 427.028 212.296 426.619 211.479C426.21 210.662 436.839 182.064 436.839 182.064Z" fill="#A86523"/>
<path d="M369.392 170.629L373.48 197.592C373.48 197.592 369.801 237.628 370.618 245.799L371.435 248.25C371.435 248.25 369.8 247.433 369.392 249.067C368.983 250.7 369.392 256.012 369.392 256.012C369.392 256.012 366.939 258.463 366.121 271.944C365.304 285.425 353.77 323.827 357.449 325.053C361.128 326.279 388.329 337.899 400.183 336.673C412.037 335.447 445.093 328.73 444.684 325.053C444.275 321.376 429.89 250.292 429.89 250.292C429.89 250.292 426.211 244.167 426.211 243.347C426.211 242.527 431.116 239.262 429.89 235.994C428.664 232.725 422.123 198.411 422.123 198.411L426.62 173.899L420.491 172.265L415.995 195.959C415.995 195.959 398.417 204.539 380.022 196.776L375.935 168.996L369.392 170.629Z" fill="#2C1A0A"/>
<path d="M389.059 129.91C389.059 129.91 419.308 150.745 427.484 141.348C435.659 131.95 413.176 123.781 413.176 123.781L394.372 121.738L389.059 129.91Z" fill="#2C1A0A"/>
<path d="M345.158 345.923C347.893 347.958 351.276 348.926 354.674 348.646C358.072 348.366 361.251 346.857 363.616 344.402C365.98 341.947 367.368 338.714 367.518 335.31C367.668 331.906 366.571 328.564 364.432 325.91C362.293 323.257 359.259 321.474 355.898 320.896C352.538 320.318 349.083 320.985 346.179 322.772C343.276 324.558 341.124 327.341 340.127 330.6C339.13 333.859 339.356 337.369 340.764 340.472L304.117 370.966L299.239 365.178L297.047 366.643L294.608 363.749L296.612 362.062L294.173 359.168L291.055 361.793L292.556 363.574L289.215 366.386L287.714 364.606L282.814 368.731L285.066 371.402L286.847 369.902L289.286 372.796L287.059 374.671L291.562 380.012L286.216 384.512L291.657 390.967L345.158 345.923ZM354.308 325.468C356.134 325.624 357.873 326.318 359.305 327.462C360.737 328.605 361.797 330.148 362.351 331.894C362.906 333.64 362.93 335.511 362.42 337.271C361.911 339.031 360.891 340.6 359.489 341.78C358.087 342.96 356.366 343.698 354.544 343.901C352.723 344.104 350.882 343.762 349.254 342.919C347.627 342.077 346.286 340.77 345.401 339.166C344.517 337.561 344.128 335.731 344.285 333.906C344.494 331.458 345.668 329.195 347.548 327.613C349.427 326.03 351.859 325.259 354.308 325.468Z" fill="#A86523"/>
<path d="M348.135 206.986C348.135 206.986 350.997 244.571 350.179 246.205C349.361 247.839 350.179 304.624 350.179 304.624C350.179 304.624 344.456 335.264 351.814 336.898C359.172 338.533 357.537 302.582 357.537 302.582L364.895 255.193L364.078 208.212L348.135 206.986Z" fill="#ED9DA0"/>
<path d="M354.266 183.293L350.996 184.519C350.996 184.519 344.867 210.256 346.499 210.256C348.131 210.256 367.756 212.707 367.756 211.89C367.756 211.074 364.077 191.055 364.077 191.055L354.266 183.293Z" fill="#A86523"/>
</g>
<defs>
<clipPath id="clip0_973_18810">
<rect width="457" height="500" fill="white"/>
</clipPath>
</defs>
</svg>
