<svg width="382" height="323" viewBox="0 0 382 323" fill="none" xmlns="http://www.w3.org/2000/svg">
<g clip-path="url(#clip0_120_476)">
<path d="M356.768 282.664C356.768 282.664 301.074 257.007 320.64 239.215C340.205 221.422 356.768 282.664 356.768 282.664Z" fill="#E6D8C3"/>
<path d="M355.799 288.651C355.799 288.651 330.2 204.48 367.895 208.506C405.59 212.531 355.799 288.651 355.799 288.651Z" fill="#E6D8C3"/>
<path d="M337.134 281.186L338.209 295.267L338.226 295.51C338.225 297.708 338.336 299.906 338.558 302.093C340.016 316.455 346.284 323 353.609 323C360.933 323 366.928 316.455 368.386 302.093C368.609 299.906 368.72 297.708 368.719 295.51L368.727 295.313L368.732 295.267L369.81 281.186H337.134Z" fill="#E6D8C3"/>
<path d="M368.731 295.267L368.727 295.313L368.719 295.51C368.72 297.708 368.609 299.906 368.386 302.093H338.558C338.336 299.906 338.225 297.708 338.226 295.51L338.208 295.267H368.731Z" fill="white"/>
<path d="M42.0582 294.918C42.0582 294.918 21.349 285.377 28.6242 278.761C35.8993 272.145 42.0582 294.918 42.0582 294.918Z" fill="#E6D8C3"/>
<path d="M28.3435 293.907L29.0911 303.704L29.1029 303.873C29.1022 305.403 29.1795 306.932 29.3343 308.454C30.3489 318.446 34.7096 323 39.806 323C44.9024 323 49.0733 318.446 50.0878 308.454C50.2427 306.932 50.3199 305.403 50.3192 303.873L50.3251 303.736L50.3281 303.704L51.0786 293.907L28.3435 293.907Z" fill="#E6D8C3"/>
<path d="M259.561 152.022C260.338 151.484 260.949 150.74 261.324 149.873C261.7 149.006 261.825 148.051 261.686 147.117C261.547 146.182 261.149 145.305 260.537 144.585C259.925 143.866 259.124 143.332 258.224 143.045L246.63 139.344L240.259 144.869L254.323 152.329C255.141 152.763 256.061 152.963 256.985 152.909C257.909 152.855 258.8 152.548 259.561 152.022Z" fill="#F5C76D"/>
<path d="M240.063 148.477L247.707 139.607L219.244 108.434L206.139 78.028C205.276 76.0245 203.739 74.3869 201.794 73.3992C199.85 72.4116 197.622 72.1363 195.496 72.6212C194.106 72.9383 192.807 73.57 191.699 74.4678C190.59 75.3656 189.702 76.5056 189.103 77.8003C188.503 79.095 188.208 80.51 188.24 81.9365C188.272 83.3631 188.631 84.7634 189.288 86.0298L206.392 119L240.063 148.477Z" fill="#E6D8C3"/>
<path d="M258.324 265.971L256.859 263.695H254.154V262.703H257.4L259.158 265.433L258.324 265.971Z" fill="#2C1A0A"/>
<path d="M252.253 263.695H246.552V262.703H252.253V263.695ZM244.651 263.695H238.95V262.703H244.651V263.695ZM237.049 263.695H231.348V262.703H237.049L237.049 263.695ZM229.447 263.695H223.745V262.703H229.447V263.695ZM221.845 263.695H216.144V262.703H221.845V263.695ZM214.243 263.695L208.961 263.691L208.48 263.627L208.611 262.643L209.059 262.703H214.243V263.695ZM206.596 263.376L200.944 262.625L201.075 261.641L206.727 262.393L206.596 263.376ZM199.06 262.375L193.408 261.623L193.539 260.639L199.191 261.391L199.06 262.375ZM191.525 261.372L185.873 260.621L186.003 259.637L191.655 260.389L191.525 261.372ZM183.989 260.371L178.337 259.619L178.467 258.635L184.119 259.387L183.989 260.371Z" fill="#2C1A0A"/>
<path d="M173.979 261.475L172.988 261.447L173.088 257.92L176.584 258.385L176.453 259.368L174.049 259.049L173.979 261.475Z" fill="#2C1A0A"/>
<path d="M173.221 288.047L172.229 288.019L172.419 281.375L173.41 281.404L173.221 288.047ZM173.474 279.189L172.482 279.161L172.672 272.518L173.663 272.546L173.474 279.189ZM173.726 270.332L172.735 270.304L172.925 263.661L173.916 263.689L173.726 270.332Z" fill="#2C1A0A"/>
<path d="M172.065 293.761L172.166 290.233L173.157 290.261L173.088 292.686L175.505 292.498L175.582 293.488L172.065 293.761Z" fill="#2C1A0A"/>
<path d="M177.48 293.34L177.403 292.351L183.097 291.908L183.174 292.897L177.48 293.34ZM185.072 292.75L184.995 291.76L190.689 291.317L190.766 292.307L185.072 292.75ZM192.663 292.16L192.586 291.17L198.281 290.727L198.357 291.717L192.663 292.16ZM200.255 291.569L200.179 290.58L205.872 290.137L205.949 291.127L200.255 291.569ZM207.847 290.979L207.77 289.99L213.465 289.547L213.541 290.536L207.847 290.979ZM215.439 290.389L215.362 289.399L221.056 288.956L221.133 289.946L215.439 290.389ZM223.031 289.799L222.954 288.809L228.648 288.366L228.725 289.356L223.031 289.799ZM230.623 289.208L230.546 288.219L236.24 287.776L236.317 288.765L230.623 289.208ZM238.214 288.618L238.138 287.628L243.832 287.185L243.909 288.175L238.214 288.618ZM245.807 288.028L245.73 287.038L251.424 286.595L251.5 287.585L245.807 288.028ZM253.398 287.437L253.322 286.448L259.016 286.005L259.093 286.994L253.398 287.437ZM260.991 286.847L260.914 285.857L266.608 285.415L266.684 286.404L260.991 286.847Z" fill="#2C1A0A"/>
<path d="M268.582 286.257L268.505 285.267L270.644 285.101L269.482 283.298L270.316 282.76L272.377 285.962L268.582 286.257Z" fill="#2C1A0A"/>
<path d="M268.242 281.372L264.523 275.597L265.357 275.059L269.076 280.834L268.242 281.372ZM263.283 273.672L259.564 267.896L260.398 267.358L264.117 273.134L263.283 273.672Z" fill="#2C1A0A"/>
<path d="M249.938 307.615C268.562 307.615 283.66 292.507 283.66 273.869C283.66 255.231 268.562 240.122 249.938 240.122C231.314 240.122 216.217 255.231 216.217 273.869C216.217 292.507 231.314 307.615 249.938 307.615Z" fill="#A86523"/>
<path d="M277.71 313.074L228.367 225.482L217.457 236.4L266.056 312.826L277.71 313.074Z" fill="#2C1A0A"/>
<path d="M128.193 310.841L239.028 198.435L248.203 216.549L143.07 315.804L128.193 310.841Z" fill="#2C1A0A"/>
<path d="M173.32 298.931C185.645 298.931 195.636 288.932 195.636 276.598C195.636 264.265 185.645 254.266 173.32 254.266C160.996 254.266 151.004 264.265 151.004 276.598C151.004 288.932 160.996 298.931 173.32 298.931Z" fill="#2C1A0A"/>
<path d="M143.566 283.05C143.434 283.05 143.308 283.102 143.215 283.195C143.122 283.288 143.07 283.415 143.07 283.546V287.516C143.07 287.648 143.122 287.774 143.215 287.867C143.308 287.96 143.434 288.013 143.566 288.013H155.964C156.095 288.013 156.221 287.96 156.314 287.867C156.407 287.774 156.46 287.648 156.46 287.516V283.546C156.46 283.415 156.407 283.288 156.314 283.195C156.221 283.102 156.095 283.05 155.964 283.05H143.566Z" fill="#A86523"/>
<path d="M172.081 227.715C171.949 227.715 171.823 227.768 171.73 227.861C171.637 227.954 171.585 228.08 171.585 228.212V232.182C171.585 232.313 171.637 232.44 171.73 232.533C171.823 232.626 171.949 232.678 172.081 232.678H184.478C184.61 232.678 184.736 232.626 184.829 232.533C184.922 232.44 184.974 232.313 184.974 232.182V228.212C184.974 228.08 184.922 227.954 184.829 227.861C184.736 227.768 184.61 227.715 184.478 227.715H172.081Z" fill="#A86523"/>
<path d="M232.334 219.527H219.44V209.601L224.399 207.616L232.334 213.572V219.527Z" fill="#2C1A0A"/>
<path d="M221.072 205.103L219.727 205.739L222.271 211.123L223.616 210.486L221.072 205.103Z" fill="#2C1A0A"/>
<path d="M222.497 198.661C222.403 198.661 222.31 198.689 222.231 198.74L213.471 204.378C213.361 204.449 213.283 204.561 213.255 204.69C213.227 204.819 213.252 204.953 213.323 205.064L215.468 208.403C215.54 208.513 215.652 208.591 215.78 208.619C215.909 208.647 216.043 208.623 216.154 208.552L224.913 202.914C225.023 202.843 225.101 202.731 225.129 202.602C225.157 202.474 225.133 202.339 225.062 202.228L222.916 198.889C222.881 198.834 222.835 198.787 222.781 198.75C222.728 198.713 222.668 198.687 222.604 198.673C222.569 198.665 222.533 198.661 222.497 198.661Z" fill="#A86523"/>
<path d="M242.252 218.534L232.086 169.155L243.988 167.17L252.103 206.949C252.451 208.391 252.454 209.895 252.111 211.338C251.767 212.782 251.088 214.123 250.127 215.253C249.166 216.383 247.952 217.27 246.583 217.84C245.214 218.41 243.73 218.648 242.252 218.534Z" fill="#2C1A0A"/>
<path d="M279.709 159.426L267.935 158.584C267.778 158.573 267.625 158.524 267.49 158.442C267.356 158.36 267.242 158.247 267.16 158.112C267.077 157.978 267.028 157.825 267.017 157.668C267.005 157.51 267.031 157.352 267.092 157.207L284.195 116.797C284.259 116.645 284.36 116.512 284.489 116.409C284.618 116.305 284.771 116.236 284.933 116.207L296.546 114.132C296.72 114.101 296.899 114.117 297.064 114.178C297.229 114.239 297.376 114.343 297.487 114.479C297.599 114.616 297.673 114.78 297.7 114.954C297.728 115.128 297.709 115.306 297.644 115.471L280.703 158.797C280.626 158.994 280.488 159.162 280.309 159.275C280.13 159.388 279.92 159.441 279.709 159.426Z" fill="#2C1A0A"/>
<path d="M269.527 155.507L278.949 156.5L294.322 117.791L284.404 119.279L269.527 155.507Z" fill="#A86523"/>
<path d="M166.874 261.71L154.476 274.117L136.623 196.202L146.541 197.691L166.874 261.71Z" fill="#2C1A0A"/>
<path d="M152.426 197.573L150.284 196.93C146.077 198.786 141.499 199.648 136.905 199.45C135.913 199.408 134.975 198.983 134.29 198.264C133.604 197.545 133.224 196.588 133.23 195.594C133.23 194.571 133.636 193.589 134.359 192.866C135.082 192.142 136.063 191.736 137.086 191.736H155.79C156.296 191.736 156.782 191.937 157.14 192.295C157.498 192.653 157.699 193.139 157.699 193.646C157.699 194.285 157.55 194.915 157.263 195.486C156.977 196.058 156.56 196.554 156.048 196.935C155.536 197.317 154.941 197.573 154.312 197.684C153.683 197.794 153.037 197.756 152.426 197.573Z" fill="#2C1A0A"/>
<path d="M270.9 148.847C270.421 148.846 269.955 149.003 269.574 149.294L254.349 160.945L237.307 163.17C234.372 163.553 232.34 166.747 232.086 169.651L252.147 166.863C254.934 166.595 257.567 165.463 259.682 163.627L272.328 152.682C272.666 152.39 272.906 152.003 273.016 151.571C273.127 151.14 273.103 150.684 272.947 150.267C272.792 149.849 272.512 149.489 272.146 149.235C271.78 148.982 271.345 148.846 270.9 148.847Z" fill="#2C1A0A"/>
<path d="M263.461 141.403C262.982 141.402 262.517 141.559 262.136 141.85L246.911 153.501L229.868 155.726C226.934 156.109 224.902 159.303 224.647 162.207L244.708 159.419C247.495 159.15 250.129 158.019 252.243 156.183L264.89 145.237C265.227 144.946 265.467 144.559 265.578 144.127C265.688 143.695 265.664 143.24 265.509 142.823C265.353 142.405 265.074 142.045 264.708 141.791C264.342 141.538 263.907 141.402 263.461 141.403Z" fill="#2C1A0A"/>
<path d="M272.75 171.388C269.205 171.381 265.711 170.541 262.549 168.936C259.387 167.332 256.645 165.007 254.544 162.149L256.543 160.681C258.147 162.874 260.178 164.718 262.514 166.102C264.85 167.487 267.442 168.383 270.133 168.737C272.825 169.091 275.56 168.895 278.174 168.161C280.788 167.427 283.226 166.171 285.341 164.468C287.456 162.765 289.204 160.65 290.48 158.252C291.755 155.854 292.532 153.222 292.762 150.515C292.993 147.808 292.673 145.082 291.821 142.503C290.969 139.923 289.604 137.543 287.807 135.506L289.666 133.863C292.541 137.122 294.414 141.141 295.062 145.439C295.71 149.737 295.104 154.131 293.318 158.093C291.532 162.055 288.642 165.417 284.993 167.775C281.345 170.134 277.094 171.388 272.75 171.388Z" fill="#2C1A0A"/>
<path d="M290.107 310.593H114.555V323H290.107V310.593Z" fill="#2C1A0A"/>
<path d="M247.086 164.788C247.962 164.437 248.723 163.848 249.282 163.086C249.841 162.324 250.175 161.421 250.247 160.479C250.319 159.537 250.125 158.593 249.689 157.755C249.252 156.918 248.589 156.219 247.776 155.739L237.293 149.552L229.854 153.522L241.911 163.923C242.611 164.528 243.465 164.928 244.377 165.081C245.29 165.233 246.227 165.132 247.086 164.788Z" fill="#F5C76D"/>
<path d="M164.89 208.609L171.833 212.579L214.703 181.001C216.275 179.926 217.608 178.537 218.618 176.922C219.628 175.306 220.294 173.5 220.573 171.615C220.921 169.231 220.644 166.799 219.767 164.556C218.891 162.312 217.445 160.337 215.574 158.822C206.106 151.127 194.405 144.147 181.999 137.393L163.65 146.326C171.212 161.843 179.606 174.636 191.917 174.614L164.89 208.609Z" fill="#A86523"/>
<path d="M161.864 218.718C167.624 224.558 175.209 228.736 183.682 232.107C184.32 232.36 185.022 232.409 185.689 232.247C186.356 232.085 186.957 231.719 187.409 231.201C187.957 230.572 188.248 229.76 188.226 228.926C188.203 228.092 187.867 227.297 187.285 226.699L181.793 221.057L178.475 209.23C171.349 212.755 166.677 211.966 165.756 204.581L161.265 210.711C160.397 211.899 159.98 213.357 160.09 214.825C160.2 216.292 160.829 217.673 161.864 218.718Z" fill="#3B2F2F"/>
<path d="M142.574 271.139L152.988 271.636L176.792 149.056L135.879 135.905C131.795 151.188 137.859 176.203 148.525 205.631L142.574 271.139Z" fill="#A86523"/>
<path d="M222.663 68.9077C231.702 68.9077 239.028 61.5754 239.028 52.5306C239.028 43.4858 231.702 36.1536 222.663 36.1536C213.625 36.1536 206.298 43.4858 206.298 52.5306C206.298 61.5754 213.625 68.9077 222.663 68.9077Z" fill="#F5C76D"/>
<path d="M192.661 72.6297L203.075 80.0738L218.944 64.193L211.01 54.2676L192.661 72.6297Z" fill="#F5C76D"/>
<path d="M134.144 137.145C146.987 147.619 161.012 154.503 178.28 151.537C183.498 143.189 187.35 125.603 193.901 118.039C208.205 101.521 215.3 86.7983 210.762 73.3741C206.35 70.4878 206.544 70.4926 203.323 60.9673C178.093 65.6385 153.667 94.1407 134.144 137.145Z" fill="#E6D8C3"/>
<path d="M142.407 281.353C149.82 284.861 158.377 286.182 167.491 286.439C168.178 286.458 168.853 286.263 169.425 285.881C169.996 285.5 170.435 284.95 170.681 284.308C170.981 283.53 170.976 282.667 170.669 281.891C170.361 281.115 169.773 280.484 169.022 280.122L161.929 276.708L154.758 266.738C149.273 272.495 144.614 273.358 141.217 266.738L139.1 274.037C138.692 275.451 138.8 276.964 139.407 278.305C140.013 279.646 141.077 280.726 142.407 281.353Z" fill="#3B2F2F"/>
<path d="M228.862 156.996L238.285 150.048L217.456 113.324L211.431 80.7645C211.034 78.6191 209.899 76.6805 208.223 75.2852C206.547 73.8899 204.435 73.126 202.255 73.126C200.829 73.126 199.422 73.453 198.142 74.0818C196.862 74.7107 195.743 75.6247 194.871 76.7537C193.999 77.8827 193.397 79.1967 193.112 80.5947C192.826 81.9928 192.865 83.4377 193.224 84.8186L202.579 120.768L228.862 156.996Z" fill="#E6D8C3"/>
<path d="M181.503 232.182H176.048V261.958H181.503V232.182Z" fill="#2C1A0A"/>
<path d="M235.617 47.7809C236.257 48.5494 237.079 49.1462 238.008 49.5176C238.937 49.889 239.943 50.0232 240.937 49.9082C242.907 49.6009 244.66 47.9192 244.786 45.9281C244.895 44.2086 243.885 42.6316 242.825 41.2738C240.487 38.2797 237.71 35.6563 234.588 33.4924C233.1 32.4611 231.457 31.5118 229.65 31.4006C228.756 31.3456 227.86 31.4999 226.965 31.4614C225.32 31.3906 223.778 30.678 222.172 30.3089C220.524 29.9415 218.816 29.9326 217.164 30.2829C215.512 30.6332 213.954 31.3345 212.597 32.3394C211.691 33.0317 210.873 33.8305 210.158 34.7185C208.181 37.1379 206.855 40.023 206.307 43.0996C205.444 47.9764 206.521 53.325 204.179 57.6882C206.927 57.4314 209.13 55.3347 211.74 54.4385C213.677 53.7804 215.78 53.7992 217.705 54.4917C218.201 54.7461 218.76 54.8507 219.314 54.7928C219.772 54.6311 220.172 54.3383 220.465 53.9508L225.457 48.5155C226.472 47.4093 227.626 46.2308 229.12 46.0777C230.011 46.0468 230.898 46.2228 231.711 46.5919C233.712 47.3493 235.648 48.2698 237.498 49.3443" fill="#3B2F2F"/>
<path d="M226.135 161.215L224.647 162.207L234.565 172.133L240.516 166.674L230.598 158.733L226.135 161.215Z" fill="#2C1A0A"/>
<path d="M122.817 0H0V127.17H122.817V0Z" fill="#E6D8C3"/>
<path d="M116.261 6.78903H6.55591V120.381H116.261V6.78903Z" fill="white"/>
<path d="M27.8999 122.366H31.8072L31.7824 120.792L31.7154 117.3L31.096 81.3964L31.0876 81.2287L30.7697 62.8834L29.9917 18.2877H29.8161L28.9874 63.2099L28.6611 81.2371L28.6527 81.4048L27.8999 122.366Z" fill="#E6D8C3"/>
<path d="M41.3051 115.777L39.8518 113.014L29.4239 118.508L30.8771 121.271L41.3051 115.777Z" fill="#E6D8C3"/>
<path d="M63.9723 3.39949H59.0132V123.498H63.9723V3.39949Z" fill="#E6D8C3"/>
<path d="M122.817 60.9673H0V65.93H122.817V60.9673Z" fill="#E6D8C3"/>
</g>
<defs>
<clipPath id="clip0_120_476">
<rect width="382" height="323" fill="white"/>
</clipPath>
</defs>
</svg>
